{"glyphs":{"0":{"ha":742,"x_min":26,"x_max":694,"o":"m 436 972 q 537 952 490 972 q 619 897 583 932 q 674 815 654 861 q 694 714 694 768 l 694 258 q 674 158 694 204 q 619 76 654 111 q 537 20 583 40 q 436 0 490 0 l 285 0 q 184 20 231 0 q 102 76 138 40 q 47 158 67 111 q 26 258 26 204 l 26 714 q 47 815 26 768 q 102 897 67 861 q 184 952 138 932 q 285 972 231 972 l 436 972 m 244 272 q 268 208 244 232 q 332 185 292 185 l 388 185 q 451 208 428 185 q 475 272 475 232 l 475 700 q 451 764 475 740 q 388 788 426 788 l 332 788 q 269 764 294 788 q 244 700 244 740 l 244 272 z "},"1":{"ha":465,"x_min":32,"x_max":397,"o":"m 264 972 q 289 963 276 972 l 390 811 q 397 786 397 801 l 397 35 q 388 10 397 19 q 364 0 378 0 l 214 0 q 189 10 199 0 q 179 35 179 19 l 179 753 q 169 778 179 768 q 144 788 160 788 l 67 788 q 42 797 51 788 q 32 822 32 807 l 32 938 q 42 963 32 953 q 67 972 51 972 l 264 972 z "},"2":{"ha":754,"x_min":25,"x_max":708,"o":"m 242 676 q 232 653 242 663 q 207 643 222 643 l 92 643 q 67 653 76 643 q 57 676 57 663 l 57 800 q 69 866 57 835 q 104 921 82 897 q 157 958 126 944 q 224 972 188 972 l 522 972 q 599 956 565 972 q 657 911 633 939 q 694 846 681 883 q 707 768 707 808 q 694 676 708 715 q 649 603 679 638 q 574 533 619 568 q 468 454 529 499 q 389 390 421 419 q 337 336 357 361 q 308 288 317 311 q 299 239 299 264 q 322 197 299 210 q 404 185 346 185 l 674 185 q 697 175 688 185 q 707 150 707 165 l 707 35 q 697 10 707 19 q 674 0 688 0 l 258 0 q 175 7 217 0 q 100 37 133 14 q 46 101 67 60 q 25 211 25 143 q 39 305 26 263 q 80 388 51 347 q 156 469 108 428 q 272 558 203 511 q 349 615 315 590 q 410 659 383 639 q 454 697 436 679 q 485 736 472 715 q 483 771 494 754 q 454 788 474 788 l 276 788 q 251 778 261 788 q 242 753 242 768 l 242 676 z "},"3":{"ha":733,"x_min":29,"x_max":685,"o":"m 542 497 q 533 488 533 494 q 543 478 533 478 q 645 419 606 467 q 685 308 685 371 l 685 172 q 672 105 685 136 q 635 50 658 74 q 581 13 611 26 q 514 0 550 0 l 196 0 q 131 15 161 1 q 78 52 100 29 q 42 106 56 75 q 29 172 29 138 l 29 296 q 39 319 29 310 q 64 329 49 329 l 183 329 q 208 319 199 329 q 218 296 218 310 l 218 219 q 228 194 218 204 q 253 185 238 185 l 432 185 q 457 194 447 185 q 467 219 467 204 l 467 313 q 453 372 467 350 q 410 394 440 394 l 335 394 q 310 404 319 394 q 300 429 300 414 l 300 544 q 310 569 300 560 q 335 579 319 579 l 411 579 q 454 602 442 579 q 467 663 467 625 l 467 753 q 457 778 467 768 q 432 788 447 788 l 253 788 q 228 778 238 788 q 218 753 218 768 l 218 676 q 208 653 218 663 q 183 643 199 643 l 64 643 q 39 653 49 643 q 29 676 29 663 l 29 800 q 42 866 29 835 q 78 920 56 897 q 131 957 100 943 q 196 972 161 971 l 514 972 q 581 959 550 972 q 635 922 611 946 q 672 867 658 899 q 685 800 685 836 l 685 667 q 647 558 685 606 q 549 499 608 510 l 542 497 z "},"4":{"ha":703,"x_min":18,"x_max":649,"o":"m 493 972 q 518 963 506 972 l 639 811 q 649 786 649 799 l 649 35 q 639 10 649 19 q 614 0 629 0 l 463 0 q 439 10 449 0 q 429 35 429 19 l 429 306 q 419 331 429 321 q 394 340 408 340 l 53 340 q 28 350 38 340 q 18 374 18 360 l 18 511 q 22 528 18 519 l 236 953 q 267 972 244 972 l 493 972 m 418 525 q 429 535 429 525 l 429 776 q 418 788 429 788 l 365 788 q 357 782 360 788 l 236 539 q 236 529 233 535 q 246 525 240 525 l 418 525 z "},"5":{"ha":699,"x_min":29,"x_max":658,"o":"m 433 649 q 529 628 488 649 q 599 573 571 608 q 643 491 628 538 q 658 390 658 444 l 658 258 q 638 158 658 204 q 583 76 618 111 q 501 20 547 40 q 400 0 454 0 l 288 0 q 187 20 233 0 q 105 76 140 40 q 49 158 69 111 q 29 258 29 204 l 29 374 q 39 403 29 388 q 64 418 49 418 l 179 418 q 204 403 194 418 q 214 374 214 388 l 214 272 q 240 206 214 226 q 304 185 267 185 l 351 185 q 413 206 388 185 q 439 272 439 226 l 439 433 q 419 482 439 461 q 371 503 399 503 l 138 503 q 57 528 85 503 q 29 614 29 553 l 29 800 q 42 866 29 835 q 78 920 56 897 q 131 957 100 943 q 196 972 161 971 l 565 972 q 590 963 581 972 q 600 938 600 953 l 600 822 q 590 797 600 807 q 565 788 581 788 l 231 788 q 219 783 224 788 q 214 771 214 778 l 214 665 q 219 653 214 658 q 231 649 224 649 l 433 649 z "},"6":{"ha":694,"x_min":29,"x_max":660,"o":"m 214 669 q 231 649 214 649 l 446 649 q 531 632 492 649 q 599 587 569 615 q 644 522 628 558 q 660 443 660 485 l 660 258 q 640 158 660 204 q 584 76 619 111 q 502 20 549 40 q 401 0 456 0 l 288 0 q 187 20 233 0 q 105 76 140 40 q 49 158 69 111 q 29 258 29 204 l 29 800 q 42 866 29 835 q 78 920 56 897 q 131 957 100 943 q 196 972 161 971 l 467 972 q 492 963 482 972 q 501 938 501 953 l 501 822 q 492 797 501 807 q 467 788 482 788 l 236 788 q 219 780 224 788 q 214 763 214 772 l 214 669 m 351 185 q 413 206 393 185 q 432 272 432 226 l 432 468 q 422 492 432 482 q 397 503 413 503 l 249 503 q 224 492 233 503 q 214 468 214 482 l 214 272 q 237 206 214 226 q 301 185 260 185 l 351 185 z "},"7":{"ha":561,"x_min":-37,"x_max":547,"o":"m 397 972 q 422 963 410 972 l 533 815 q 542 781 547 799 l 297 24 q 285 6 294 13 q 265 0 276 0 l 117 0 q 89 15 97 0 q 85 46 78 29 l 318 740 q 314 772 325 758 q 286 788 306 788 l -3 788 q -28 797 -18 788 q -37 822 -37 807 l -37 938 q -28 963 -37 953 q -3 972 -18 972 l 397 972 z "},"8":{"ha":733,"x_min":25,"x_max":693,"o":"m 550 478 q 607 457 581 472 q 652 419 633 442 q 682 368 671 396 q 693 308 693 340 l 693 172 q 679 105 693 136 q 642 50 665 74 q 588 13 619 26 q 521 0 557 0 l 197 0 q 130 13 161 0 q 75 50 99 26 q 38 105 51 74 q 25 172 25 136 l 25 308 q 36 368 25 340 q 66 419 47 396 q 111 457 85 442 q 168 478 138 472 q 176 488 176 478 q 168 497 176 496 q 103 524 129 497 q 76 590 76 551 l 76 800 q 90 867 76 836 q 126 922 103 899 q 181 959 150 946 q 247 972 213 972 l 469 972 q 537 959 506 972 q 592 922 568 946 q 628 867 615 899 q 642 800 642 836 l 642 590 q 615 524 642 551 q 550 497 588 497 q 542 488 542 496 q 550 478 542 478 m 442 746 q 423 801 442 781 q 369 821 404 821 l 347 821 q 294 801 313 821 q 275 746 275 781 l 275 688 q 294 633 275 653 q 347 613 313 613 l 369 613 q 423 633 404 613 q 442 688 442 653 l 442 746 m 474 356 q 456 408 474 390 q 407 425 438 425 l 310 425 q 262 408 281 425 q 243 356 243 390 l 243 254 q 262 202 243 219 q 310 185 281 185 l 407 185 q 456 202 438 185 q 474 254 474 219 l 474 356 z "},"9":{"ha":708,"x_min":22,"x_max":653,"o":"m 468 304 q 451 324 468 324 l 236 324 q 151 340 190 324 q 83 385 113 357 q 38 451 54 414 q 22 529 22 488 l 22 714 q 42 815 22 768 q 98 897 63 861 q 180 952 133 932 q 281 972 226 972 l 394 972 q 495 952 449 972 q 577 897 542 932 q 633 815 613 861 q 653 714 653 768 l 653 172 q 640 106 653 138 q 604 52 626 75 q 551 15 582 29 q 486 0 521 1 l 215 0 q 190 10 200 0 q 181 35 181 19 l 181 150 q 190 175 181 165 q 215 185 200 185 l 446 185 q 463 192 457 185 q 468 210 468 200 l 468 304 m 304 807 q 244 786 263 807 q 225 719 225 765 l 225 524 q 235 499 225 510 q 260 489 244 489 l 408 489 q 433 499 424 489 q 443 524 443 510 l 443 719 q 419 786 443 765 q 356 807 396 807 l 304 807 z "},"\u0000":{"ha":0,"x_min":0,"x_max":0,"o":""},"\r":{"ha":0,"x_min":0,"x_max":0,"o":""}," ":{"ha":483,"x_min":0,"x_max":0,"o":""},"\n":{"ha":0,"x_min":0,"x_max":0,"o":""},"!":{"ha":378,"x_min":39,"x_max":319,"o":"m 286 972 q 310 963 300 972 q 319 938 319 953 l 319 706 l 260 204 q 249 183 258 192 q 226 174 239 174 l 133 174 q 110 183 119 174 q 99 204 100 192 l 39 706 l 39 938 q 49 963 39 953 q 74 972 58 972 l 286 972 m 231 129 q 257 118 249 128 q 265 94 265 108 l 265 35 q 256 10 265 19 q 231 0 246 0 l 129 0 q 104 10 114 0 q 94 35 94 19 l 94 94 q 104 119 94 108 q 129 129 114 129 l 231 129 z "},"\"":{"ha":319,"x_min":33,"x_max":308,"o":"m 156 1035 q 169 1029 164 1035 q 172 1013 175 1024 l 122 851 q 107 840 119 840 l 53 840 q 39 847 44 840 q 38 863 33 856 l 86 1024 q 103 1035 90 1035 l 156 1035 m 289 1035 q 303 1028 297 1035 q 306 1013 308 1022 l 256 851 q 239 840 253 840 l 186 840 q 172 847 178 840 q 169 863 168 854 l 219 1024 q 236 1035 222 1035 l 289 1035 z "},"#":{"ha":1125,"x_min":51,"x_max":1074,"o":"m 1039 803 q 1063 793 1053 803 q 1074 768 1074 783 l 1074 575 q 1063 550 1074 560 q 1039 540 1053 540 l 861 540 q 844 529 849 540 l 819 454 q 821 439 815 447 q 835 432 828 432 l 956 432 q 981 422 971 432 q 990 397 990 413 l 990 204 q 981 179 990 189 q 956 169 971 169 l 733 169 q 717 158 721 169 l 671 24 q 659 6 668 13 q 639 0 650 0 l 554 0 q 526 14 536 0 q 522 46 515 29 l 557 147 q 554 163 560 154 q 540 169 550 169 l 354 169 q 339 158 342 169 l 292 24 q 260 0 285 0 l 175 0 q 147 14 158 0 q 143 46 138 31 l 178 147 q 175 163 181 157 q 161 169 171 169 l 86 169 q 61 179 71 169 q 51 204 51 189 l 51 397 q 61 422 51 413 q 86 432 71 432 l 264 432 q 279 443 276 432 l 306 518 q 303 533 308 528 q 289 540 299 540 l 168 540 q 144 550 154 540 q 135 575 135 560 l 135 768 q 144 793 135 783 q 168 803 154 803 l 392 803 q 407 814 404 803 l 454 949 q 486 972 461 972 l 571 972 q 599 958 588 972 q 603 926 608 942 l 568 825 q 571 810 565 815 q 585 803 575 803 l 769 803 q 786 814 782 803 l 832 949 q 865 972 842 972 l 949 972 q 976 958 967 972 q 982 926 986 944 l 946 825 q 949 810 943 818 q 963 803 953 803 l 1039 803 m 683 518 q 682 533 688 525 q 668 540 678 540 l 482 540 q 467 529 469 540 l 440 454 q 443 439 438 444 q 457 432 447 432 l 642 432 q 658 443 654 432 l 683 518 z "},"$":{"ha":821,"x_min":35,"x_max":763,"o":"m 582 660 q 558 669 567 660 q 547 693 547 681 l 547 753 q 538 778 547 768 q 514 788 528 788 l 358 788 q 292 774 317 788 q 271 728 268 760 q 297 678 274 703 q 352 633 319 654 q 422 590 385 611 q 490 550 460 569 q 603 476 553 511 q 690 404 654 442 q 744 324 725 367 q 763 225 763 281 q 704 58 763 115 q 543 0 646 0 l 469 0 l 469 -103 q 460 -128 469 -118 q 435 -137 450 -137 l 353 -137 q 329 -128 339 -137 q 319 -103 319 -118 l 319 0 l 69 0 q 44 10 57 0 q 35 35 35 22 l 35 150 q 44 175 35 165 q 69 185 54 185 q 135 185 94 185 q 219 186 176 186 q 302 187 263 186 q 367 188 342 188 q 451 205 414 190 q 489 257 489 219 q 478 290 486 272 q 449 331 469 308 q 392 379 428 353 q 297 439 356 406 q 110 578 174 511 q 47 726 47 644 l 47 754 q 60 836 47 797 q 98 905 72 875 q 163 953 124 935 q 254 971 201 971 l 319 971 l 319 1060 q 329 1083 319 1074 q 353 1093 339 1093 l 435 1093 q 461 1083 453 1093 q 469 1060 469 1074 l 469 972 l 567 972 q 632 957 601 971 q 685 920 663 943 q 719 866 707 897 q 732 800 732 835 l 732 693 q 722 669 732 679 q 699 660 713 660 l 582 660 z "},"%":{"ha":1317,"x_min":36,"x_max":1281,"o":"m 864 972 q 892 958 881 972 q 896 926 903 943 l 586 24 q 553 0 576 0 l 469 0 q 442 14 451 0 q 436 46 432 28 l 747 949 q 759 966 750 960 q 779 972 768 972 l 864 972 m 513 539 q 500 478 513 507 q 467 428 488 450 q 417 394 446 407 q 357 382 389 382 l 193 382 q 131 394 160 382 q 82 428 103 407 q 49 478 61 450 q 36 539 36 507 l 36 815 q 49 877 36 849 q 82 926 61 906 q 131 960 103 947 q 193 972 160 972 l 357 972 q 417 960 389 972 q 467 926 446 947 q 500 877 488 906 q 513 815 513 849 l 513 539 m 346 806 q 340 820 346 814 q 324 826 333 826 l 224 826 q 209 820 215 826 q 203 806 203 814 l 203 549 q 209 534 203 540 q 224 528 215 528 l 324 528 q 340 534 333 528 q 346 549 346 540 l 346 806 m 1124 590 q 1184 578 1156 590 q 1234 544 1213 565 q 1268 494 1256 522 q 1281 433 1281 465 l 1281 157 q 1268 95 1281 124 q 1234 46 1256 67 q 1184 13 1213 25 q 1124 0 1156 0 l 960 0 q 899 13 928 0 q 849 46 871 25 q 815 95 828 67 q 803 157 803 124 l 803 433 q 815 494 803 465 q 849 544 828 522 q 899 578 871 565 q 960 590 928 590 l 1124 590 m 1114 424 q 1108 438 1114 432 q 1093 444 1101 444 l 990 444 q 976 438 982 444 q 969 424 969 432 l 969 167 q 976 153 969 157 q 990 146 981 146 l 1093 146 q 1108 152 1101 146 q 1114 167 1114 158 l 1114 424 z "},"&":{"ha":846,"x_min":35,"x_max":804,"o":"m 783 415 q 804 386 804 406 l 804 283 q 790 257 804 268 q 761 254 776 247 l 718 271 l 718 171 q 706 106 718 136 q 671 52 693 75 q 618 15 649 29 q 553 0 588 1 l 207 0 q 140 13 171 0 q 85 50 108 26 q 48 105 61 74 q 35 172 35 136 l 35 314 q 48 381 35 350 q 85 436 61 413 q 140 473 108 460 q 207 486 171 486 q 140 499 171 486 q 85 536 108 513 q 48 591 61 560 q 35 658 35 622 l 35 800 q 48 867 35 836 q 85 922 61 899 q 140 959 108 946 q 207 972 171 972 l 553 972 q 618 957 588 971 q 671 920 649 943 q 706 866 693 897 q 718 800 718 835 l 718 658 q 708 633 718 643 q 685 624 699 624 l 568 624 q 543 633 553 624 q 533 658 533 643 l 533 753 q 524 778 533 768 q 500 788 514 788 l 288 788 q 263 778 274 788 q 253 753 253 768 l 253 649 q 259 628 253 638 q 275 617 265 619 l 783 415 m 533 215 l 533 281 q 501 322 533 311 l 296 406 q 267 401 279 410 q 253 376 253 392 l 253 217 q 263 194 253 203 q 285 185 272 185 l 503 185 q 524 193 515 185 q 533 215 533 201 z "},"'":{"ha":185,"x_min":33,"x_max":176,"o":"m 156 1035 q 170 1029 164 1035 q 172 1013 176 1024 l 122 851 q 107 840 119 840 l 53 840 q 39 847 44 840 q 38 863 33 856 l 86 1024 q 103 1035 90 1035 l 156 1035 z "},"(":{"ha":404,"x_min":31,"x_max":357,"o":"m 350 -17 q 353 -39 357 -28 q 340 -62 349 -50 l 261 -160 q 235 -167 251 -169 q 213 -151 219 -164 q 163 -63 193 -121 q 103 77 132 -6 q 52 267 74 160 q 31 504 31 374 q 49 735 31 633 q 92 914 67 838 q 144 1042 117 990 q 189 1124 171 1094 q 213 1139 197 1136 q 227 1141 219 1142 q 239 1133 235 1140 l 318 1035 q 329 1013 325 1024 q 326 990 333 1001 q 295 926 314 968 q 258 822 276 883 q 228 681 240 761 q 215 504 215 601 q 231 320 215 404 q 268 169 246 236 q 313 56 290 103 q 350 -17 336 8 z "},")":{"ha":440,"x_min":78,"x_max":404,"o":"m 246 1124 q 291 1042 264 1094 q 343 914 318 990 q 386 735 368 838 q 404 504 404 633 q 383 267 404 374 q 333 77 363 160 q 274 -63 304 -6 q 224 -151 243 -121 q 200 -167 215 -164 q 174 -160 183 -169 l 94 -62 q 83 -39 88 -50 q 85 -17 78 -28 q 123 56 100 8 q 167 169 146 103 q 204 320 189 236 q 219 504 219 404 q 207 681 219 601 q 176 822 194 761 q 140 926 158 883 q 108 990 121 968 q 106 1013 101 1001 q 118 1035 111 1024 l 196 1133 q 208 1140 200 1139 q 224 1139 217 1142 q 246 1124 239 1136 z "},"*":{"ha":350,"x_min":29,"x_max":322,"o":"m 319 949 q 322 938 322 944 q 317 931 322 932 l 251 921 q 245 914 246 919 q 247 904 244 908 l 286 851 q 282 835 293 843 l 226 800 q 210 806 215 792 l 186 858 q 175 865 183 865 q 163 858 165 865 l 139 806 q 122 800 133 792 l 67 835 q 63 851 56 843 l 103 904 q 104 914 106 908 q 99 921 103 919 l 35 931 q 29 939 29 933 q 32 949 29 944 l 56 1019 q 64 1025 58 1025 q 74 1022 69 1025 l 111 1003 q 125 1001 119 999 q 132 1013 132 1006 l 126 1050 q 129 1059 125 1056 q 139 1063 133 1063 l 210 1063 q 224 1050 224 1063 l 215 1013 q 222 1001 215 1006 q 235 1003 228 999 l 271 1022 q 289 1019 286 1031 l 319 949 z "},"+":{"ha":571,"x_min":32,"x_max":539,"o":"m 504 561 q 529 551 519 561 q 539 526 539 542 l 539 446 q 529 421 539 431 q 504 411 519 411 l 360 411 l 360 267 q 349 243 360 253 q 325 233 339 233 l 244 233 q 219 243 229 233 q 210 267 210 253 l 210 411 l 67 411 q 42 421 51 411 q 32 446 32 431 l 32 526 q 42 551 32 542 q 67 561 51 561 l 210 561 l 210 706 q 219 729 210 719 q 244 739 229 739 l 325 739 q 349 729 339 739 q 360 706 360 719 l 360 561 l 504 561 z "},",":{"ha":235,"x_min":26,"x_max":203,"o":"m 203 81 q 166 -34 200 13 q 53 -83 132 -81 q 42 -72 42 -83 l 42 -33 q 51 -22 42 -25 q 80 -15 67 -21 q 104 1 93 -10 q 49 31 71 6 q 29 92 26 57 q 56 149 32 125 q 114 174 79 172 q 176 151 150 175 q 203 90 201 126 l 203 81 z "},"-":{"ha":568,"x_min":31,"x_max":538,"o":"m 503 561 q 531 551 524 561 q 538 526 538 542 l 538 446 q 528 421 538 431 q 503 411 518 411 l 65 411 q 40 421 50 411 q 31 446 31 431 l 31 526 q 40 551 31 542 q 65 561 50 561 l 503 561 z "},".":{"ha":233,"x_min":22,"x_max":211,"o":"m 196 54 q 163 15 185 29 q 117 0 142 0 q 83 7 101 0 q 36 54 50 21 q 36 121 22 88 q 69 159 47 144 q 117 174 90 174 q 150 167 132 174 q 197 120 182 153 q 196 54 211 88 z "},"/":{"ha":614,"x_min":69,"x_max":574,"o":"m 535 972 q 563 958 551 972 q 567 926 574 943 l 257 24 q 224 0 247 0 l 107 0 q 79 14 89 0 q 74 46 69 28 l 385 949 q 397 966 388 960 q 417 972 406 972 l 535 972 z "},":":{"ha":244,"x_min":28,"x_max":217,"o":"m 136 593 q 71 608 100 588 q 36 665 42 629 q 51 730 29 701 q 108 765 72 758 q 173 750 144 771 q 207 693 201 729 q 193 628 214 657 q 136 593 172 600 m 201 242 q 169 202 190 217 q 122 188 147 188 q 89 194 107 188 q 42 242 56 208 q 42 308 28 275 q 74 347 53 333 q 121 361 96 361 q 138 360 129 361 q 156 354 147 358 q 202 308 188 340 q 201 242 217 275 z "},";":{"ha":250,"x_min":35,"x_max":211,"o":"m 125 593 q 63 618 89 593 q 38 679 38 643 q 63 741 38 715 q 125 767 89 767 q 186 741 161 767 q 211 679 211 715 q 186 618 211 643 q 125 593 161 593 m 211 268 q 174 153 208 200 q 61 104 140 107 q 50 115 50 104 l 50 156 q 60 165 50 165 q 113 189 92 168 q 57 219 79 193 q 38 279 35 246 q 64 337 40 314 q 122 361 88 360 q 184 338 158 363 q 211 278 210 314 l 211 268 z "},"<":{"ha":372,"x_min":17,"x_max":339,"o":"m 328 260 q 338 232 336 247 q 332 203 339 217 l 308 154 q 290 135 301 142 q 267 128 279 128 q 228 149 243 128 l 35 431 q 31 486 17 458 l 206 818 q 247 844 219 844 q 285 825 269 844 l 313 785 q 323 757 322 772 q 317 728 324 742 l 190 496 q 184 466 183 482 q 194 438 185 450 l 328 260 z "},"=":{"ha":579,"x_min":36,"x_max":543,"o":"m 508 636 q 533 626 524 636 q 543 601 543 617 l 543 521 q 533 496 543 506 q 508 486 524 486 l 71 486 q 46 496 56 486 q 36 521 36 506 l 36 601 q 44 626 36 617 q 71 636 53 636 l 508 636 m 508 444 q 533 435 524 444 q 543 411 543 425 l 543 331 q 533 306 543 315 q 508 296 524 296 l 71 296 q 46 306 56 296 q 36 331 36 315 l 36 411 q 44 435 36 425 q 71 444 51 444 l 508 444 z "},">":{"ha":372,"x_min":25,"x_max":357,"o":"m 340 486 q 338 431 357 458 l 143 149 q 106 128 129 128 q 64 154 78 128 l 39 203 q 44 260 25 233 l 176 438 q 187 466 186 450 q 181 496 188 482 l 56 728 q 58 785 40 757 l 88 825 q 125 844 103 844 q 147 838 136 844 q 165 818 158 831 l 340 486 z "},"?":{"ha":596,"x_min":26,"x_max":543,"o":"m 393 972 q 477 952 447 972 q 522 897 507 932 q 540 815 536 861 q 543 714 543 768 l 543 632 q 536 613 543 622 l 369 394 q 365 386 367 392 q 363 374 363 381 l 363 208 q 353 183 363 193 q 328 174 343 174 l 218 174 q 193 183 203 174 q 183 208 183 193 l 183 413 q 190 433 183 424 l 351 664 q 353 669 353 665 l 353 778 q 343 788 353 788 l 222 788 q 211 778 211 788 l 211 704 q 201 681 211 690 q 176 671 192 671 l 61 671 q 36 681 46 671 q 26 704 26 690 l 26 800 q 40 867 26 836 q 76 922 53 899 q 131 959 100 946 q 199 972 163 972 l 393 972 m 324 129 q 347 119 338 129 q 357 94 357 108 l 357 35 q 347 10 357 19 q 324 0 338 0 l 221 0 q 197 10 207 0 q 188 35 188 19 l 188 94 q 197 119 185 107 q 221 129 207 129 l 324 129 z "},"@":{"ha":1008,"x_min":39,"x_max":956,"o":"m 568 253 q 543 263 553 253 q 533 288 533 272 l 533 321 q 529 326 533 326 q 522 324 525 329 q 482 273 510 292 q 419 253 454 254 q 374 265 396 253 q 335 299 351 278 q 308 347 318 319 q 297 407 297 375 l 297 568 q 308 627 297 600 q 335 675 318 654 q 374 708 351 696 q 419 719 396 719 q 460 713 443 719 q 490 695 478 706 q 509 672 501 685 q 522 649 517 660 q 529 646 525 643 q 533 651 533 646 l 533 700 q 553 719 533 719 l 675 719 q 694 700 694 719 l 694 478 q 699 422 694 442 q 711 394 704 403 q 726 383 718 385 q 739 382 733 382 q 752 383 744 382 q 767 394 760 385 q 778 422 774 403 q 783 478 783 442 l 783 715 q 769 780 783 760 q 719 800 756 800 l 296 800 q 235 781 260 800 q 210 717 210 761 l 210 257 q 235 192 210 213 q 297 172 261 172 l 926 172 q 946 165 938 172 q 954 146 954 157 l 954 26 q 946 8 954 15 q 926 0 940 0 l 297 0 q 197 20 243 0 q 115 76 150 40 q 59 158 79 111 q 39 258 39 204 l 39 714 q 59 815 39 768 q 115 897 79 861 q 197 952 150 932 q 297 972 243 972 l 697 972 q 798 952 751 972 q 880 897 844 932 q 935 815 915 861 q 956 714 956 768 l 956 511 q 942 410 956 457 q 903 328 929 364 q 838 273 878 293 q 744 253 799 253 l 568 253 m 532 446 q 533 453 533 449 l 533 519 q 532 526 533 524 q 526 542 531 532 q 514 561 521 551 q 499 578 507 571 q 483 585 492 585 q 468 576 474 585 q 460 557 463 568 q 457 529 457 544 l 457 443 q 460 415 457 428 q 468 396 463 404 q 483 388 474 388 q 499 394 492 388 q 514 411 507 401 q 526 431 521 421 q 532 446 531 440 z "},"A":{"ha":776,"x_min":29,"x_max":726,"o":"m 660 788 q 646 781 650 788 q 643 765 642 774 l 725 422 q 726 417 725 419 q 726 413 726 415 l 726 35 q 717 10 726 19 q 692 0 707 0 l 540 0 q 517 10 526 0 q 507 35 507 19 l 507 206 q 497 231 507 221 q 472 240 488 240 l 281 240 q 256 231 267 240 q 246 206 246 221 l 246 35 q 236 10 246 19 q 213 0 226 0 l 64 0 q 39 10 49 0 q 29 35 29 19 l 29 413 q 31 422 29 419 l 113 765 q 110 781 115 775 q 96 788 106 788 l 64 788 q 39 797 49 788 q 29 822 29 807 l 29 938 q 39 963 29 953 q 64 972 49 972 l 692 972 q 717 963 707 972 q 726 938 726 953 l 726 822 q 717 797 726 807 q 692 788 707 788 l 660 788 m 378 744 q 344 740 358 744 q 325 713 331 736 l 261 447 q 264 432 258 438 q 278 425 268 425 l 478 425 q 492 432 485 425 q 493 447 497 440 l 431 713 q 411 740 425 735 q 378 744 397 744 z "},"B":{"ha":765,"x_min":32,"x_max":726,"o":"m 582 497 q 575 488 575 494 q 583 478 575 478 q 640 455 614 472 q 685 413 667 438 q 715 359 704 389 q 726 299 726 329 l 726 249 q 706 147 726 193 q 651 69 686 101 q 569 18 615 36 q 468 0 522 0 l 67 0 q 42 10 51 0 q 32 35 32 19 l 32 938 q 42 963 32 953 q 67 972 51 972 l 468 972 q 569 953 522 972 q 651 899 615 933 q 706 819 686 865 q 726 718 726 772 l 726 671 q 716 612 726 640 q 688 560 706 583 q 644 520 669 536 q 589 499 618 504 l 582 497 m 507 699 q 501 724 507 710 q 485 753 496 739 q 457 778 474 768 q 417 788 440 788 l 269 788 q 257 783 263 788 q 251 771 251 778 l 251 582 q 269 565 251 565 l 417 565 q 457 574 440 565 q 485 597 474 583 q 501 626 496 611 q 507 651 507 640 l 507 699 m 507 315 q 501 342 507 326 q 485 372 496 357 q 457 397 474 386 q 417 407 440 407 l 269 407 q 251 390 251 407 l 251 201 q 257 190 251 194 q 269 185 263 185 l 417 185 q 457 194 440 185 q 485 216 474 203 q 501 244 496 229 q 507 268 507 258 l 507 315 z "},"C":{"ha":765,"x_min":29,"x_max":714,"o":"m 564 564 q 539 574 549 564 q 529 597 529 583 l 529 751 q 519 776 529 767 q 496 786 510 786 l 283 786 q 259 776 269 786 q 249 751 249 767 l 249 218 q 259 193 249 203 q 283 183 269 183 l 496 183 q 519 193 510 183 q 529 218 529 203 l 529 372 q 539 396 529 386 q 564 406 549 406 l 681 406 q 704 396 694 406 q 714 372 714 386 l 714 171 q 701 105 714 136 q 667 51 689 74 q 614 14 644 28 q 549 -1 583 0 l 201 -1 q 134 12 165 -1 q 79 49 103 25 q 42 103 56 72 q 29 171 29 135 l 29 799 q 42 866 29 835 q 79 921 56 897 q 134 958 103 944 q 201 971 165 971 l 549 971 q 614 956 583 969 q 667 919 644 942 q 701 865 689 896 q 714 799 714 833 l 714 597 q 704 574 714 583 q 681 564 694 564 l 564 564 z "},"D":{"ha":778,"x_min":28,"x_max":726,"o":"m 421 972 q 539 953 483 972 q 636 897 594 935 q 702 801 678 858 q 726 667 726 743 l 726 308 q 708 188 726 244 q 651 90 689 132 q 554 24 613 49 q 418 0 496 0 l 63 0 q 38 10 47 0 q 28 35 28 19 l 28 938 q 38 963 28 953 q 63 972 47 972 l 421 972 m 508 664 q 479 759 508 731 q 411 788 450 788 l 265 788 q 253 783 258 788 q 247 771 247 778 l 247 201 q 253 190 247 194 q 265 185 258 185 l 411 185 q 479 214 450 185 q 508 310 508 243 l 508 664 z "},"E":{"ha":669,"x_min":35,"x_max":615,"o":"m 289 788 q 265 778 275 788 q 254 753 254 768 l 254 611 q 265 586 254 596 q 289 576 275 576 l 581 576 q 606 567 596 576 q 615 542 615 557 l 615 426 q 606 401 615 411 q 581 392 596 392 l 289 392 q 265 382 275 392 q 254 357 254 372 l 254 219 q 265 194 254 204 q 289 185 275 185 l 581 185 q 606 175 596 185 q 615 150 615 165 l 615 35 q 606 10 615 19 q 581 0 596 0 l 69 0 q 44 10 54 0 q 35 35 35 19 l 35 938 q 44 963 35 953 q 69 972 54 972 l 581 972 q 606 963 596 972 q 615 938 615 953 l 615 822 q 606 797 615 807 q 581 788 596 788 l 289 788 z "},"F":{"ha":657,"x_min":35,"x_max":615,"o":"m 288 788 q 263 778 274 788 q 253 753 253 768 l 253 608 q 263 583 253 593 q 288 574 274 574 l 581 574 q 606 564 596 574 q 615 539 615 554 l 615 424 q 606 399 615 408 q 581 389 596 389 l 288 389 q 263 379 274 389 q 253 354 253 369 l 253 35 q 243 10 253 19 q 219 0 233 0 l 69 0 q 44 10 54 0 q 35 35 35 19 l 35 938 q 44 963 35 953 q 69 972 54 972 l 581 972 q 606 963 596 972 q 615 938 615 953 l 615 822 q 606 797 615 807 q 581 788 596 788 l 288 788 z "},"G":{"ha":764,"x_min":35,"x_max":717,"o":"m 603 617 q 693 580 669 617 q 717 471 717 543 l 717 258 q 699 158 717 204 q 648 76 682 111 q 564 20 614 40 q 450 0 514 0 l 293 0 q 181 20 229 0 q 100 76 132 40 q 51 158 68 111 q 35 258 35 204 l 35 714 q 55 815 35 768 q 110 897 75 861 q 192 952 146 932 q 293 972 239 972 l 590 972 q 615 963 606 972 q 625 938 625 953 l 625 822 q 615 797 625 807 q 590 788 606 788 l 340 788 q 271 765 289 788 q 253 699 253 743 l 253 272 q 256 244 253 260 q 269 216 260 229 q 295 194 278 203 q 340 185 313 185 l 442 185 q 485 193 468 185 q 513 214 503 201 q 528 240 524 226 q 532 265 532 254 l 532 415 q 527 427 532 422 q 515 432 522 432 l 444 432 q 419 442 429 432 q 410 467 410 451 l 410 582 q 419 607 410 597 q 444 617 429 617 l 603 617 z "},"H":{"ha":794,"x_min":38,"x_max":743,"o":"m 708 972 q 733 963 724 972 q 743 938 743 953 l 743 35 q 733 10 743 19 q 708 0 724 0 l 558 0 q 535 10 544 0 q 525 35 525 19 l 525 353 q 515 378 525 368 q 490 388 506 388 l 290 388 q 266 378 276 388 q 256 353 256 368 l 256 35 q 246 10 256 19 q 222 0 236 0 l 72 0 q 47 10 57 0 q 38 35 38 19 l 38 938 q 47 963 38 953 q 72 972 57 972 l 222 972 q 246 963 236 972 q 256 938 256 953 l 256 607 q 266 582 256 592 q 290 572 276 572 l 490 572 q 515 582 506 572 q 525 607 525 592 l 525 938 q 535 963 525 953 q 558 972 544 972 l 708 972 z "},"I":{"ha":307,"x_min":29,"x_max":247,"o":"m 71 972 l 206 972 q 236 961 225 972 q 247 931 247 950 l 247 42 q 236 11 247 22 q 206 0 225 0 l 71 0 q 40 11 51 0 q 29 42 29 22 l 29 931 q 40 961 29 950 q 71 972 51 972 z "},"J":{"ha":496,"x_min":11,"x_max":435,"o":"m 400 972 q 425 963 415 972 q 435 938 435 953 l 435 258 q 423 158 435 204 q 386 76 411 111 q 322 20 361 40 q 231 0 283 0 l 46 0 q 21 10 31 0 q 11 35 11 19 l 11 150 q 21 175 11 165 q 46 185 31 185 l 160 185 q 205 204 193 185 q 217 272 217 224 l 217 771 q 211 783 217 778 q 199 788 206 788 l 171 788 q 147 797 157 788 q 136 822 136 807 l 136 938 q 147 963 136 953 q 171 972 157 972 l 400 972 z "},"K":{"ha":764,"x_min":32,"x_max":733,"o":"m 728 44 q 722 14 733 26 q 694 0 711 0 l 536 0 q 516 6 525 0 q 504 24 507 13 l 393 378 q 376 390 388 390 l 329 390 q 313 390 325 390 q 286 388 300 389 q 261 387 272 388 q 250 385 250 386 l 250 35 q 240 10 250 19 q 217 0 231 0 l 67 0 q 42 10 51 0 q 32 35 32 19 l 32 938 q 42 963 32 953 q 67 972 51 972 l 217 972 q 240 963 231 972 q 250 938 250 953 l 251 574 q 263 573 251 574 q 287 572 274 572 q 312 570 300 571 q 324 569 324 569 q 335 575 333 569 l 494 951 q 525 972 504 972 l 689 972 q 718 957 707 972 q 719 924 726 942 l 572 564 q 571 540 567 554 l 728 44 z "},"L":{"ha":664,"x_min":33,"x_max":624,"o":"m 589 185 q 614 175 604 185 q 624 150 624 165 l 624 35 q 614 10 624 19 q 589 0 604 0 l 292 0 q 191 20 238 0 q 109 76 144 40 q 53 158 74 111 q 33 258 33 204 l 33 938 q 43 963 33 953 q 68 972 53 972 l 219 972 q 243 963 233 972 q 253 938 253 953 l 253 272 q 258 243 253 258 q 275 215 264 228 q 302 193 286 201 q 339 185 318 185 l 589 185 z "},"M":{"ha":908,"x_min":40,"x_max":850,"o":"m 815 972 q 840 963 829 972 q 850 938 850 953 l 850 35 q 840 10 850 19 q 815 0 829 0 l 665 0 q 640 10 650 0 q 631 35 631 19 l 631 485 q 622 494 631 493 q 611 489 614 497 l 526 289 q 496 269 518 269 l 397 269 q 367 289 375 269 l 279 489 q 267 494 276 497 q 258 485 258 492 l 258 35 q 249 10 258 19 q 225 0 239 0 l 75 0 q 50 10 60 0 q 40 35 40 19 l 40 938 q 50 963 40 953 q 75 972 60 972 l 238 972 q 256 967 247 972 q 268 953 265 961 l 436 551 q 446 544 439 544 q 456 551 451 544 l 621 953 q 633 967 624 961 q 653 972 642 972 l 815 972 z "},"N":{"ha":813,"x_min":35,"x_max":758,"o":"m 724 972 q 749 963 739 972 q 758 938 758 953 l 758 35 q 749 10 758 19 q 724 0 739 0 l 560 0 q 542 5 551 0 q 531 17 533 10 l 272 515 q 261 519 269 522 q 253 510 253 517 l 253 35 q 243 10 253 19 q 219 0 233 0 l 69 0 q 44 10 54 0 q 35 35 35 19 l 35 938 q 44 963 35 953 q 69 972 54 972 l 235 972 q 251 968 243 972 q 264 957 260 964 l 521 454 q 533 450 524 447 q 540 460 540 453 l 540 938 q 550 963 540 953 q 575 972 560 972 l 724 972 z "},"O":{"ha":776,"x_min":33,"x_max":715,"o":"m 458 972 q 558 952 511 972 q 640 897 606 932 q 695 815 675 861 q 715 714 715 768 l 715 258 q 695 158 715 204 q 640 76 675 111 q 558 20 606 40 q 458 0 511 0 l 292 0 q 191 20 238 0 q 109 76 144 40 q 53 158 74 111 q 33 258 33 204 l 33 714 q 53 815 33 768 q 109 897 74 861 q 191 952 144 932 q 292 972 238 972 l 458 972 m 496 700 q 474 763 496 738 q 408 788 453 788 l 344 788 q 276 763 300 788 q 251 700 251 738 l 251 272 q 276 210 251 235 q 344 185 300 185 l 408 185 q 474 210 453 185 q 496 272 496 235 l 496 700 z "},"P":{"ha":771,"x_min":40,"x_max":728,"o":"m 469 972 q 569 952 522 972 q 652 897 617 932 q 708 814 688 861 q 728 714 728 767 l 728 599 q 708 499 728 546 q 652 417 688 451 q 570 362 617 382 q 469 342 524 342 l 293 342 q 269 332 279 342 q 258 307 258 322 l 258 35 q 249 10 258 19 q 225 0 239 0 l 75 0 q 50 10 60 0 q 40 35 40 19 l 40 938 q 50 963 40 953 q 75 972 60 972 l 469 972 m 508 701 q 486 763 508 739 q 419 788 464 788 l 276 788 q 264 783 269 788 q 258 771 258 778 l 258 543 q 276 526 258 526 l 419 526 q 486 550 464 526 q 508 613 508 574 l 508 701 z "},"Q":{"ha":779,"x_min":39,"x_max":725,"o":"m 724 258 q 706 160 725 207 q 651 78 688 114 l 690 -71 q 685 -100 694 -87 q 657 -114 674 -114 l 503 -114 q 483 -106 492 -114 q 471 -87 474 -99 l 447 0 l 297 0 q 197 20 243 0 q 115 76 150 40 q 59 158 79 111 q 39 258 39 204 l 39 714 q 59 815 39 768 q 115 897 79 861 q 197 952 150 932 q 297 972 243 972 l 467 972 q 567 952 519 972 q 649 897 614 932 q 703 815 683 861 q 724 714 724 768 l 724 258 m 504 700 q 483 763 504 738 q 417 788 461 788 l 346 788 q 279 763 301 788 q 257 700 257 738 l 257 272 q 280 210 257 235 q 347 185 303 185 l 418 185 q 483 210 463 185 q 504 274 504 235 l 504 700 z "},"R":{"ha":781,"x_min":40,"x_max":735,"o":"m 729 44 q 724 14 735 26 q 696 0 714 0 l 540 0 q 507 24 514 0 l 410 333 q 400 342 408 342 l 392 342 q 369 342 390 342 q 324 341 347 342 q 280 340 300 340 q 260 338 260 339 l 260 35 q 250 10 260 19 q 226 0 240 0 l 75 0 q 50 10 60 0 q 40 35 40 19 l 40 938 q 50 963 40 953 q 75 972 60 972 l 471 972 q 572 952 525 972 q 653 897 618 932 q 709 815 689 861 q 729 714 729 768 l 729 599 q 703 484 729 538 q 628 394 676 431 q 624 383 621 390 l 729 44 m 510 699 q 488 763 510 738 q 422 788 467 788 l 278 788 q 265 783 271 788 q 260 771 260 778 l 260 543 q 278 526 260 526 l 422 526 q 488 551 467 526 q 510 614 510 576 l 510 699 z "},"S":{"ha":715,"x_min":14,"x_max":668,"o":"m 518 625 q 494 635 503 625 q 483 658 483 646 l 483 750 q 474 775 483 765 q 450 785 464 785 l 292 785 q 258 774 276 785 q 238 735 240 763 q 236 714 236 726 q 238 692 236 701 q 260 635 242 660 q 308 589 279 611 q 372 545 336 567 q 449 497 408 524 q 534 441 496 467 q 599 386 572 415 q 642 319 626 357 q 661 224 658 281 q 640 113 661 157 q 581 44 618 69 q 497 8 544 18 q 399 -1 450 -1 l 64 -1 q 39 8 49 -1 q 29 33 29 18 l 29 149 q 39 174 29 164 q 64 183 49 183 l 303 183 q 359 198 335 183 q 385 240 383 213 q 358 306 388 267 q 249 392 328 344 q 137 468 182 431 q 65 542 92 506 q 26 613 38 578 q 14 683 14 649 l 14 713 q 28 809 14 763 q 69 891 42 856 q 137 948 96 926 q 231 969 178 969 l 503 971 q 568 956 538 969 q 621 919 599 942 q 656 865 643 896 q 668 799 668 833 l 668 658 q 658 635 668 644 q 635 625 649 625 l 518 625 z "},"T":{"ha":603,"x_min":7,"x_max":578,"o":"m 543 972 q 568 963 558 972 q 578 938 578 953 l 578 822 q 568 797 578 807 q 543 788 558 788 l 436 788 q 411 778 421 788 q 401 753 401 768 l 401 35 q 392 10 401 19 q 368 0 382 0 l 218 0 q 193 10 203 0 q 183 35 183 19 l 183 753 q 174 778 183 768 q 149 788 164 788 l 42 788 q 17 797 26 788 q 7 822 7 807 l 7 938 q 17 963 7 953 q 42 972 26 972 l 543 972 z "},"U":{"ha":767,"x_min":26,"x_max":711,"o":"m 678 972 q 701 963 692 972 q 711 938 711 953 l 711 258 q 691 158 711 204 q 636 76 671 111 q 554 20 601 40 q 454 0 507 0 l 285 0 q 184 20 231 0 q 102 76 138 40 q 47 158 67 111 q 26 258 26 204 l 26 938 q 36 963 26 953 q 61 972 46 972 l 213 972 q 236 963 226 972 q 246 938 246 953 l 246 274 q 269 210 246 235 q 336 185 292 185 l 406 185 q 472 210 450 185 q 493 274 493 235 l 493 938 q 503 963 493 953 q 528 972 513 972 l 678 972 z "},"V":{"ha":807,"x_min":-19,"x_max":792,"o":"m 754 972 q 782 960 772 972 q 788 929 792 946 l 568 26 q 535 0 561 0 l 238 0 q 204 26 211 0 l -15 929 q -10 960 -19 946 q 18 972 1 972 l 172 972 q 206 946 199 972 l 378 236 q 386 233 381 233 q 390 234 388 233 q 393 236 393 235 l 565 946 q 599 972 572 972 l 754 972 z "},"W":{"ha":1014,"x_min":-15,"x_max":1015,"o":"m 978 972 q 1004 960 996 972 q 1011 931 1015 947 l 828 28 q 794 0 821 0 l 565 0 q 544 21 549 0 l 508 306 q 499 315 508 315 q 489 306 489 315 l 456 21 q 449 6 456 11 q 432 0 442 0 l 206 0 q 184 8 193 0 q 172 28 175 15 l -12 931 q -4 960 -15 947 q 22 972 4 972 l 174 972 q 195 965 186 972 q 207 944 204 957 l 333 339 q 339 336 336 336 q 346 338 344 336 l 432 797 q 444 815 435 808 q 464 821 453 821 l 524 821 q 557 797 547 821 l 653 338 q 660 336 654 336 q 665 339 663 336 l 792 944 q 803 965 794 957 q 825 972 813 972 l 978 972 z "},"X":{"ha":765,"x_min":3,"x_max":749,"o":"m 583 492 q 583 468 579 481 l 738 46 q 735 15 744 29 q 706 0 724 0 l 546 0 q 526 6 535 0 q 514 22 517 11 l 386 367 q 379 369 386 369 q 370 369 375 369 q 365 367 365 368 l 238 22 q 206 0 231 0 l 46 0 q 18 15 26 0 q 14 46 7 29 l 168 468 q 168 492 172 481 l 10 926 q 13 957 3 943 q 42 972 24 972 l 201 972 q 222 967 213 972 q 233 950 231 961 l 363 597 q 369 597 364 597 q 379 596 375 596 q 386 597 383 596 q 389 597 388 597 l 518 950 q 530 967 521 961 q 550 972 539 972 l 710 972 q 739 957 728 972 q 743 926 749 943 l 583 492 z "},"Y":{"ha":708,"x_min":-33,"x_max":718,"o":"m 679 972 q 708 956 699 972 q 708 921 718 939 l 458 444 q 454 428 454 436 l 454 35 q 444 10 454 19 q 419 0 435 0 l 269 0 q 246 10 256 0 q 236 35 236 19 l 236 428 q 231 444 236 433 l -25 921 q -25 956 -33 939 q 6 972 -12 972 l 175 972 q 206 956 193 972 l 335 710 q 343 706 338 706 q 353 710 349 706 l 476 956 q 489 968 481 964 q 506 972 497 972 l 679 972 z "},"Z":{"ha":760,"x_min":28,"x_max":713,"o":"m 353 203 q 350 192 349 199 q 360 185 353 185 l 679 185 q 703 175 693 185 q 713 150 713 165 l 713 35 q 703 10 713 19 q 679 0 693 0 l 63 0 q 38 10 50 0 q 28 35 28 22 l 28 163 q 31 176 28 169 q 39 188 35 182 l 497 757 q 500 765 500 763 l 500 776 q 490 788 500 788 l 229 788 q 217 783 222 788 q 213 771 213 778 l 213 675 q 203 651 213 661 q 178 642 193 642 l 63 642 q 38 651 47 642 q 28 675 28 661 l 28 938 q 38 963 28 953 q 63 972 47 972 l 679 972 q 703 963 693 972 q 713 938 713 953 l 713 678 q 709 665 713 671 q 701 651 706 658 l 353 203 z "},"[":{"ha":357,"x_min":50,"x_max":353,"o":"m 235 0 l 319 0 q 343 -10 333 0 q 353 -35 353 -19 l 353 -94 q 343 -119 353 -110 q 319 -129 333 -129 l 85 -129 q 60 -119 69 -129 q 50 -94 50 -110 l 50 1067 q 60 1092 50 1082 q 85 1101 69 1101 l 319 1101 q 343 1092 333 1101 q 353 1067 353 1082 l 353 1007 q 343 982 353 992 q 319 972 333 972 l 235 972 l 235 0 z "},"\\":{"ha":603,"x_min":50,"x_max":554,"o":"m 547 46 q 543 14 554 29 q 515 0 532 0 l 397 0 q 377 6 386 0 q 365 24 368 13 l 54 926 q 60 958 50 944 q 88 972 69 972 l 204 972 q 238 949 228 972 l 547 46 z "},"]":{"ha":347,"x_min":-6,"x_max":297,"o":"m 264 1101 q 288 1092 278 1101 q 297 1067 297 1082 l 297 -94 q 288 -119 297 -110 q 264 -129 278 -129 l 29 -129 q 4 -119 14 -129 q -6 -94 -6 -110 l -6 -35 q 4 -10 -6 -19 q 29 0 14 0 l 113 0 l 113 972 l 29 972 q 4 982 14 972 q -6 1007 -6 992 l -6 1067 q 4 1092 -6 1082 q 29 1101 14 1101 l 264 1101 z "},"^":{"ha":308,"x_min":40,"x_max":265,"o":"m 264 863 q 261 847 265 854 q 247 840 256 840 l 201 840 q 185 851 188 840 l 164 921 q 154 928 161 928 q 143 921 146 928 l 122 851 q 107 840 119 840 l 60 840 q 46 847 51 840 q 44 863 40 856 l 93 1024 q 110 1035 97 1035 l 197 1035 q 214 1024 211 1035 l 264 863 z "},"a":{"ha":674,"x_min":18,"x_max":628,"o":"m 322 840 q 442 814 386 840 q 539 742 497 788 q 604 638 581 697 q 628 513 628 578 l 628 35 q 618 10 628 19 q 593 0 608 0 l 443 0 q 418 10 428 0 q 408 35 408 19 l 408 107 q 400 117 408 117 q 393 116 397 118 q 389 111 389 114 q 378 85 386 103 q 351 48 369 67 q 298 15 332 29 q 210 0 264 0 q 144 13 178 0 q 82 51 110 26 q 36 113 54 76 q 18 194 18 149 l 18 257 q 75 424 18 360 q 243 489 132 489 q 332 474 293 489 q 390 439 371 460 q 401 436 396 435 q 408 446 408 439 l 408 500 q 399 548 408 524 q 374 592 390 572 q 333 624 357 611 q 279 636 310 636 l 126 636 q 103 646 113 636 q 93 669 93 656 l 93 806 q 103 830 93 819 q 126 840 113 840 l 322 840 m 408 297 q 392 342 408 319 q 347 364 376 364 l 269 364 q 213 338 236 364 q 190 274 190 313 q 213 211 190 238 q 269 185 236 185 l 347 185 q 392 208 376 185 q 408 256 408 232 l 408 297 z "},"b":{"ha":715,"x_min":28,"x_max":679,"o":"m 443 840 q 544 818 500 840 q 617 758 588 796 q 663 671 647 721 q 679 564 679 621 l 679 272 q 663 167 679 217 q 615 80 646 117 q 540 22 585 43 q 440 0 496 0 q 368 13 397 0 q 319 44 339 25 q 288 85 300 63 q 267 128 276 107 q 254 133 261 135 q 246 124 246 131 l 246 35 q 236 10 246 19 q 213 0 226 0 l 63 0 q 38 10 47 0 q 28 35 28 19 l 28 938 q 38 963 28 953 q 63 972 47 972 l 213 972 q 236 963 226 972 q 246 938 246 953 l 246 717 q 254 707 249 707 q 267 713 261 706 q 289 756 276 733 q 321 797 301 778 q 370 828 340 815 q 443 840 400 840 m 461 539 q 457 601 463 574 q 438 644 451 625 q 396 663 424 663 q 340 648 365 663 q 297 613 315 633 q 266 574 278 593 q 250 546 254 554 q 246 532 246 540 l 246 304 q 250 290 246 297 q 265 262 254 281 q 295 224 276 243 q 338 192 314 206 q 393 178 363 178 q 435 197 421 178 q 456 239 449 215 q 461 299 463 265 l 461 539 z "},"c":{"ha":686,"x_min":24,"x_max":640,"o":"m 490 468 q 465 478 475 468 q 456 501 456 488 l 456 564 q 428 632 456 608 q 369 656 401 656 l 331 656 q 267 629 292 656 q 242 550 242 603 l 242 288 q 267 210 242 235 q 331 185 292 185 l 383 185 q 435 206 415 185 q 456 272 456 228 l 456 338 q 465 363 456 353 q 490 372 475 372 l 607 372 q 631 363 621 372 q 640 338 640 353 l 640 258 q 622 160 640 207 q 572 78 604 114 q 497 22 540 43 q 404 0 454 0 l 251 0 q 161 22 203 0 q 89 79 119 43 q 41 162 58 115 q 24 258 24 208 l 24 582 q 41 678 24 632 q 89 761 58 725 q 161 819 119 797 q 251 840 203 840 l 383 840 q 483 820 436 840 q 565 765 531 800 q 620 682 600 729 q 640 582 640 635 l 640 501 q 631 478 640 488 q 607 468 621 468 l 490 468 z "},"d":{"ha":733,"x_min":24,"x_max":678,"o":"m 643 972 q 668 963 658 972 q 678 938 678 953 l 678 35 q 668 10 678 19 q 643 0 658 0 l 494 0 q 469 10 479 0 q 460 35 460 19 l 460 124 q 451 133 460 132 q 440 128 443 136 q 418 81 431 104 q 387 40 406 58 q 341 11 368 22 q 274 0 314 0 q 172 22 218 0 q 92 82 125 44 q 42 169 60 119 q 24 276 24 219 l 24 567 q 42 666 24 617 q 93 753 60 715 q 173 816 126 792 q 275 840 219 840 q 346 828 318 840 q 392 798 374 817 q 421 756 410 779 q 440 713 432 733 q 451 707 443 704 q 460 717 460 707 l 460 938 q 469 963 460 953 q 494 972 479 972 l 643 972 m 460 533 q 457 547 460 539 q 443 575 453 556 q 417 614 433 594 q 376 648 400 633 q 322 663 353 663 q 278 644 294 663 q 254 601 263 625 q 242 540 244 575 l 242 300 q 254 239 244 265 q 278 197 263 215 q 321 178 293 178 q 372 192 349 178 q 413 226 394 207 q 442 265 431 246 q 457 293 453 283 q 460 307 460 301 l 460 533 z "},"e":{"ha":686,"x_min":22,"x_max":640,"o":"m 324 419 q 303 419 317 419 q 276 416 289 418 q 252 412 263 414 q 242 407 242 410 l 242 274 q 264 206 242 228 q 310 185 286 185 l 382 185 q 431 206 407 185 q 456 272 456 226 l 456 338 q 465 363 456 353 q 490 372 475 372 l 606 372 q 631 363 621 372 q 640 338 640 353 l 640 258 q 622 160 640 207 q 573 78 604 114 q 499 22 542 43 q 406 0 456 0 l 250 0 q 160 22 201 0 q 88 79 118 43 q 40 162 57 115 q 22 258 22 208 l 22 582 q 40 678 22 632 q 88 761 57 725 q 160 819 118 797 q 250 840 201 840 l 397 840 q 495 820 450 840 q 572 765 540 800 q 622 682 604 729 q 640 582 640 635 l 640 454 q 631 429 640 439 q 606 419 621 419 l 324 419 m 242 531 q 250 528 242 529 q 269 526 258 526 q 290 524 281 525 q 304 524 300 524 l 389 524 q 403 524 393 524 q 426 526 414 525 q 447 528 438 526 q 456 531 456 529 l 456 574 q 433 637 456 618 q 389 656 410 656 l 304 656 q 263 637 283 656 q 242 574 242 618 l 242 531 z "},"f":{"ha":528,"x_min":26,"x_max":557,"o":"m 522 972 q 547 963 538 972 q 557 938 557 953 l 557 822 q 547 797 557 807 q 522 788 538 788 l 279 788 q 255 778 265 788 q 244 753 244 768 l 244 615 q 255 590 244 600 q 279 581 265 581 l 379 581 q 403 571 393 581 q 413 546 413 561 l 413 431 q 403 406 413 415 q 379 396 393 396 l 279 396 q 255 386 265 396 q 244 361 244 376 l 244 35 q 235 10 244 19 q 211 0 225 0 l 61 0 q 36 10 46 0 q 26 35 26 19 l 26 800 q 40 867 26 836 q 76 922 53 899 q 131 959 100 946 q 199 972 163 972 l 522 972 z "},"g":{"ha":681,"x_min":21,"x_max":638,"o":"m 218 46 q 200 36 206 49 q 204 17 194 24 q 257 0 225 0 l 604 0 q 628 -10 618 0 q 638 -35 638 -19 l 638 -150 q 628 -175 638 -165 q 604 -185 618 -185 l 253 -185 q 131 -148 181 -185 q 81 -39 81 -111 q 88 44 81 13 q 103 101 96 75 q 99 118 106 111 q 41 201 61 154 q 21 301 21 249 l 21 582 q 41 682 21 635 q 97 765 61 729 q 178 820 132 800 q 279 840 225 840 l 381 840 l 383 840 l 390 839 q 403 841 397 839 q 411 850 408 843 l 446 940 q 463 960 450 954 q 489 960 476 965 l 526 946 q 546 928 539 942 q 546 903 551 914 l 515 818 q 522 797 511 804 q 607 704 576 761 q 638 582 638 647 l 638 301 q 617 201 638 249 q 563 119 597 154 q 481 63 528 83 q 381 43 433 43 l 253 43 q 235 44 243 43 q 218 46 226 44 m 239 326 q 263 257 239 286 q 347 228 286 228 q 431 258 408 228 q 453 326 453 288 l 453 557 q 448 594 453 576 q 431 626 443 613 q 398 648 418 640 q 347 656 378 656 q 263 626 286 656 q 239 557 239 597 l 239 326 z "},"h":{"ha":735,"x_min":29,"x_max":682,"o":"m 431 840 q 528 819 483 840 q 608 760 574 797 q 663 672 643 722 q 682 567 682 622 l 682 35 q 672 10 682 19 q 647 0 663 0 l 499 0 q 474 10 483 0 q 464 35 464 19 l 464 497 q 457 579 464 543 q 433 635 450 610 q 385 660 417 660 q 335 640 360 660 q 291 591 311 619 q 259 532 271 563 q 247 479 247 501 l 247 35 q 238 10 247 19 q 214 0 228 0 l 64 0 q 39 10 49 0 q 29 35 29 19 l 29 938 q 39 963 29 953 q 64 972 49 972 l 214 972 q 238 963 228 972 q 247 938 247 953 l 247 717 q 256 707 247 707 q 268 713 263 706 q 288 756 278 733 q 316 797 299 778 q 360 828 333 815 q 431 840 388 840 z "},"i":{"ha":300,"x_min":25,"x_max":251,"o":"m 113 801 q 58 826 82 801 q 35 892 35 851 q 58 956 35 932 q 113 979 82 979 l 161 979 q 218 956 193 979 q 243 892 243 932 q 218 826 243 851 q 161 801 193 801 l 113 801 m 210 0 l 67 0 q 36 11 47 0 q 25 42 25 22 l 25 694 q 36 725 25 714 q 67 736 47 736 l 210 736 q 240 725 229 736 q 251 694 251 714 l 251 42 q 240 11 251 22 q 210 0 229 0 z "},"j":{"ha":343,"x_min":-201,"x_max":288,"o":"m 154 801 q 99 826 122 801 q 75 892 75 851 q 99 956 75 932 q 154 979 122 979 l 201 979 q 258 956 233 979 q 283 892 283 932 q 258 826 283 851 q 201 801 233 801 l 154 801 m 253 736 q 278 726 268 736 q 288 701 288 717 l 288 19 q 231 -142 288 -89 q 83 -196 175 -196 l -167 -196 q -192 -186 -182 -196 q -201 -161 -201 -176 l -201 -65 q -192 -40 -201 -50 q -167 -31 -182 -31 l -26 -31 q 22 -22 4 -31 q 51 3 40 -12 q 65 40 61 18 q 68 89 68 63 l 68 701 q 78 726 68 717 q 101 736 88 736 l 253 736 z "},"k":{"ha":688,"x_min":32,"x_max":660,"o":"m 653 46 q 649 15 660 29 q 621 0 640 0 l 463 0 q 442 6 451 0 q 431 24 433 13 l 340 293 q 331 300 338 303 l 263 300 q 251 290 251 300 l 251 35 q 242 10 251 19 q 218 0 232 0 l 67 0 q 42 10 51 0 q 32 35 32 19 l 32 938 q 42 963 32 953 q 67 972 51 972 l 218 972 q 242 963 232 972 q 253 938 253 953 l 253 507 q 260 505 253 506 q 271 504 267 504 q 282 510 279 501 l 424 819 q 456 840 433 840 l 621 840 q 650 824 638 840 q 653 792 660 807 l 507 476 q 506 450 501 464 l 653 46 z "},"l":{"ha":303,"x_min":29,"x_max":247,"o":"m 206 0 l 71 0 q 40 11 51 0 q 29 42 29 22 l 29 931 q 40 961 29 950 q 71 972 51 972 l 206 972 q 236 961 225 972 q 247 931 247 950 l 247 42 q 236 11 247 22 q 206 0 225 0 z "},"m":{"ha":1017,"x_min":33,"x_max":964,"o":"m 775 840 q 859 819 824 840 q 918 760 894 797 q 953 674 942 724 q 964 567 964 624 l 964 35 q 954 10 964 19 q 929 0 944 0 l 779 0 q 754 10 764 0 q 744 35 744 19 l 744 529 q 739 590 744 563 q 726 631 735 613 q 699 650 717 650 q 667 638 683 650 q 638 608 651 626 q 617 567 625 589 q 608 522 608 544 l 608 35 q 599 10 608 19 q 574 0 589 0 l 425 0 q 400 10 410 0 q 390 35 390 19 l 390 529 q 385 590 390 563 q 372 631 381 613 q 344 650 363 650 q 313 638 329 650 q 283 608 296 626 q 261 567 269 589 q 253 522 253 544 l 253 35 q 243 10 253 19 q 219 0 233 0 l 68 0 q 43 10 53 0 q 33 35 33 19 l 33 806 q 43 830 33 819 q 68 840 53 840 l 219 840 q 243 830 233 840 q 253 806 253 819 l 253 717 q 261 707 256 707 q 274 713 268 706 q 336 806 304 772 q 419 840 368 840 q 522 806 472 840 q 596 699 572 771 q 604 692 599 692 q 614 699 611 692 q 642 751 626 726 q 678 797 658 776 q 721 828 697 817 q 775 840 744 840 z "},"n":{"ha":731,"x_min":29,"x_max":683,"o":"m 431 840 q 528 818 482 840 q 608 758 574 796 q 663 671 643 721 q 683 564 683 621 l 683 35 q 674 10 683 19 q 649 0 664 0 l 499 0 q 474 10 483 0 q 464 35 464 19 l 464 539 q 451 599 461 572 q 427 640 443 622 q 383 658 411 658 q 329 647 354 658 q 286 617 304 635 q 258 576 268 599 q 247 532 247 554 l 247 35 q 238 10 247 19 q 214 0 228 0 l 64 0 q 39 10 49 0 q 29 35 29 19 l 29 806 q 39 830 29 819 q 64 840 49 840 l 214 840 q 238 830 228 840 q 247 806 247 819 l 247 717 q 256 707 250 707 q 268 713 263 706 q 288 756 278 733 q 315 797 297 778 q 360 828 332 815 q 431 840 388 840 z "},"o":{"ha":682,"x_min":18,"x_max":635,"o":"m 392 840 q 486 820 442 840 q 564 765 531 800 q 616 682 597 729 q 635 582 635 635 l 635 258 q 617 160 635 207 q 567 78 599 114 q 492 22 535 43 q 399 0 449 0 l 246 0 q 157 22 199 0 q 84 79 115 43 q 35 162 53 115 q 18 258 18 208 l 18 582 q 35 678 18 632 q 83 761 53 725 q 154 819 113 797 q 246 840 196 840 l 392 840 m 450 557 q 422 633 450 610 q 343 656 393 656 q 265 633 293 656 q 236 557 236 610 l 236 283 q 265 208 236 231 q 343 185 293 185 q 422 208 393 185 q 450 283 450 231 l 450 557 z "},"p":{"ha":726,"x_min":28,"x_max":679,"o":"m 442 842 q 542 819 499 842 q 617 760 586 797 q 663 674 647 724 q 679 568 679 625 l 679 276 q 663 171 679 221 q 617 83 647 121 q 544 24 588 46 q 443 1 500 1 q 370 14 400 1 q 321 45 340 26 q 289 86 301 64 q 267 129 276 108 q 254 135 261 136 q 246 125 249 133 l 246 -168 q 236 -193 246 -183 q 213 -203 226 -203 l 63 -203 q 38 -193 47 -203 q 28 -168 28 -183 l 28 807 q 38 831 28 821 q 63 842 47 842 l 213 842 q 236 831 226 842 q 246 807 246 821 l 246 718 q 254 708 246 708 q 267 714 261 707 q 288 757 276 735 q 320 798 300 779 q 369 829 340 817 q 442 842 399 842 m 461 543 q 456 604 463 576 q 435 645 449 626 q 393 664 421 664 q 338 649 363 664 q 295 616 314 635 q 265 578 276 597 q 250 550 254 560 q 246 536 246 544 l 246 310 q 250 296 246 303 q 266 267 254 286 q 297 228 278 247 q 340 194 315 208 q 396 179 365 179 q 438 199 424 179 q 457 242 451 218 q 461 303 463 268 l 461 543 z "},"q":{"ha":729,"x_min":18,"x_max":671,"o":"m 257 842 q 329 829 300 842 q 378 798 358 817 q 410 757 399 779 q 432 714 422 735 q 443 708 435 706 q 451 718 451 708 l 451 807 q 462 832 451 822 q 488 840 472 842 l 639 822 q 662 812 653 821 q 671 789 671 803 l 671 -168 q 661 -193 671 -183 q 636 -203 651 -203 l 486 -203 q 461 -193 471 -203 q 451 -168 451 -183 l 451 125 q 443 135 451 133 q 432 129 435 138 q 410 86 422 108 q 378 45 397 64 q 328 14 358 26 q 256 1 299 1 q 154 23 199 1 q 80 82 110 44 q 34 169 50 119 q 18 276 18 219 l 18 568 q 34 674 18 625 q 81 760 50 724 q 157 819 113 797 q 257 842 201 842 m 238 303 q 242 242 236 268 q 261 199 247 218 q 303 179 275 179 q 358 194 333 179 q 402 228 383 208 q 433 267 421 247 q 449 296 444 286 q 451 310 451 304 l 451 536 q 449 550 451 542 q 433 578 444 560 q 403 616 422 597 q 360 649 385 635 q 306 664 336 664 q 264 645 278 664 q 243 604 250 626 q 238 543 236 576 l 238 303 z "},"r":{"ha":588,"x_min":26,"x_max":560,"o":"m 526 840 q 550 830 540 840 q 560 806 560 819 l 560 550 q 550 525 560 535 q 526 515 540 515 l 451 515 q 426 523 435 515 q 418 557 418 531 q 406 613 415 590 q 363 636 396 636 q 315 612 336 636 q 280 556 294 588 q 257 496 265 525 q 246 456 249 467 l 246 451 l 246 450 l 246 35 q 236 10 246 19 q 213 0 226 0 l 61 0 q 36 10 46 0 q 26 35 26 19 l 26 806 q 36 830 26 819 q 61 840 46 840 l 213 840 q 236 830 226 840 q 246 806 246 819 l 246 714 q 254 704 246 707 q 265 710 263 701 q 349 801 293 761 q 490 840 406 840 l 526 840 z "},"s":{"ha":679,"x_min":22,"x_max":651,"o":"m 444 465 q 522 420 485 444 q 588 366 560 396 q 634 299 617 336 q 651 215 651 261 q 576 50 651 100 q 346 0 501 0 l 57 0 q 32 10 42 0 q 22 35 22 19 l 22 150 q 32 175 22 165 q 57 185 42 185 l 224 185 q 348 199 307 185 q 388 247 389 213 q 369 279 388 263 q 328 313 351 296 q 278 344 304 329 q 235 368 251 358 q 147 419 186 394 q 80 473 107 444 q 38 534 53 501 q 24 608 24 567 q 42 719 22 674 q 97 791 63 764 q 179 830 132 818 q 281 842 226 842 l 567 842 q 592 832 582 842 q 601 807 601 822 l 601 692 q 592 667 601 676 q 567 657 582 657 l 349 657 q 280 638 301 657 q 267 588 258 619 q 289 557 271 572 q 333 526 307 542 q 388 496 358 511 q 444 465 418 481 z "},"t":{"ha":408,"x_min":28,"x_max":371,"o":"m 333 185 q 358 175 349 185 q 368 150 368 165 l 368 35 q 358 10 368 19 q 333 0 349 0 l 217 0 q 130 19 165 0 q 72 67 94 38 q 38 133 49 96 q 28 204 28 169 l 28 938 q 38 963 28 953 q 63 972 47 972 l 213 972 q 236 963 226 972 q 246 938 246 953 l 246 857 q 264 840 246 840 l 336 840 q 361 830 351 840 q 371 806 371 819 l 371 690 q 361 666 371 676 q 336 656 351 656 l 264 656 q 246 639 246 656 l 246 219 q 256 194 246 204 q 281 185 267 185 l 333 185 z "},"u":{"ha":729,"x_min":22,"x_max":676,"o":"m 276 0 q 178 22 225 0 q 97 82 132 44 q 42 169 63 119 q 22 275 22 219 l 22 806 q 32 831 22 821 q 57 840 42 840 l 207 840 q 231 831 221 840 q 240 806 240 821 l 240 301 q 253 242 243 268 q 278 201 261 219 q 322 182 294 182 q 376 194 351 182 q 419 224 401 206 q 447 264 438 242 q 457 308 457 286 l 457 806 q 467 831 457 821 q 490 840 476 840 l 642 840 q 667 831 657 840 q 676 806 676 821 l 676 35 q 667 10 676 21 q 642 0 657 0 l 490 0 q 467 10 476 0 q 457 35 457 21 l 457 124 q 449 133 454 133 q 436 128 442 135 q 417 85 426 107 q 390 44 407 63 q 347 13 374 25 q 276 0 319 0 z "},"v":{"ha":669,"x_min":-12,"x_max":668,"o":"m 631 840 q 657 826 647 840 q 664 797 668 813 l 476 26 q 443 0 469 0 l 213 0 q 179 26 186 0 l -8 797 q -3 826 -12 813 q 25 840 8 840 l 175 840 q 208 814 201 840 l 317 397 q 326 389 319 389 q 338 397 335 389 l 446 814 q 479 840 453 840 l 631 840 z "},"w":{"ha":872,"x_min":-22,"x_max":876,"o":"m 839 840 q 865 826 856 840 q 872 799 876 815 l 715 28 q 703 8 713 15 q 682 0 694 0 l 515 0 q 494 8 503 0 q 482 28 485 17 l 439 325 q 428 335 438 335 q 418 325 419 335 l 372 28 q 360 8 369 17 q 339 0 351 0 l 172 0 q 151 8 160 0 q 139 28 142 15 l -18 799 q -11 826 -22 815 q 15 840 -1 840 l 168 840 q 190 832 181 840 q 201 813 199 824 l 282 399 q 292 390 282 390 q 301 397 299 390 l 379 754 q 396 767 382 767 l 458 767 q 475 754 472 767 l 557 397 q 567 390 560 390 q 576 399 576 390 l 653 813 q 665 832 656 824 q 686 840 674 840 l 839 840 z "},"x":{"ha":703,"x_min":-8,"x_max":694,"o":"m 688 46 q 683 15 694 29 q 656 0 675 0 l 496 0 q 464 22 471 0 l 363 324 q 354 326 361 325 q 343 326 347 326 q 332 326 340 326 q 321 324 324 325 l 222 22 q 210 6 219 11 q 190 0 201 0 l 31 0 q 1 15 13 0 q -1 46 -8 29 l 125 422 q 125 446 129 435 l 28 793 q 32 825 24 810 q 61 840 43 840 l 221 840 q 241 834 232 840 q 253 817 250 828 l 321 556 q 332 553 324 554 q 343 553 340 553 q 354 553 347 553 q 363 556 361 554 l 435 817 q 467 840 442 840 l 626 840 q 654 825 646 840 q 658 793 663 813 l 558 446 q 556 435 557 440 q 558 422 556 429 l 688 46 z "},"y":{"ha":724,"x_min":25,"x_max":679,"o":"m 644 840 q 669 830 660 840 q 679 806 679 819 l 679 26 q 660 -66 679 -24 q 609 -140 642 -108 q 534 -190 576 -172 q 443 -208 492 -208 l 225 -210 q 201 -200 211 -210 q 192 -175 192 -190 l 192 -79 q 201 -54 192 -64 q 225 -44 211 -44 l 374 -44 q 435 -19 410 -44 q 460 42 460 6 l 460 124 q 451 133 460 132 q 440 128 443 136 q 419 84 431 107 q 388 42 407 61 q 339 12 368 24 q 265 0 310 0 q 165 22 210 0 q 89 82 119 44 q 42 169 58 119 q 25 276 25 219 l 25 806 q 35 830 25 819 q 60 840 44 840 l 210 840 q 233 830 224 840 q 243 806 243 819 l 243 343 q 250 261 243 297 q 271 203 257 229 q 313 178 285 178 q 368 201 343 178 q 412 253 393 224 q 442 310 431 282 q 457 347 453 338 q 460 361 460 356 l 460 806 q 469 830 460 819 q 494 840 479 840 l 644 840 z "},"z":{"ha":706,"x_min":19,"x_max":669,"o":"m 636 185 q 660 175 650 185 q 669 150 669 165 l 669 35 q 660 10 669 19 q 636 0 650 0 l 54 0 q 29 10 42 0 q 19 35 19 22 l 19 163 q 24 176 19 169 q 31 188 28 182 l 374 639 q 376 650 379 644 q 367 656 375 656 l 54 656 q 29 666 39 656 q 19 690 19 676 l 19 806 q 29 830 19 819 q 54 840 39 840 l 618 840 q 643 830 633 840 q 653 806 653 819 l 653 657 q 640 631 653 642 l 344 203 q 342 197 343 200 q 342 192 340 194 q 351 185 344 185 l 636 185 z "},"{":{"ha":464,"x_min":22,"x_max":443,"o":"m 325 658 q 312 591 325 622 q 275 536 299 560 q 221 499 251 513 q 154 486 190 486 q 222 472 190 486 q 276 435 253 458 q 312 381 299 413 q 325 314 325 350 l 325 51 q 340 15 325 31 q 376 0 356 0 l 410 0 q 433 -10 424 0 q 443 -35 443 -19 l 443 -94 q 433 -119 443 -110 q 410 -129 424 -129 l 313 -129 q 246 -116 278 -129 q 191 -79 214 -103 q 154 -24 168 -56 q 140 43 140 7 l 140 346 q 126 382 140 367 q 89 397 111 397 l 57 397 q 32 407 42 397 q 22 432 22 417 l 22 540 q 32 565 22 556 q 57 575 42 575 l 89 575 q 126 590 111 575 q 140 626 140 606 l 140 929 q 154 997 140 965 q 191 1051 168 1028 q 246 1088 214 1075 q 313 1101 278 1101 l 410 1101 q 433 1092 424 1101 q 443 1067 443 1082 l 443 1007 q 433 982 443 992 q 410 972 424 972 l 376 972 q 340 957 356 972 q 325 921 325 942 l 325 658 z "},"}":{"ha":469,"x_min":-4,"x_max":417,"o":"m 383 575 q 407 565 397 575 q 417 540 417 556 l 417 432 q 407 407 417 417 q 383 397 397 397 l 350 397 q 314 382 329 397 q 299 346 299 367 l 299 43 q 285 -24 299 7 q 249 -79 272 -56 q 194 -116 225 -103 q 128 -129 164 -129 l 31 -129 q 6 -119 15 -129 q -4 -94 -4 -110 l -4 -35 q 6 -10 -4 -19 q 31 0 15 0 l 63 0 q 99 15 85 0 q 114 51 114 31 l 114 314 q 127 381 114 350 q 164 436 140 413 q 219 473 188 460 q 286 486 250 486 q 219 499 251 486 q 165 536 188 513 q 128 591 142 560 q 114 658 114 622 l 114 921 q 99 957 114 942 q 63 972 85 972 l 31 972 q 6 982 15 972 q -4 1007 -4 992 l -4 1067 q 6 1092 -4 1082 q 31 1101 15 1101 l 128 1101 q 194 1088 164 1101 q 249 1051 225 1075 q 285 997 272 1028 q 299 929 299 965 l 299 626 q 314 590 299 606 q 350 575 329 575 l 383 575 z "},"":{"ha":483,"x_min":0,"x_max":0,"o":""},"":{"ha":0,"x_min":0,"x_max":0,"o":""},"":{"ha":749,"x_min":22,"x_max":707,"o":"m 536 972 q 603 959 572 972 q 657 922 633 946 q 694 867 681 899 q 707 800 707 836 l 707 35 q 697 10 707 19 q 674 0 688 0 l 522 0 q 497 10 507 0 q 488 35 488 19 l 488 167 q 474 102 488 132 q 438 49 461 72 q 385 13 415 26 q 321 0 356 0 l 189 0 q 124 15 154 1 q 71 52 93 29 q 35 106 49 75 q 22 172 22 138 l 22 385 q 40 485 22 438 q 92 567 58 532 q 173 622 125 601 q 281 642 221 642 l 478 642 q 488 653 488 642 l 488 725 q 476 772 488 757 q 433 788 465 788 l 174 788 q 149 797 158 788 q 139 822 139 807 l 139 938 q 149 963 139 953 q 174 972 158 972 l 536 972 m 488 411 q 457 477 488 460 q 378 494 426 494 l 288 494 q 227 468 247 494 q 207 411 207 442 l 207 338 q 223 273 207 289 q 288 257 239 257 l 378 257 q 457 273 426 257 q 488 338 488 289 l 488 411 z "},"":{"ha":683,"x_min":32,"x_max":650,"o":"m 338 788 q 276 763 301 788 q 251 701 251 738 l 251 271 q 276 210 251 235 q 338 185 301 185 l 615 185 q 640 175 631 185 q 650 150 650 165 l 650 35 q 640 10 650 19 q 615 0 631 0 l 204 0 q 137 13 168 0 q 82 50 106 26 q 45 105 58 74 q 32 172 32 136 l 32 800 q 45 867 32 836 q 82 922 58 899 q 137 959 106 946 q 204 972 168 972 l 615 972 q 640 963 631 972 q 650 938 650 953 l 650 822 q 640 797 650 807 q 615 788 631 788 l 338 788 z "},"":{"ha":686,"x_min":28,"x_max":644,"o":"m 296 788 q 246 735 246 788 l 246 596 q 251 584 246 589 q 264 579 257 579 l 610 579 q 635 569 625 579 q 644 544 644 560 l 644 429 q 635 404 644 414 q 610 394 625 394 l 264 394 q 246 378 246 394 l 246 232 q 296 185 246 185 l 610 185 q 635 175 625 185 q 644 150 644 165 l 644 35 q 635 10 644 19 q 610 0 625 0 l 200 0 q 133 13 164 0 q 78 50 101 26 q 41 105 54 74 q 28 172 28 136 l 28 800 q 41 867 28 836 q 78 922 54 899 q 133 959 101 946 q 200 972 164 972 l 610 972 q 635 963 625 972 q 644 938 644 953 l 644 822 q 635 797 644 807 q 610 788 625 788 l 296 788 z "},"":{"ha":742,"x_min":28,"x_max":713,"o":"m 628 617 q 688 592 664 617 q 713 531 713 567 l 713 35 q 703 10 713 19 q 679 0 693 0 l 563 0 q 538 10 547 0 q 528 35 528 19 l 528 138 q 514 83 528 108 q 477 40 500 58 q 426 10 454 21 q 368 0 397 0 l 200 0 q 133 13 164 0 q 78 50 101 26 q 41 105 54 74 q 28 172 28 136 l 28 800 q 41 867 28 836 q 78 922 54 899 q 133 959 101 946 q 200 972 164 972 l 524 972 q 549 963 539 972 q 558 938 558 953 l 558 822 q 549 797 558 807 q 524 788 539 788 l 332 788 q 271 763 296 788 q 246 701 246 738 l 246 331 q 267 248 246 275 q 344 221 289 221 l 494 221 q 518 231 508 221 q 528 256 528 240 l 528 415 q 523 427 528 422 q 511 432 518 432 l 440 432 q 415 442 425 432 q 406 467 406 451 l 406 582 q 415 607 406 597 q 440 617 425 617 l 628 617 z "},"":{"ha":751,"x_min":26,"x_max":710,"o":"m 350 0 q 339 -10 339 0 l 339 -32 q 350 -42 339 -42 l 657 -42 q 682 -51 672 -42 q 692 -76 692 -61 l 692 -193 q 682 -217 692 -207 q 657 -226 672 -226 l 263 -226 q 201 -201 226 -226 q 176 -140 176 -176 l 176 24 q 67 119 107 56 q 26 258 26 182 l 26 714 q 47 815 26 768 q 102 897 67 861 q 184 952 138 932 q 285 972 231 972 l 453 972 q 553 952 506 972 q 635 897 600 932 q 690 815 669 861 q 710 714 710 768 l 710 258 q 690 158 710 204 q 635 76 669 111 q 553 20 600 40 q 453 0 506 0 l 350 0 m 397 185 q 467 210 442 185 q 492 274 492 236 l 492 699 q 467 763 492 738 q 397 788 442 788 l 338 788 q 269 763 293 788 q 244 699 244 738 l 244 274 q 269 210 244 235 q 338 185 293 185 l 397 185 z "},"":{"ha":721,"x_min":22,"x_max":678,"o":"m 643 840 q 668 831 658 840 q 678 806 678 821 l 678 35 q 668 10 678 19 q 643 0 658 0 l 493 0 q 468 10 478 0 q 458 35 458 19 l 458 124 q 450 133 458 132 q 439 128 442 136 q 414 78 428 101 q 382 38 400 56 q 340 10 364 21 q 282 0 315 0 q 177 21 225 -1 q 95 81 129 43 q 42 169 61 118 q 22 276 22 219 l 22 567 q 41 672 22 622 q 94 760 60 722 q 176 819 129 797 q 279 840 224 840 q 344 828 318 840 q 388 797 371 815 q 417 756 406 778 q 439 713 429 733 q 450 707 442 704 q 458 717 458 710 l 458 806 q 468 831 458 821 q 493 840 478 840 l 643 840 m 458 479 q 449 545 458 513 q 422 603 439 578 q 380 646 404 629 q 326 663 356 663 q 277 649 294 663 q 252 617 260 636 q 243 578 244 599 q 242 540 242 557 l 242 301 q 243 264 242 285 q 253 224 244 243 q 278 191 261 204 q 329 178 296 178 q 378 194 354 178 q 419 237 401 211 q 448 295 438 263 q 458 361 458 328 l 458 479 z "},"":{"ha":683,"x_min":11,"x_max":668,"o":"m 633 840 q 658 831 649 840 q 668 806 668 821 l 668 19 q 651 -70 668 -31 q 602 -138 633 -110 q 528 -181 571 -167 q 433 -196 485 -196 l 214 -196 q 190 -186 200 -196 q 181 -161 181 -176 l 181 -65 q 190 -40 181 -50 q 214 -31 200 -31 l 363 -31 q 424 -6 399 -31 q 449 56 449 19 l 449 124 q 440 133 449 132 q 429 128 432 136 q 403 75 417 99 q 372 35 389 51 q 331 9 354 18 q 274 0 307 0 q 169 22 217 0 q 85 81 121 43 q 31 169 50 118 q 11 276 11 219 l 11 567 q 31 672 11 622 q 85 760 50 722 q 167 819 119 797 q 271 840 215 840 q 335 828 310 840 q 379 797 361 815 q 408 756 397 778 q 429 713 419 733 q 440 707 432 704 q 449 717 449 710 l 449 806 q 459 830 449 819 q 483 840 469 840 l 633 840 m 449 479 q 439 544 449 513 q 412 601 429 576 q 370 642 394 626 q 317 658 346 658 q 267 647 285 658 q 240 617 249 635 q 231 578 232 599 q 229 543 229 558 l 229 301 q 231 263 229 285 q 240 222 232 242 q 267 190 249 203 q 317 176 285 176 q 366 193 342 176 q 408 236 390 210 q 438 295 426 263 q 449 361 449 328 l 449 479 z "},"":{"ha":1235,"x_min":39,"x_max":1181,"o":"m 1146 972 q 1170 962 1160 972 q 1181 938 1181 951 l 1181 822 q 1171 797 1181 807 q 1146 788 1161 788 l 750 788 q 726 778 736 788 q 717 753 717 768 l 717 651 q 726 626 717 636 q 750 617 736 617 l 850 617 q 875 607 865 617 q 885 582 885 597 l 885 467 q 875 442 885 451 q 850 432 865 432 l 750 432 q 726 422 736 432 q 717 397 717 413 l 717 35 q 707 10 717 19 q 682 0 697 0 l 532 0 q 507 10 517 0 q 497 35 497 19 l 497 676 q 493 735 497 711 q 483 788 489 760 l 292 788 q 267 778 278 788 q 257 753 257 768 l 257 651 q 267 626 257 636 q 292 617 278 617 l 392 617 q 415 607 406 617 q 425 582 425 597 l 425 467 q 415 442 425 451 q 392 432 406 432 l 292 432 q 267 422 278 432 q 257 397 257 413 l 257 35 q 247 10 257 19 q 224 0 238 0 l 74 0 q 49 10 58 0 q 39 35 39 19 l 39 800 q 52 867 39 836 q 89 922 65 899 q 144 959 113 946 q 211 972 175 972 l 343 972 q 442 949 396 972 q 521 886 489 926 q 584 949 544 926 q 669 972 624 972 l 1146 972 m 1139 0 l 1003 0 q 972 11 983 0 q 961 42 961 22 l 961 572 q 972 603 961 592 q 1003 614 983 614 l 1139 614 q 1169 603 1158 614 q 1181 572 1181 592 l 1181 42 q 1169 11 1181 22 q 1139 0 1158 0 z "},"":{"ha":1260,"x_min":47,"x_max":1189,"o":"m 1154 972 q 1179 963 1169 972 q 1189 938 1189 953 l 1189 35 q 1179 10 1189 19 q 1154 0 1169 0 l 1004 0 q 979 10 989 0 q 969 35 969 19 l 969 753 q 960 778 969 768 q 935 788 950 788 l 758 788 q 735 778 744 788 q 725 753 725 768 l 725 651 q 735 626 725 636 q 758 617 744 617 l 858 617 q 883 607 874 617 q 893 582 893 597 l 893 467 q 883 442 893 451 q 858 432 874 432 l 758 432 q 735 422 744 432 q 725 397 725 413 l 725 35 q 715 10 725 19 q 690 0 706 0 l 540 0 q 515 10 525 0 q 506 35 506 19 l 506 753 q 496 778 506 768 q 471 788 486 788 l 300 788 q 276 778 286 788 q 265 753 265 768 l 265 651 q 276 626 265 636 q 300 617 286 617 l 400 617 q 424 607 414 617 q 433 582 433 597 l 433 467 q 424 442 433 451 q 400 432 414 432 l 300 432 q 276 422 286 432 q 265 397 265 413 l 265 35 q 256 10 265 19 q 232 0 246 0 l 82 0 q 57 10 67 0 q 47 35 47 19 l 47 800 q 60 867 47 836 q 97 922 74 899 q 152 959 121 946 q 219 972 183 972 l 351 972 q 451 949 404 972 q 529 886 497 926 q 592 949 553 926 q 678 972 632 972 l 1154 972 z "},"":{"ha":471,"x_min":26,"x_max":443,"o":"m 435 931 q 443 918 442 926 q 439 904 443 911 q 385 867 415 881 q 321 854 354 854 q 258 872 282 854 q 218 904 233 889 q 194 923 203 918 q 175 928 186 928 q 141 913 160 928 q 107 882 122 899 q 85 879 99 872 l 33 908 q 26 919 29 911 q 31 933 26 928 q 53 958 39 944 q 87 985 68 972 q 128 1008 106 999 q 175 1017 150 1017 q 243 999 217 1017 q 285 965 269 981 q 306 948 299 953 q 322 943 313 943 q 361 956 344 943 q 379 957 368 961 l 435 931 z "},"":{"ha":471,"x_min":26,"x_max":443,"o":"m 435 931 q 443 918 442 926 q 439 904 443 911 q 385 867 415 881 q 321 854 354 854 q 258 872 282 854 q 218 904 233 889 q 194 923 203 918 q 175 928 186 928 q 141 913 160 928 q 107 882 122 899 q 85 879 99 872 l 33 908 q 26 919 29 911 q 31 933 26 928 q 53 958 39 944 q 87 985 68 972 q 128 1008 106 999 q 175 1017 150 1017 q 243 999 217 1017 q 285 965 269 981 q 306 948 299 953 q 322 943 313 943 q 361 956 344 943 q 379 957 368 961 l 435 931 z "},"":{"ha":831,"x_min":40,"x_max":772,"o":"m 621 565 q 597 575 607 565 q 588 599 588 585 l 588 674 q 569 760 588 732 q 500 788 550 788 l 386 788 q 316 760 335 788 q 294 674 297 732 l 379 674 q 404 664 394 674 q 414 639 414 654 l 414 542 q 404 517 414 526 q 379 507 394 507 l 293 507 l 293 465 l 379 465 q 404 456 394 465 q 414 431 414 446 l 414 333 q 404 308 414 318 q 379 299 394 299 l 294 299 q 316 213 297 240 q 386 185 335 185 l 500 185 q 569 211 550 185 q 588 296 588 238 l 588 374 q 597 397 588 388 q 621 407 607 407 l 738 407 q 763 397 753 407 q 772 374 772 388 l 772 258 q 752 158 772 204 q 697 76 732 111 q 615 20 661 40 q 514 0 568 0 l 332 0 q 231 20 278 0 q 149 76 185 40 q 94 158 114 111 q 74 258 74 204 l 74 299 q 50 308 60 299 q 40 333 40 318 l 40 431 q 50 456 40 446 q 74 465 60 465 l 74 507 q 50 517 60 507 q 40 542 40 526 l 40 639 q 50 664 40 654 q 74 674 60 674 l 74 714 q 94 815 74 768 q 149 897 114 861 q 231 952 185 932 q 332 972 278 972 l 514 972 q 615 952 568 972 q 697 897 661 932 q 752 815 732 861 q 772 714 772 768 l 772 599 q 763 575 772 585 q 738 565 753 565 l 621 565 z "},"":{"ha":831,"x_min":40,"x_max":772,"o":"m 621 565 q 597 575 607 565 q 588 599 588 585 l 588 674 q 569 760 588 732 q 500 788 550 788 l 386 788 q 316 760 335 788 q 294 674 297 732 l 379 674 q 404 664 394 674 q 414 639 414 654 l 414 542 q 404 517 414 526 q 379 507 394 507 l 293 507 l 293 465 l 379 465 q 404 456 394 465 q 414 431 414 446 l 414 333 q 404 308 414 318 q 379 299 394 299 l 294 299 q 316 213 297 240 q 386 185 335 185 l 500 185 q 569 211 550 185 q 588 296 588 238 l 588 374 q 597 397 588 388 q 621 407 607 407 l 738 407 q 763 397 753 407 q 772 374 772 388 l 772 258 q 752 158 772 204 q 697 76 732 111 q 615 20 661 40 q 514 0 568 0 l 332 0 q 231 20 278 0 q 149 76 185 40 q 94 158 114 111 q 74 258 74 204 l 74 299 q 50 308 60 299 q 40 333 40 318 l 40 431 q 50 456 40 446 q 74 465 60 465 l 74 507 q 50 517 60 507 q 40 542 40 526 l 40 639 q 50 664 40 654 q 74 674 60 674 l 74 714 q 94 815 74 768 q 149 897 114 861 q 231 952 185 932 q 332 972 278 972 l 514 972 q 615 952 568 972 q 697 897 661 932 q 752 815 732 861 q 772 714 772 768 l 772 599 q 763 575 772 585 q 738 565 753 565 l 621 565 z "},"|":{"ha":265,"x_min":57,"x_max":207,"o":"m 172 1101 q 199 1092 190 1101 q 207 1067 207 1082 l 207 -94 q 197 -119 207 -110 q 172 -129 188 -129 l 92 -129 q 67 -119 76 -129 q 57 -94 57 -110 l 57 1067 q 67 1092 57 1082 q 92 1101 76 1101 l 172 1101 z "},"":{"ha":265,"x_min":57,"x_max":207,"o":"m 172 1101 q 199 1092 190 1101 q 207 1067 207 1082 l 207 -94 q 197 -119 207 -110 q 172 -129 188 -129 l 92 -129 q 67 -119 76 -129 q 57 -94 57 -110 l 57 1067 q 67 1092 57 1082 q 92 1101 76 1101 l 172 1101 z "},"":{"ha":231,"x_min":28,"x_max":204,"o":"m 126 1017 q 182 986 160 1013 q 201 926 204 960 q 175 869 199 892 q 117 844 151 846 q 56 867 81 843 q 28 928 31 892 l 28 938 q 65 1052 31 1006 q 178 1101 99 1099 q 186 1099 181 1101 q 189 1090 189 1093 l 189 1050 q 179 1040 189 1040 q 126 1017 147 1038 z "},"":{"ha":213,"x_min":13,"x_max":189,"o":"m 189 1007 q 152 893 186 939 q 39 844 118 847 q 32 847 33 844 q 28 854 28 850 l 28 894 q 38 904 28 904 q 90 928 69 907 q 35 958 57 932 q 15 1018 13 985 q 42 1076 18 1053 q 100 1101 65 1100 q 162 1078 136 1103 q 189 1018 188 1054 l 189 1007 z "},"":{"ha":418,"x_min":28,"x_max":393,"o":"m 126 1017 q 182 986 160 1013 q 201 926 204 960 q 175 869 199 892 q 117 844 151 846 q 56 867 81 843 q 28 928 31 892 l 28 938 q 65 1052 31 1006 q 178 1101 99 1099 q 186 1099 181 1101 q 189 1090 189 1093 l 189 1050 q 179 1040 189 1040 q 126 1017 147 1038 m 315 1017 q 371 986 349 1013 q 390 926 393 960 q 364 869 388 892 q 306 844 340 846 q 244 867 269 843 q 217 928 218 892 l 217 938 q 253 1052 219 1006 q 367 1101 288 1099 q 378 1090 378 1101 l 378 1050 q 368 1040 378 1040 q 315 1017 336 1038 z "},"":{"ha":400,"x_min":13,"x_max":378,"o":"m 189 1007 q 152 893 186 939 q 39 844 118 847 q 32 847 33 844 q 28 854 28 850 l 28 894 q 38 904 28 904 q 90 928 69 907 q 35 958 57 932 q 15 1018 13 985 q 42 1076 18 1053 q 100 1101 65 1100 q 162 1078 136 1103 q 189 1018 188 1054 l 189 1007 m 378 1007 q 341 893 376 939 q 228 844 306 847 q 217 854 217 844 l 217 894 q 226 904 217 904 q 279 928 258 907 q 224 958 246 932 q 204 1018 201 985 q 231 1076 207 1053 q 288 1101 254 1100 q 349 1078 324 1103 q 378 1018 375 1054 l 378 1007 z "},"":{"ha":235,"x_min":26,"x_max":203,"o":"m 203 79 q 166 -35 200 11 q 53 -83 132 -81 q 46 -81 47 -83 q 42 -74 42 -79 l 42 -33 q 51 -24 42 -24 q 104 0 83 -21 q 49 31 71 4 q 29 90 26 57 q 56 148 32 125 q 114 174 79 171 q 176 151 150 175 q 203 90 201 126 l 203 79 z "},"":{"ha":235,"x_min":26,"x_max":203,"o":"m 203 79 q 166 -35 200 11 q 53 -83 132 -81 q 46 -81 47 -83 q 42 -74 42 -79 l 42 -33 q 51 -24 42 -24 q 104 0 83 -21 q 49 31 71 4 q 29 90 26 57 q 56 148 32 125 q 114 174 79 171 q 176 151 150 175 q 203 90 201 126 l 203 79 z "},"":{"ha":422,"x_min":26,"x_max":392,"o":"m 203 79 q 166 -35 200 11 q 53 -83 132 -81 q 46 -81 47 -83 q 42 -74 42 -79 l 42 -33 q 51 -24 42 -24 q 104 0 83 -21 q 49 31 71 4 q 29 90 26 57 q 56 148 32 125 q 114 174 79 171 q 176 151 150 175 q 203 90 201 126 l 203 79 m 392 79 q 355 -35 390 11 q 242 -83 319 -81 q 231 -74 231 -83 l 231 -33 q 240 -24 231 -24 q 293 0 272 -21 q 238 31 260 4 q 218 90 215 57 q 244 148 221 125 q 301 174 268 171 q 363 151 338 175 q 392 90 389 126 l 392 79 z "},"":{"ha":422,"x_min":26,"x_max":392,"o":"m 203 79 q 166 -35 200 11 q 53 -83 132 -81 q 46 -81 47 -83 q 42 -74 42 -79 l 42 -33 q 51 -24 42 -24 q 104 0 83 -21 q 49 31 71 4 q 29 90 26 57 q 56 148 32 125 q 114 174 79 171 q 176 151 150 175 q 203 90 201 126 l 203 79 m 392 79 q 355 -35 390 11 q 242 -83 319 -81 q 231 -74 231 -83 l 231 -33 q 240 -24 231 -24 q 293 0 272 -21 q 238 31 260 4 q 218 90 215 57 q 244 148 221 125 q 301 174 268 171 q 363 151 338 175 q 392 90 389 126 l 392 79 z "},"":{"ha":324,"x_min":32,"x_max":292,"o":"m 161 357 q 111 367 135 357 q 70 395 88 378 q 42 436 53 413 q 32 486 32 460 q 42 537 32 514 q 70 578 53 560 q 111 606 88 596 q 161 615 135 615 q 253 578 215 615 q 292 486 292 540 q 281 436 292 460 q 253 395 271 413 q 213 367 236 378 q 161 357 189 357 z "},"":{"ha":324,"x_min":32,"x_max":292,"o":"m 161 357 q 111 367 135 357 q 70 395 88 378 q 42 436 53 413 q 32 486 32 460 q 42 537 32 514 q 70 578 53 560 q 111 606 88 596 q 161 615 135 615 q 253 578 215 615 q 292 486 292 540 q 281 436 292 460 q 253 395 271 413 q 213 367 236 378 q 161 357 189 357 z "},"_":{"ha":726,"x_min":25,"x_max":694,"o":"m 660 150 q 685 140 675 150 q 694 115 694 131 l 694 35 q 685 10 694 19 q 660 0 675 0 l 60 0 q 35 10 44 0 q 25 35 25 19 l 25 115 q 33 140 25 131 q 60 150 42 150 l 660 150 z "},"":{"ha":726,"x_min":25,"x_max":694,"o":"m 660 150 q 685 140 675 150 q 694 115 694 131 l 694 35 q 685 10 694 19 q 660 0 675 0 l 60 0 q 35 10 44 0 q 25 35 25 19 l 25 115 q 33 140 25 131 q 60 150 42 150 l 660 150 z "},"":{"ha":560,"x_min":22,"x_max":529,"o":"m 494 561 q 519 551 510 561 q 529 526 529 542 l 529 446 q 519 421 529 431 q 494 411 510 411 l 57 411 q 32 421 42 411 q 22 446 22 431 l 22 526 q 31 551 22 542 q 57 561 39 561 l 494 561 z "},"":{"ha":560,"x_min":22,"x_max":529,"o":"m 494 561 q 519 551 510 561 q 529 526 529 542 l 529 446 q 519 421 529 431 q 494 411 510 411 l 57 411 q 32 421 42 411 q 22 446 22 431 l 22 526 q 31 551 22 542 q 57 561 39 561 l 494 561 z "},"":{"ha":551,"x_min":18,"x_max":525,"o":"m 490 561 q 515 551 506 561 q 525 526 525 542 l 525 446 q 515 421 525 431 q 490 411 506 411 l 53 411 q 28 421 38 411 q 18 446 18 431 l 18 526 q 22 551 18 542 q 53 561 26 561 l 490 561 z "},"":{"ha":551,"x_min":18,"x_max":525,"o":"m 490 561 q 515 551 506 561 q 525 526 525 542 l 525 446 q 515 421 525 431 q 490 411 506 411 l 53 411 q 28 421 38 411 q 18 446 18 431 l 18 526 q 22 551 18 542 q 53 561 26 561 l 490 561 z "},"":{"ha":550,"x_min":21,"x_max":528,"o":"m 493 964 q 518 954 508 964 q 528 929 528 944 l 528 849 q 518 824 528 833 q 493 814 508 814 l 56 814 q 28 824 36 814 q 21 849 21 833 l 21 929 q 31 954 21 944 q 56 964 40 964 l 493 964 z "},"":{"ha":550,"x_min":21,"x_max":528,"o":"m 493 964 q 518 954 508 964 q 528 929 528 944 l 528 849 q 518 824 528 833 q 493 814 508 814 l 56 814 q 28 824 36 814 q 21 849 21 833 l 21 929 q 31 954 21 944 q 56 964 40 964 l 493 964 z "},"":{"ha":553,"x_min":24,"x_max":522,"o":"m 488 746 q 513 735 504 746 q 522 711 522 725 l 522 511 q 513 488 522 497 q 488 478 503 478 l 406 478 q 382 488 392 478 q 372 511 372 497 l 372 594 l 58 594 q 33 604 43 594 q 24 629 24 614 l 24 711 q 33 735 24 725 q 58 746 43 746 l 488 746 z "},"":{"ha":553,"x_min":24,"x_max":522,"o":"m 488 746 q 513 735 504 746 q 522 711 522 725 l 522 511 q 513 488 522 497 q 488 478 503 478 l 406 478 q 382 488 392 478 q 372 511 372 497 l 372 594 l 58 594 q 33 604 43 594 q 24 629 24 614 l 24 711 q 33 735 24 725 q 58 746 43 746 l 488 746 z "},"":{"ha":608,"x_min":31,"x_max":572,"o":"m 233 972 q 244 963 244 972 l 244 904 q 233 893 244 893 l 201 893 q 194 890 197 893 q 190 883 190 889 l 190 688 q 188 681 190 682 q 181 678 185 678 l 94 678 q 83 688 83 678 l 83 883 q 81 890 83 889 q 74 893 78 893 l 42 893 q 31 904 31 893 l 31 963 q 42 972 31 972 l 233 972 m 561 972 q 568 969 565 972 q 572 963 572 968 l 572 688 q 568 681 572 683 q 561 678 565 678 l 475 678 q 465 688 465 678 l 465 793 q 463 796 465 796 q 460 794 460 796 l 436 749 q 426 743 431 743 l 399 743 q 389 749 394 743 l 367 794 q 363 796 365 796 q 360 793 360 796 l 360 688 q 350 678 360 678 l 264 678 q 254 688 254 678 l 254 963 q 264 972 254 972 l 354 972 q 363 967 360 972 l 410 864 q 413 863 410 863 q 415 864 415 863 l 463 967 q 472 972 465 972 l 561 972 z "},"":{"ha":608,"x_min":31,"x_max":572,"o":"m 233 972 q 244 963 244 972 l 244 904 q 233 893 244 893 l 201 893 q 194 890 197 893 q 190 883 190 889 l 190 688 q 188 681 190 682 q 181 678 185 678 l 94 678 q 83 688 83 678 l 83 883 q 81 890 83 889 q 74 893 78 893 l 42 893 q 31 904 31 893 l 31 963 q 42 972 31 972 l 233 972 m 561 972 q 568 969 565 972 q 572 963 572 968 l 572 688 q 568 681 572 683 q 561 678 565 678 l 475 678 q 465 688 465 678 l 465 793 q 463 796 465 796 q 460 794 460 796 l 436 749 q 426 743 431 743 l 399 743 q 389 749 394 743 l 367 794 q 363 796 365 796 q 360 793 360 796 l 360 688 q 350 678 360 678 l 264 678 q 254 688 254 678 l 254 963 q 264 972 254 972 l 354 972 q 363 967 360 972 l 410 864 q 413 863 410 863 q 415 864 415 863 l 463 967 q 472 972 465 972 l 561 972 z "},"":{"ha":563,"x_min":40,"x_max":522,"o":"m 372 972 q 430 960 403 972 q 478 928 457 949 q 510 881 499 908 q 522 822 522 854 l 522 558 q 510 500 522 528 q 478 452 499 472 q 430 420 457 432 q 372 408 403 408 l 190 408 q 132 420 160 408 q 84 452 104 432 q 52 500 64 472 q 40 558 40 528 l 40 822 q 52 881 40 854 q 84 928 64 908 q 132 960 104 949 q 190 972 160 972 l 372 972 m 449 786 q 418 864 449 832 q 344 896 388 896 l 218 896 q 144 864 175 896 q 114 786 114 832 l 114 594 q 144 517 114 549 q 218 485 175 485 l 344 485 q 418 517 388 485 q 449 594 449 549 l 449 786 m 331 825 q 381 803 361 825 q 401 753 401 782 l 401 722 q 394 690 401 706 q 374 665 388 675 q 372 661 372 664 l 397 582 q 394 564 401 574 q 378 556 389 556 l 318 556 q 299 569 303 556 l 275 649 q 272 650 275 650 l 269 650 q 267 647 267 650 l 267 565 q 257 556 267 556 l 179 556 q 169 565 169 556 l 169 815 q 179 825 169 825 l 331 825 m 304 743 q 294 753 304 753 l 271 753 q 267 747 267 753 l 267 728 q 271 722 267 722 l 294 722 q 301 725 299 722 q 304 732 304 731 l 304 743 z "},"":{"ha":563,"x_min":40,"x_max":522,"o":"m 372 972 q 430 960 403 972 q 478 928 457 949 q 510 881 499 908 q 522 822 522 854 l 522 558 q 510 500 522 528 q 478 452 499 472 q 430 420 457 432 q 372 408 403 408 l 190 408 q 132 420 160 408 q 84 452 104 432 q 52 500 64 472 q 40 558 40 528 l 40 822 q 52 881 40 854 q 84 928 64 908 q 132 960 104 949 q 190 972 160 972 l 372 972 m 449 786 q 418 864 449 832 q 344 896 388 896 l 218 896 q 144 864 175 896 q 114 786 114 832 l 114 594 q 144 517 114 549 q 218 485 175 485 l 344 485 q 418 517 388 485 q 449 594 449 549 l 449 786 m 331 825 q 381 803 361 825 q 401 753 401 782 l 401 722 q 394 690 401 706 q 374 665 388 675 q 372 661 372 664 l 397 582 q 394 564 401 574 q 378 556 389 556 l 318 556 q 299 569 303 556 l 275 649 q 272 650 275 650 l 269 650 q 267 647 267 650 l 267 565 q 257 556 267 556 l 179 556 q 169 565 169 556 l 169 815 q 179 825 169 825 l 331 825 m 304 743 q 294 753 304 753 l 271 753 q 267 747 267 753 l 267 728 q 271 722 267 722 l 294 722 q 301 725 299 722 q 304 732 304 731 l 304 743 z "},"":{"ha":919,"x_min":44,"x_max":874,"o":"m 617 972 q 717 952 669 972 q 799 897 764 932 q 853 815 833 863 q 874 715 874 768 l 874 258 q 853 158 874 204 q 799 76 833 111 q 717 20 764 40 q 617 0 669 0 l 303 0 q 202 20 249 0 q 120 76 156 40 q 65 158 85 111 q 44 258 44 204 l 44 715 q 65 815 44 768 q 120 897 85 863 q 202 952 156 932 q 303 972 249 972 l 617 972 m 747 653 q 733 726 747 692 q 695 785 719 760 q 638 826 671 811 q 568 840 606 840 l 350 840 q 280 826 313 840 q 223 785 247 811 q 185 726 199 760 q 171 653 171 692 l 171 321 q 185 248 171 282 q 223 188 199 214 q 280 148 247 163 q 350 133 313 133 l 568 133 q 638 148 606 133 q 695 188 671 163 q 733 248 719 214 q 747 321 747 282 l 747 653 m 535 718 q 622 682 586 718 q 657 594 657 646 l 657 540 q 640 524 657 524 l 549 524 q 537 528 542 524 q 532 540 532 533 l 532 578 q 517 593 532 593 l 436 593 q 418 586 425 593 q 411 569 411 579 l 411 404 q 418 386 411 393 q 436 379 425 379 l 517 379 q 532 396 532 379 l 532 432 q 537 444 532 439 q 549 449 542 449 l 640 449 q 657 432 657 449 l 657 378 q 622 290 657 326 q 535 254 586 254 l 385 254 q 338 264 360 254 q 297 290 315 274 q 271 331 281 308 q 261 378 261 353 l 261 594 q 297 682 261 646 q 385 718 333 718 l 535 718 z "},"":{"ha":919,"x_min":44,"x_max":874,"o":"m 617 972 q 717 952 669 972 q 799 897 764 932 q 853 815 833 863 q 874 715 874 768 l 874 258 q 853 158 874 204 q 799 76 833 111 q 717 20 764 40 q 617 0 669 0 l 303 0 q 202 20 249 0 q 120 76 156 40 q 65 158 85 111 q 44 258 44 204 l 44 715 q 65 815 44 768 q 120 897 85 863 q 202 952 156 932 q 303 972 249 972 l 617 972 m 747 653 q 733 726 747 692 q 695 785 719 760 q 638 826 671 811 q 568 840 606 840 l 350 840 q 280 826 313 840 q 223 785 247 811 q 185 726 199 760 q 171 653 171 692 l 171 321 q 185 248 171 282 q 223 188 199 214 q 280 148 247 163 q 350 133 313 133 l 568 133 q 638 148 606 133 q 695 188 671 163 q 733 248 719 214 q 747 321 747 282 l 747 653 m 535 718 q 622 682 586 718 q 657 594 657 646 l 657 540 q 640 524 657 524 l 549 524 q 537 528 542 524 q 532 540 532 533 l 532 578 q 517 593 532 593 l 436 593 q 418 586 425 593 q 411 569 411 579 l 411 404 q 418 386 411 393 q 436 379 425 379 l 517 379 q 532 396 532 379 l 532 432 q 537 444 532 439 q 549 449 542 449 l 640 449 q 657 432 657 449 l 657 378 q 622 290 657 326 q 535 254 586 254 l 385 254 q 338 264 360 254 q 297 290 315 274 q 271 331 281 308 q 261 378 261 353 l 261 594 q 297 682 261 646 q 385 718 333 718 l 535 718 z "},"":{"ha":719,"x_min":35,"x_max":685,"o":"m 674 263 q 685 239 685 253 q 674 214 685 225 l 604 144 q 579 135 592 135 q 556 144 568 135 l 490 210 q 450 206 472 206 l 268 206 q 228 210 249 206 l 163 144 q 139 135 153 135 q 114 144 126 135 l 44 214 q 35 239 35 226 q 44 263 35 253 l 119 338 q 118 354 118 343 l 118 619 q 119 636 118 631 l 44 711 q 35 735 35 724 q 44 760 35 747 l 114 829 q 139 839 124 839 q 163 829 154 839 l 228 764 q 248 768 239 767 q 268 769 257 769 l 450 769 q 471 768 461 769 q 490 764 481 767 l 556 829 q 579 839 565 839 q 604 829 594 839 l 674 760 q 685 735 685 749 q 674 711 685 722 l 599 636 q 600 619 600 631 l 600 354 q 599 338 600 343 l 674 263 m 269 390 q 293 365 275 374 q 315 361 304 361 l 403 361 q 425 365 415 361 q 454 411 454 381 l 454 563 q 450 585 454 575 q 425 608 442 600 q 415 613 419 611 q 403 614 410 614 l 315 614 q 303 613 308 614 q 293 608 299 611 q 269 585 276 600 q 264 563 264 575 l 264 411 q 269 390 264 397 z "},"":{"ha":719,"x_min":35,"x_max":685,"o":"m 674 263 q 685 239 685 253 q 674 214 685 225 l 604 144 q 579 135 592 135 q 556 144 568 135 l 490 210 q 450 206 472 206 l 268 206 q 228 210 249 206 l 163 144 q 139 135 153 135 q 114 144 126 135 l 44 214 q 35 239 35 226 q 44 263 35 253 l 119 338 q 118 354 118 343 l 118 619 q 119 636 118 631 l 44 711 q 35 735 35 724 q 44 760 35 747 l 114 829 q 139 839 124 839 q 163 829 154 839 l 228 764 q 248 768 239 767 q 268 769 257 769 l 450 769 q 471 768 461 769 q 490 764 481 767 l 556 829 q 579 839 565 839 q 604 829 594 839 l 674 760 q 685 735 685 749 q 674 711 685 722 l 599 636 q 600 619 600 631 l 600 354 q 599 338 600 343 l 674 263 m 269 390 q 293 365 275 374 q 315 361 304 361 l 403 361 q 425 365 415 361 q 454 411 454 381 l 454 563 q 450 585 454 575 q 425 608 442 600 q 415 613 419 611 q 403 614 410 614 l 315 614 q 303 613 308 614 q 293 608 299 611 q 269 585 276 600 q 264 563 264 575 l 264 411 q 269 390 264 397 z "},"":{"ha":472,"x_min":39,"x_max":435,"o":"m 318 526 q 301 543 301 526 l 301 579 q 285 596 301 596 l 213 596 q 196 589 203 596 q 189 572 189 582 l 189 407 q 196 389 189 396 q 213 382 203 382 l 285 382 q 301 399 301 382 l 301 435 q 318 451 301 451 l 418 451 q 430 447 425 451 q 435 435 435 442 l 435 381 q 424 334 435 356 q 397 297 414 313 q 358 270 381 281 q 311 258 336 260 l 311 196 q 301 172 311 182 q 278 163 292 163 l 196 163 q 171 172 181 163 q 161 196 161 182 l 161 258 q 115 270 138 260 q 76 297 93 281 q 49 334 60 313 q 39 381 39 356 l 39 597 q 49 644 39 622 q 76 682 60 665 q 115 709 93 699 q 161 721 138 719 l 161 782 q 171 807 161 797 q 196 817 181 817 l 278 817 q 301 807 292 817 q 311 782 311 797 l 311 721 q 358 709 336 719 q 397 682 381 699 q 424 644 414 665 q 435 597 435 622 l 435 543 q 430 531 435 536 q 418 526 425 526 l 318 526 z "},"":{"ha":472,"x_min":39,"x_max":435,"o":"m 318 526 q 301 543 301 526 l 301 579 q 285 596 301 596 l 213 596 q 196 589 203 596 q 189 572 189 582 l 189 407 q 196 389 189 396 q 213 382 203 382 l 285 382 q 301 399 301 382 l 301 435 q 318 451 301 451 l 418 451 q 430 447 425 451 q 435 435 435 442 l 435 381 q 424 334 435 356 q 397 297 414 313 q 358 270 381 281 q 311 258 336 260 l 311 196 q 301 172 311 182 q 278 163 292 163 l 196 163 q 171 172 181 163 q 161 196 161 182 l 161 258 q 115 270 138 260 q 76 297 93 281 q 49 334 60 313 q 39 381 39 356 l 39 597 q 49 644 39 622 q 76 682 60 665 q 115 709 93 699 q 161 721 138 719 l 161 782 q 171 807 161 797 q 196 817 181 817 l 278 817 q 301 807 292 817 q 311 782 311 797 l 311 721 q 358 709 336 719 q 397 682 381 699 q 424 644 414 665 q 435 597 435 622 l 435 543 q 430 531 435 536 q 418 526 425 526 l 318 526 z "},"":{"ha":858,"x_min":15,"x_max":789,"o":"m 621 624 q 596 633 606 624 q 586 658 586 643 l 586 753 q 576 778 586 768 q 551 788 567 788 l 365 788 q 340 778 350 788 q 331 753 331 768 l 331 560 q 340 535 331 544 q 365 525 350 525 l 404 525 q 429 515 419 525 q 439 490 439 506 l 439 393 q 429 368 439 378 q 404 358 419 358 l 329 358 q 309 352 318 358 q 297 335 300 346 l 274 231 q 278 199 268 215 q 306 185 289 185 l 754 185 q 779 175 769 185 q 789 150 789 165 l 789 35 q 779 10 789 19 q 754 0 769 0 l 96 0 q 72 10 82 0 q 63 35 63 19 l 63 179 q 64 190 63 186 l 107 358 l 50 358 q 25 368 35 358 q 15 393 15 378 l 15 490 q 25 515 15 506 q 50 525 35 525 l 86 525 q 63 614 63 565 l 63 800 q 76 867 63 836 q 113 922 89 899 q 167 959 136 946 q 233 972 199 972 l 606 972 q 670 957 640 971 q 722 920 700 943 q 758 866 744 897 q 771 800 771 835 l 771 658 q 761 633 771 643 q 736 624 751 624 l 621 624 z "},"":{"ha":858,"x_min":15,"x_max":789,"o":"m 621 624 q 596 633 606 624 q 586 658 586 643 l 586 753 q 576 778 586 768 q 551 788 567 788 l 365 788 q 340 778 350 788 q 331 753 331 768 l 331 560 q 340 535 331 544 q 365 525 350 525 l 404 525 q 429 515 419 525 q 439 490 439 506 l 439 393 q 429 368 439 378 q 404 358 419 358 l 329 358 q 309 352 318 358 q 297 335 300 346 l 274 231 q 278 199 268 215 q 306 185 289 185 l 754 185 q 779 175 769 185 q 789 150 789 165 l 789 35 q 779 10 789 19 q 754 0 769 0 l 96 0 q 72 10 82 0 q 63 35 63 19 l 63 179 q 64 190 63 186 l 107 358 l 50 358 q 25 368 35 358 q 15 393 15 378 l 15 490 q 25 515 15 506 q 50 525 35 525 l 86 525 q 63 614 63 565 l 63 800 q 76 867 63 836 q 113 922 89 899 q 167 959 136 946 q 233 972 199 972 l 606 972 q 670 957 640 971 q 722 920 700 943 q 758 866 744 897 q 771 800 771 835 l 771 658 q 761 633 771 643 q 736 624 751 624 l 621 624 z "},"":{"ha":925,"x_min":14,"x_max":878,"o":"m 838 972 q 867 956 857 972 q 867 921 878 939 l 574 385 l 597 385 q 622 375 613 385 q 632 351 632 365 l 632 279 q 622 254 632 264 q 597 244 613 244 l 554 244 l 554 224 l 597 224 q 622 213 613 224 q 632 189 632 203 l 632 108 q 622 83 632 93 q 597 74 613 74 l 554 74 l 554 35 q 544 10 554 19 q 519 0 535 0 l 369 0 q 346 10 356 0 q 336 35 336 19 l 336 74 l 293 74 q 268 83 278 74 q 258 108 258 93 l 258 189 q 268 213 258 203 q 293 224 278 224 l 336 224 l 336 244 l 293 244 q 268 254 278 244 q 258 279 258 264 l 258 351 q 268 375 258 365 q 293 385 278 385 l 317 385 l 22 921 q 22 956 14 939 q 53 972 35 972 l 236 972 q 267 956 254 972 l 436 624 q 444 619 439 619 q 454 624 450 619 l 638 956 q 650 968 642 964 q 667 972 658 972 l 838 972 z "},"":{"ha":925,"x_min":14,"x_max":878,"o":"m 838 972 q 867 956 857 972 q 867 921 878 939 l 574 385 l 597 385 q 622 375 613 385 q 632 351 632 365 l 632 279 q 622 254 632 264 q 597 244 613 244 l 554 244 l 554 224 l 597 224 q 622 213 613 224 q 632 189 632 203 l 632 108 q 622 83 632 93 q 597 74 613 74 l 554 74 l 554 35 q 544 10 554 19 q 519 0 535 0 l 369 0 q 346 10 356 0 q 336 35 336 19 l 336 74 l 293 74 q 268 83 278 74 q 258 108 258 93 l 258 189 q 268 213 258 203 q 293 224 278 224 l 336 224 l 336 244 l 293 244 q 268 254 278 244 q 258 279 258 264 l 258 351 q 268 375 258 365 q 293 385 278 385 l 317 385 l 22 921 q 22 956 14 939 q 53 972 35 972 l 236 972 q 267 956 254 972 l 436 624 q 444 619 439 619 q 454 624 450 619 l 638 956 q 650 968 642 964 q 667 972 658 972 l 838 972 z "},"":{"ha":786,"x_min":-112,"x_max":735,"o":"m 569 972 q 635 957 604 971 q 688 920 665 943 q 722 866 710 897 q 735 800 735 835 l 735 735 q 725 710 735 719 q 701 700 715 700 l 585 700 q 560 710 569 700 q 550 735 550 719 l 550 753 q 540 778 550 768 q 517 788 531 788 l 310 788 q 285 778 296 788 q 275 753 275 768 l 275 604 q 285 579 275 589 q 310 569 296 569 l 517 569 q 540 560 531 569 q 550 535 550 550 l 550 456 q 540 431 550 440 q 517 421 531 421 l 310 421 q 285 411 296 421 q 275 386 275 401 l 275 -132 q 262 -199 275 -168 q 225 -253 249 -229 q 171 -290 201 -276 q 104 -303 140 -303 l -78 -303 q -103 -293 -93 -303 q -112 -269 -112 -283 l -112 -153 q -103 -128 -112 -137 q -78 -118 -93 -118 l -29 -118 q 32 -93 7 -118 q 57 -32 57 -68 l 57 800 q 70 867 57 836 q 107 922 83 899 q 162 959 131 946 q 229 972 193 972 l 569 972 z "},"":{"ha":786,"x_min":-112,"x_max":735,"o":"m 569 972 q 635 957 604 971 q 688 920 665 943 q 722 866 710 897 q 735 800 735 835 l 735 735 q 725 710 735 719 q 701 700 715 700 l 585 700 q 560 710 569 700 q 550 735 550 719 l 550 753 q 540 778 550 768 q 517 788 531 788 l 310 788 q 285 778 296 788 q 275 753 275 768 l 275 604 q 285 579 275 589 q 310 569 296 569 l 517 569 q 540 560 531 569 q 550 535 550 550 l 550 456 q 540 431 550 440 q 517 421 531 421 l 310 421 q 285 411 296 421 q 275 386 275 401 l 275 -132 q 262 -199 275 -168 q 225 -253 249 -229 q 171 -290 201 -276 q 104 -303 140 -303 l -78 -303 q -103 -293 -93 -303 q -112 -269 -112 -283 l -112 -153 q -103 -128 -112 -137 q -78 -118 -93 -118 l -29 -118 q 32 -93 7 -118 q 57 -32 57 -68 l 57 800 q 70 867 57 836 q 107 922 83 899 q 162 959 131 946 q 229 972 193 972 l 569 972 z "},"":{"ha":568,"x_min":31,"x_max":538,"o":"m 503 561 q 531 551 524 561 q 538 526 538 542 l 538 446 q 528 421 538 431 q 503 411 518 411 l 65 411 q 40 421 50 411 q 31 446 31 431 l 31 526 q 39 551 31 542 q 65 561 47 561 l 503 561 z "},"":{"ha":568,"x_min":31,"x_max":538,"o":"m 503 561 q 531 551 524 561 q 538 526 538 542 l 538 446 q 528 421 538 431 q 503 411 518 411 l 65 411 q 40 421 50 411 q 31 446 31 431 l 31 526 q 39 551 31 542 q 65 561 47 561 l 503 561 z "},"":{"ha":582,"x_min":38,"x_max":544,"o":"m 510 561 q 535 551 525 561 q 544 526 544 542 l 544 446 q 535 421 544 431 q 510 411 525 411 l 367 411 l 367 267 q 356 243 367 253 q 332 233 346 233 l 250 233 q 225 243 235 233 q 215 267 215 253 l 215 411 l 72 411 q 47 421 57 411 q 38 446 38 431 l 38 526 q 45 551 38 542 q 72 561 53 561 l 215 561 l 215 706 q 225 729 215 719 q 250 739 235 739 l 332 739 q 356 729 346 739 q 367 706 367 719 l 367 561 l 510 561 m 510 176 q 538 167 531 176 q 544 143 544 157 l 544 61 q 535 36 544 46 q 510 26 525 26 l 72 26 q 47 36 57 26 q 38 61 38 46 l 38 143 q 46 167 38 157 q 72 176 54 176 l 510 176 z "},"":{"ha":582,"x_min":38,"x_max":544,"o":"m 510 561 q 535 551 525 561 q 544 526 544 542 l 544 446 q 535 421 544 431 q 510 411 525 411 l 367 411 l 367 267 q 356 243 367 253 q 332 233 346 233 l 250 233 q 225 243 235 233 q 215 267 215 253 l 215 411 l 72 411 q 47 421 57 411 q 38 446 38 431 l 38 526 q 45 551 38 542 q 72 561 53 561 l 215 561 l 215 706 q 225 729 215 719 q 250 739 235 739 l 332 739 q 356 729 346 739 q 367 706 367 719 l 367 561 l 510 561 m 510 176 q 538 167 531 176 q 544 143 544 157 l 544 61 q 535 36 544 46 q 510 26 525 26 l 72 26 q 47 36 57 26 q 38 61 38 46 l 38 143 q 46 167 38 157 q 72 176 54 176 l 510 176 z "},"":{"ha":518,"x_min":35,"x_max":483,"o":"m 472 390 q 483 366 483 379 q 472 342 483 353 l 403 272 q 379 263 394 263 q 354 272 364 263 l 258 368 l 163 272 q 139 263 154 263 q 114 272 124 263 l 44 342 q 35 366 35 353 q 44 390 35 379 l 140 486 l 44 582 q 35 606 35 593 q 44 631 35 619 l 114 700 q 139 711 125 711 q 163 700 154 711 l 258 604 l 354 700 q 379 710 364 710 q 403 700 394 710 l 472 631 q 483 606 483 619 q 472 582 483 593 l 376 486 l 472 390 z "},"":{"ha":518,"x_min":35,"x_max":483,"o":"m 472 390 q 483 366 483 379 q 472 342 483 353 l 403 272 q 379 263 394 263 q 354 272 364 263 l 258 368 l 163 272 q 139 263 154 263 q 114 272 124 263 l 44 342 q 35 366 35 353 q 44 390 35 379 l 140 486 l 44 582 q 35 606 35 593 q 44 631 35 619 l 114 700 q 139 711 125 711 q 163 700 154 711 l 258 604 l 354 700 q 379 710 364 710 q 403 700 394 710 l 472 631 q 483 606 483 619 q 472 582 483 593 l 376 486 l 472 390 z "},"":{"ha":558,"x_min":26,"x_max":533,"o":"m 278 614 q 217 639 242 614 q 192 700 192 664 q 217 762 192 736 q 278 788 242 788 q 340 762 314 788 q 365 700 365 736 q 340 639 365 664 q 278 614 314 614 m 499 561 q 524 551 515 561 q 533 526 533 542 l 533 446 q 524 421 533 431 q 499 411 514 411 l 61 411 q 36 421 46 411 q 26 446 26 431 l 26 526 q 34 551 26 542 q 61 561 42 561 l 499 561 m 278 185 q 217 210 242 185 q 192 272 192 236 q 217 333 192 308 q 278 358 242 358 q 340 333 314 358 q 365 272 365 308 q 340 210 365 236 q 278 185 314 185 z "},"":{"ha":558,"x_min":26,"x_max":533,"o":"m 278 614 q 217 639 242 614 q 192 700 192 664 q 217 762 192 736 q 278 788 242 788 q 340 762 314 788 q 365 700 365 736 q 340 639 365 664 q 278 614 314 614 m 499 561 q 524 551 515 561 q 533 526 533 542 l 533 446 q 524 421 533 431 q 499 411 514 411 l 61 411 q 36 421 46 411 q 26 446 26 431 l 26 526 q 34 551 26 542 q 61 561 42 561 l 499 561 m 278 185 q 217 210 242 185 q 192 272 192 236 q 217 333 192 308 q 278 358 242 358 q 340 333 314 358 q 365 272 365 308 q 340 210 365 236 q 278 185 314 185 z "},"":{"ha":263,"x_min":56,"x_max":206,"o":"m 90 521 q 65 531 75 521 q 56 556 56 540 l 56 993 q 65 1018 56 1008 q 90 1028 75 1028 l 171 1028 q 196 1018 186 1028 q 206 993 206 1008 l 206 556 q 196 528 206 535 q 171 521 186 521 l 90 521 m 171 451 q 196 445 186 451 q 206 417 206 439 l 206 -21 q 196 -46 206 -36 q 171 -56 186 -56 l 90 -56 q 65 -46 75 -56 q 56 -21 56 -36 l 56 417 q 65 442 56 432 q 90 451 75 451 l 171 451 z "},"":{"ha":263,"x_min":56,"x_max":206,"o":"m 90 521 q 65 531 75 521 q 56 556 56 540 l 56 993 q 65 1018 56 1008 q 90 1028 75 1028 l 171 1028 q 196 1018 186 1028 q 206 993 206 1008 l 206 556 q 196 528 206 535 q 171 521 186 521 l 90 521 m 171 451 q 196 445 186 451 q 206 417 206 439 l 206 -21 q 196 -46 206 -36 q 171 -56 186 -56 l 90 -56 q 65 -46 75 -56 q 56 -21 56 -36 l 56 417 q 65 442 56 432 q 90 451 75 451 l 171 451 z "},"":{"ha":656,"x_min":29,"x_max":626,"o":"m 117 174 q 178 149 153 174 q 203 88 203 124 q 178 26 203 51 q 117 0 153 0 q 55 26 81 0 q 29 88 29 51 q 55 149 29 124 q 117 174 81 174 m 328 174 q 390 149 364 174 q 415 88 415 124 q 390 26 415 51 q 328 0 364 0 q 267 26 292 0 q 242 88 242 51 q 267 149 242 124 q 328 174 292 174 m 539 174 q 601 149 575 174 q 626 88 626 124 q 601 26 626 51 q 539 0 575 0 q 477 26 503 0 q 451 88 451 51 q 477 149 451 124 q 539 174 503 174 z "},"":{"ha":656,"x_min":29,"x_max":626,"o":"m 117 174 q 178 149 153 174 q 203 88 203 124 q 178 26 203 51 q 117 0 153 0 q 55 26 81 0 q 29 88 29 51 q 55 149 29 124 q 117 174 81 174 m 328 174 q 390 149 364 174 q 415 88 415 124 q 390 26 415 51 q 328 0 364 0 q 267 26 292 0 q 242 88 242 51 q 267 149 242 124 q 328 174 292 174 m 539 174 q 601 149 575 174 q 626 88 626 124 q 601 26 626 51 q 539 0 575 0 q 477 26 503 0 q 451 88 451 51 q 477 149 451 124 q 539 174 503 174 z "},"":{"ha":324,"x_min":21,"x_max":292,"o":"m 282 436 q 233 378 267 400 q 161 357 200 357 q 113 367 136 357 q 42 437 63 388 q 42 536 21 486 q 90 594 57 572 q 161 615 122 615 q 211 606 188 615 q 254 577 236 596 q 281 535 272 558 q 291 487 290 513 q 282 436 292 461 z "},"":{"ha":324,"x_min":21,"x_max":292,"o":"m 282 436 q 233 378 267 400 q 161 357 200 357 q 113 367 136 357 q 42 437 63 388 q 42 536 21 486 q 90 594 57 572 q 161 615 122 615 q 211 606 188 615 q 254 577 236 596 q 281 535 272 558 q 291 487 290 513 q 282 436 292 461 z "},"":{"ha":393,"x_min":63,"x_max":343,"o":"m 153 843 q 126 854 135 844 q 118 878 118 864 l 118 938 q 128 963 118 953 q 153 972 138 972 l 254 972 q 279 963 269 972 q 289 938 289 953 l 289 878 q 279 853 289 864 q 254 843 269 843 l 153 843 m 157 799 l 250 799 q 272 790 263 799 q 283 768 282 781 l 343 267 l 343 35 q 333 10 343 19 q 310 0 324 0 l 97 0 q 72 10 82 0 q 63 35 63 19 l 63 267 l 122 768 q 133 790 124 781 q 157 799 143 799 z "},"":{"ha":393,"x_min":63,"x_max":343,"o":"m 153 843 q 126 854 135 844 q 118 878 118 864 l 118 938 q 128 963 118 953 q 153 972 138 972 l 254 972 q 279 963 269 972 q 289 938 289 953 l 289 878 q 279 853 289 864 q 254 843 269 843 l 153 843 m 157 799 l 250 799 q 272 790 263 799 q 283 768 282 781 l 343 267 l 343 35 q 333 10 343 19 q 310 0 324 0 l 97 0 q 72 10 82 0 q 63 35 63 19 l 63 267 l 122 768 q 133 790 124 781 q 157 799 143 799 z "},"":{"ha":590,"x_min":38,"x_max":554,"o":"m 257 843 q 232 853 242 843 q 222 878 222 864 l 222 938 q 232 963 222 953 q 257 972 242 972 l 360 972 q 383 963 374 972 q 393 938 393 953 l 393 878 q 385 853 396 864 q 360 843 374 843 l 257 843 m 363 799 q 388 789 378 799 q 397 764 397 779 l 397 560 q 390 539 397 549 l 229 308 q 228 303 228 307 l 228 194 q 238 185 228 185 l 358 185 q 369 194 369 185 l 369 268 q 379 292 369 282 q 404 301 389 301 l 519 301 q 544 292 535 301 q 554 268 554 282 l 554 172 q 541 105 554 136 q 504 50 528 74 q 449 13 481 26 q 382 0 418 0 l 188 0 q 103 20 133 0 q 59 76 74 40 q 41 158 44 111 q 38 258 38 204 l 38 340 q 44 360 38 350 l 211 578 q 216 586 214 581 q 218 599 218 592 l 218 764 q 228 789 218 779 q 251 799 238 799 l 363 799 z "},"":{"ha":590,"x_min":38,"x_max":554,"o":"m 257 843 q 232 853 242 843 q 222 878 222 864 l 222 938 q 232 963 222 953 q 257 972 242 972 l 360 972 q 383 963 374 972 q 393 938 393 953 l 393 878 q 385 853 396 864 q 360 843 374 843 l 257 843 m 363 799 q 388 789 378 799 q 397 764 397 779 l 397 560 q 390 539 397 549 l 229 308 q 228 303 228 307 l 228 194 q 238 185 228 185 l 358 185 q 369 194 369 185 l 369 268 q 379 292 369 282 q 404 301 389 301 l 519 301 q 544 292 535 301 q 554 268 554 282 l 554 172 q 541 105 554 136 q 504 50 528 74 q 449 13 481 26 q 382 0 418 0 l 188 0 q 103 20 133 0 q 59 76 74 40 q 41 158 44 111 q 38 258 38 204 l 38 340 q 44 360 38 350 l 211 578 q 216 586 214 581 q 218 599 218 592 l 218 764 q 228 789 218 779 q 251 799 238 799 l 363 799 z "},"":{"ha":233,"x_min":29,"x_max":203,"o":"m 117 972 q 178 947 153 972 q 203 886 203 922 q 178 824 203 850 q 117 799 153 799 q 55 824 81 799 q 29 886 29 850 q 55 947 29 922 q 117 972 81 972 z "},"":{"ha":233,"x_min":29,"x_max":203,"o":"m 117 972 q 178 947 153 972 q 203 886 203 922 q 178 824 203 850 q 117 799 153 799 q 55 824 81 799 q 29 886 29 850 q 55 947 29 922 q 117 972 81 972 z "},"":{"ha":211,"x_min":31,"x_max":179,"o":"m 113 972 q 160 953 140 972 q 179 906 179 933 l 179 806 q 172 799 179 799 l 114 799 q 107 806 107 799 l 107 821 q 106 822 106 822 q 103 822 103 822 q 91 806 100 814 q 67 799 82 799 q 42 809 53 799 q 31 835 31 819 l 31 847 q 41 884 31 868 q 74 900 51 900 q 103 889 96 900 l 106 889 q 107 892 107 890 l 107 897 q 90 907 107 907 l 53 907 q 44 915 44 907 l 44 965 q 53 972 44 972 l 113 972 m 107 865 q 104 867 107 867 l 85 867 q 78 860 78 867 q 85 853 78 853 l 104 853 q 107 854 107 854 l 107 865 z "},"":{"ha":211,"x_min":31,"x_max":179,"o":"m 113 972 q 160 953 140 972 q 179 906 179 933 l 179 806 q 172 799 179 799 l 114 799 q 107 806 107 799 l 107 821 q 106 822 106 822 q 103 822 103 822 q 91 806 100 814 q 67 799 82 799 q 42 809 53 799 q 31 835 31 819 l 31 847 q 41 884 31 868 q 74 900 51 900 q 103 889 96 900 l 106 889 q 107 892 107 890 l 107 897 q 90 907 107 907 l 53 907 q 44 915 44 907 l 44 965 q 53 972 44 972 l 113 972 m 107 865 q 104 867 107 867 l 85 867 q 78 860 78 867 q 85 853 78 853 l 104 853 q 107 854 107 854 l 107 865 z "},"":{"ha":203,"x_min":31,"x_max":171,"o":"m 125 972 q 157 958 144 972 q 171 926 171 946 l 171 844 q 157 813 171 825 q 125 799 143 799 l 76 799 q 44 813 58 799 q 31 844 31 825 l 31 926 q 44 958 31 946 q 76 972 57 972 l 125 972 m 108 919 q 101 926 108 926 l 100 926 q 93 919 93 926 l 93 851 q 96 847 93 850 q 100 846 96 846 l 101 846 q 107 849 106 846 l 108 850 l 108 851 l 108 919 z "},"":{"ha":203,"x_min":31,"x_max":171,"o":"m 125 972 q 157 958 144 972 q 171 926 171 946 l 171 844 q 157 813 171 825 q 125 799 143 799 l 76 799 q 44 813 58 799 q 31 844 31 825 l 31 926 q 44 958 31 946 q 76 972 57 972 l 125 972 m 108 919 q 101 926 108 926 l 100 926 q 93 919 93 926 l 93 851 q 96 847 93 850 q 100 846 96 846 l 101 846 q 107 849 106 846 l 108 850 l 108 851 l 108 919 z "},"":{"ha":154,"x_min":29,"x_max":122,"o":"m 119 943 q 122 939 122 943 l 122 804 q 115 799 122 799 l 65 799 q 58 804 58 799 l 58 919 q 53 926 58 926 l 35 926 q 29 932 29 926 l 29 967 q 35 972 29 972 l 89 972 q 93 971 92 972 l 119 943 z "},"":{"ha":154,"x_min":29,"x_max":122,"o":"m 119 943 q 122 939 122 943 l 122 804 q 115 799 122 799 l 65 799 q 58 804 58 799 l 58 919 q 53 926 58 926 l 35 926 q 29 932 29 926 l 29 967 q 35 972 29 972 l 89 972 q 93 971 92 972 l 119 943 z "},"":{"ha":210,"x_min":31,"x_max":179,"o":"m 140 869 q 117 852 118 858 q 125 846 117 846 l 172 846 q 178 843 175 846 l 179 842 l 179 839 l 179 804 q 172 799 179 799 l 76 799 q 44 807 58 799 q 31 839 31 815 q 44 871 32 863 q 74 889 56 879 q 99 904 89 899 q 114 917 110 910 q 114 922 117 919 q 108 926 113 926 l 83 926 q 78 919 78 926 l 78 906 q 71 900 78 900 l 36 900 q 31 906 31 900 l 31 942 q 39 963 31 954 q 60 972 47 972 l 138 972 q 168 958 157 972 q 179 926 179 944 l 179 918 q 172 895 179 908 q 140 869 164 882 z "},"":{"ha":210,"x_min":31,"x_max":179,"o":"m 140 869 q 117 852 118 858 q 125 846 117 846 l 172 846 q 178 843 175 846 l 179 842 l 179 839 l 179 804 q 172 799 179 799 l 76 799 q 44 807 58 799 q 31 839 31 815 q 44 871 32 863 q 74 889 56 879 q 99 904 89 899 q 114 917 110 910 q 114 922 117 919 q 108 926 113 926 l 83 926 q 78 919 78 926 l 78 906 q 71 900 78 900 l 36 900 q 31 906 31 900 l 31 942 q 39 963 31 954 q 60 972 47 972 l 138 972 q 168 958 157 972 q 179 926 179 944 l 179 918 q 172 895 179 908 q 140 869 164 882 z "},"":{"ha":210,"x_min":31,"x_max":179,"o":"m 153 888 q 179 854 179 878 l 179 829 q 170 808 179 817 q 149 799 161 799 l 60 799 q 39 808 47 799 q 31 829 31 817 l 31 865 q 36 871 31 871 l 71 871 q 78 865 78 871 l 78 851 q 83 846 78 846 l 110 846 q 117 851 114 846 l 117 856 q 110 863 117 863 l 97 863 q 92 868 92 863 l 92 903 q 97 908 92 908 l 110 908 q 117 915 117 908 l 117 919 q 110 926 117 926 l 83 926 q 78 919 78 926 l 78 906 q 71 900 78 900 l 36 900 q 31 906 31 900 l 31 942 q 39 963 31 954 q 60 972 47 972 l 149 972 q 170 963 161 972 q 179 942 179 954 l 179 918 q 172 899 179 907 q 154 888 165 890 l 153 888 z "},"":{"ha":210,"x_min":31,"x_max":179,"o":"m 153 888 q 179 854 179 878 l 179 829 q 170 808 179 817 q 149 799 161 799 l 60 799 q 39 808 47 799 q 31 829 31 817 l 31 865 q 36 871 31 871 l 71 871 q 78 865 78 871 l 78 851 q 83 846 78 846 l 110 846 q 117 851 114 846 l 117 856 q 110 863 117 863 l 97 863 q 92 868 92 863 l 92 903 q 97 908 92 908 l 110 908 q 117 915 117 908 l 117 919 q 110 926 117 926 l 83 926 q 78 919 78 926 l 78 906 q 71 900 78 900 l 36 900 q 31 906 31 900 l 31 942 q 39 963 31 954 q 60 972 47 972 l 149 972 q 170 963 161 972 q 179 942 179 954 l 179 918 q 172 899 179 907 q 154 888 165 890 l 153 888 z "},"":{"ha":621,"x_min":82,"x_max":557,"o":"m 515 972 q 545 959 533 972 q 547 926 557 946 l 238 24 q 204 0 228 0 l 119 0 q 92 14 101 0 q 86 46 82 28 l 397 949 q 409 966 400 960 q 429 972 418 972 l 515 972 z "},"":{"ha":621,"x_min":82,"x_max":557,"o":"m 515 972 q 545 959 533 972 q 547 926 557 946 l 238 24 q 204 0 228 0 l 119 0 q 92 14 101 0 q 86 46 82 28 l 397 949 q 409 966 400 960 q 429 972 418 972 l 515 972 z "},"":{"ha":1113,"x_min":44,"x_max":1013,"o":"m 708 972 q 737 961 726 972 q 740 926 747 950 l 431 24 q 397 0 421 0 l 314 0 q 285 14 296 0 q 281 46 276 29 l 592 949 q 603 966 594 960 q 624 972 613 972 l 708 972 m 311 403 q 305 388 311 394 q 290 382 299 382 l 165 382 q 151 388 157 382 q 144 403 144 394 l 144 793 q 139 807 144 803 q 124 814 132 814 l 65 814 q 51 820 57 814 q 44 835 44 826 l 44 951 q 51 966 44 960 q 65 972 57 972 l 199 972 q 213 967 204 972 l 306 874 q 311 860 311 865 l 311 403 m 1006 492 q 1013 478 1013 485 l 1013 21 q 1006 6 1013 13 q 992 0 1000 0 l 867 0 q 852 6 858 0 q 846 21 846 13 l 846 186 q 840 201 846 194 q 825 207 833 207 l 650 207 q 635 213 642 207 q 629 228 629 218 l 629 342 q 632 351 629 346 l 747 579 q 765 590 751 590 l 899 590 q 914 585 906 590 l 1006 492 m 846 425 q 839 432 846 432 l 811 432 q 806 428 808 432 l 778 374 q 778 368 775 371 q 783 365 781 365 l 839 365 q 846 371 846 365 l 846 425 z "},"":{"ha":1113,"x_min":44,"x_max":1013,"o":"m 708 972 q 737 961 726 972 q 740 926 747 950 l 431 24 q 397 0 421 0 l 314 0 q 285 14 296 0 q 281 46 276 29 l 592 949 q 603 966 594 960 q 624 972 613 972 l 708 972 m 311 403 q 305 388 311 394 q 290 382 299 382 l 165 382 q 151 388 157 382 q 144 403 144 394 l 144 793 q 139 807 144 803 q 124 814 132 814 l 65 814 q 51 820 57 814 q 44 835 44 826 l 44 951 q 51 966 44 960 q 65 972 57 972 l 199 972 q 213 967 204 972 l 306 874 q 311 860 311 865 l 311 403 m 1006 492 q 1013 478 1013 485 l 1013 21 q 1006 6 1013 13 q 992 0 1000 0 l 867 0 q 852 6 858 0 q 846 21 846 13 l 846 186 q 840 201 846 194 q 825 207 833 207 l 650 207 q 635 213 642 207 q 629 228 629 218 l 629 342 q 632 351 629 346 l 747 579 q 765 590 751 590 l 899 590 q 914 585 906 590 l 1006 492 m 846 425 q 839 432 846 432 l 811 432 q 806 428 808 432 l 778 374 q 778 368 775 371 q 783 365 781 365 l 839 365 q 846 371 846 365 l 846 425 z "},"":{"ha":1225,"x_min":40,"x_max":1131,"o":"m 713 972 q 741 959 731 972 q 744 926 751 946 l 435 24 q 401 0 425 0 l 318 0 q 289 14 300 0 q 285 46 281 29 l 596 949 q 608 966 599 960 q 628 972 617 972 l 713 972 m 308 403 q 302 388 308 394 q 288 382 296 382 l 161 382 q 147 388 153 382 q 140 403 140 394 l 140 793 q 134 808 140 801 q 119 814 128 814 l 61 814 q 47 820 53 814 q 40 835 40 826 l 40 951 q 47 966 40 960 q 61 972 53 972 l 196 972 q 210 967 201 972 l 303 874 q 308 860 308 865 l 308 403 m 997 239 q 944 203 961 221 q 922 174 926 186 q 925 153 918 161 q 946 146 932 146 l 1110 146 q 1124 140 1118 146 q 1131 125 1131 135 l 1131 21 q 1124 6 1131 13 q 1110 0 1118 0 l 842 0 q 783 6 811 0 q 732 28 754 13 q 697 69 710 43 q 685 136 685 96 q 698 201 686 175 q 729 244 710 226 q 774 277 749 263 q 829 308 800 292 q 916 363 881 338 q 967 413 951 388 q 967 433 974 424 q 949 444 960 444 l 864 444 q 849 438 856 444 q 843 424 843 432 l 843 364 q 837 349 843 356 q 822 343 831 343 l 717 343 q 702 349 708 343 q 696 364 696 356 l 696 486 q 725 558 696 528 q 797 590 754 589 l 992 589 q 1049 576 1024 589 q 1093 541 1075 563 q 1121 492 1111 519 q 1131 433 1131 464 l 1131 407 q 1126 369 1131 390 q 1106 327 1121 349 q 1065 283 1092 306 q 997 239 1039 260 z "},"":{"ha":1225,"x_min":40,"x_max":1131,"o":"m 713 972 q 741 959 731 972 q 744 926 751 946 l 435 24 q 401 0 425 0 l 318 0 q 289 14 300 0 q 285 46 281 29 l 596 949 q 608 966 599 960 q 628 972 617 972 l 713 972 m 308 403 q 302 388 308 394 q 288 382 296 382 l 161 382 q 147 388 153 382 q 140 403 140 394 l 140 793 q 134 808 140 801 q 119 814 128 814 l 61 814 q 47 820 53 814 q 40 835 40 826 l 40 951 q 47 966 40 960 q 61 972 53 972 l 196 972 q 210 967 201 972 l 303 874 q 308 860 308 865 l 308 403 m 997 239 q 944 203 961 221 q 922 174 926 186 q 925 153 918 161 q 946 146 932 146 l 1110 146 q 1124 140 1118 146 q 1131 125 1131 135 l 1131 21 q 1124 6 1131 13 q 1110 0 1118 0 l 842 0 q 783 6 811 0 q 732 28 754 13 q 697 69 710 43 q 685 136 685 96 q 698 201 686 175 q 729 244 710 226 q 774 277 749 263 q 829 308 800 292 q 916 363 881 338 q 967 413 951 388 q 967 433 974 424 q 949 444 960 444 l 864 444 q 849 438 856 444 q 843 424 843 432 l 843 364 q 837 349 843 356 q 822 343 831 343 l 717 343 q 702 349 708 343 q 696 364 696 356 l 696 486 q 725 558 696 528 q 797 590 754 589 l 992 589 q 1049 576 1024 589 q 1093 541 1075 563 q 1121 492 1111 519 q 1131 433 1131 464 l 1131 407 q 1126 369 1131 390 q 1106 327 1121 349 q 1065 283 1092 306 q 997 239 1039 260 z "},"":{"ha":1238,"x_min":32,"x_max":1151,"o":"m 476 486 q 446 413 476 443 q 372 382 415 382 l 133 382 q 61 415 90 385 q 32 486 32 444 l 32 608 q 38 623 32 617 q 53 629 44 629 l 157 629 q 178 608 178 629 l 178 561 q 184 547 178 553 q 199 540 190 540 l 289 540 q 303 547 297 540 q 310 561 310 553 l 310 585 q 303 600 310 594 q 289 606 297 606 l 247 606 q 233 612 239 606 q 226 626 226 618 l 226 728 q 233 742 226 736 q 247 749 239 749 l 289 749 q 303 758 297 749 q 310 778 310 768 l 310 793 q 303 808 310 801 q 289 814 297 814 l 199 814 q 184 808 190 814 q 178 793 178 801 l 178 746 q 172 731 178 738 q 157 725 165 725 l 53 725 q 38 731 44 725 q 32 746 32 738 l 32 868 q 61 940 32 910 q 133 972 90 971 l 372 972 q 446 942 415 972 q 476 868 476 911 l 476 786 q 453 721 476 750 q 393 685 429 692 l 389 683 q 385 678 382 683 q 389 672 382 672 q 451 636 426 665 q 476 569 476 607 l 476 486 m 846 972 q 875 959 864 972 q 879 926 886 946 l 568 24 q 556 6 565 13 q 536 0 547 0 l 451 0 q 424 14 435 0 q 419 46 413 29 l 729 949 q 763 972 739 972 l 846 972 m 1144 492 q 1151 478 1151 485 l 1151 21 q 1145 6 1151 13 q 1131 0 1139 0 l 1006 0 q 991 6 997 0 q 985 21 985 13 l 985 186 q 978 201 985 194 q 964 207 972 207 l 789 207 q 774 213 781 207 q 768 228 768 218 l 768 342 q 771 351 768 346 l 886 579 q 904 590 890 590 l 1038 590 q 1053 585 1044 590 l 1144 492 m 985 425 q 978 432 985 432 l 950 432 q 944 428 947 432 l 917 374 q 917 368 914 371 q 922 365 919 365 l 978 365 q 985 371 985 365 l 985 425 z "},"":{"ha":1238,"x_min":32,"x_max":1151,"o":"m 476 486 q 446 413 476 443 q 372 382 415 382 l 133 382 q 61 415 90 385 q 32 486 32 444 l 32 608 q 38 623 32 617 q 53 629 44 629 l 157 629 q 178 608 178 629 l 178 561 q 184 547 178 553 q 199 540 190 540 l 289 540 q 303 547 297 540 q 310 561 310 553 l 310 585 q 303 600 310 594 q 289 606 297 606 l 247 606 q 233 612 239 606 q 226 626 226 618 l 226 728 q 233 742 226 736 q 247 749 239 749 l 289 749 q 303 758 297 749 q 310 778 310 768 l 310 793 q 303 808 310 801 q 289 814 297 814 l 199 814 q 184 808 190 814 q 178 793 178 801 l 178 746 q 172 731 178 738 q 157 725 165 725 l 53 725 q 38 731 44 725 q 32 746 32 738 l 32 868 q 61 940 32 910 q 133 972 90 971 l 372 972 q 446 942 415 972 q 476 868 476 911 l 476 786 q 453 721 476 750 q 393 685 429 692 l 389 683 q 385 678 382 683 q 389 672 382 672 q 451 636 426 665 q 476 569 476 607 l 476 486 m 846 972 q 875 959 864 972 q 879 926 886 946 l 568 24 q 556 6 565 13 q 536 0 547 0 l 451 0 q 424 14 435 0 q 419 46 413 29 l 729 949 q 763 972 739 972 l 846 972 m 1144 492 q 1151 478 1151 485 l 1151 21 q 1145 6 1151 13 q 1131 0 1139 0 l 1006 0 q 991 6 997 0 q 985 21 985 13 l 985 186 q 978 201 985 194 q 964 207 972 207 l 789 207 q 774 213 781 207 q 768 228 768 218 l 768 342 q 771 351 768 346 l 886 579 q 904 590 890 590 l 1038 590 q 1053 585 1044 590 l 1144 492 m 985 425 q 978 432 985 432 l 950 432 q 944 428 947 432 l 917 374 q 917 368 914 371 q 922 365 919 365 l 978 365 q 985 371 985 365 l 985 425 z "},"":{"ha":1839,"x_min":36,"x_max":1793,"o":"m 864 972 q 892 959 882 972 q 896 926 903 946 l 586 24 q 553 0 576 0 l 469 0 q 442 14 451 0 q 436 46 432 28 l 747 949 q 759 966 750 960 q 779 972 768 972 l 864 972 m 513 539 q 500 478 513 507 q 467 428 488 450 q 417 394 446 407 q 357 382 389 382 l 193 382 q 131 394 160 382 q 82 428 103 407 q 49 478 61 450 q 36 539 36 507 l 36 815 q 49 877 36 849 q 82 926 61 906 q 131 960 103 947 q 193 972 160 972 l 357 972 q 417 960 389 972 q 467 926 446 947 q 500 877 488 906 q 513 815 513 849 l 513 539 m 346 806 q 340 820 346 814 q 324 826 333 826 l 224 826 q 209 820 215 826 q 203 806 203 814 l 203 549 q 209 534 203 540 q 224 528 215 528 l 324 528 q 340 534 333 528 q 346 549 346 540 l 346 806 m 1124 590 q 1184 578 1156 590 q 1234 544 1213 565 q 1268 494 1256 522 q 1281 433 1281 465 l 1281 157 q 1268 95 1281 124 q 1234 46 1256 67 q 1184 13 1213 25 q 1124 0 1156 0 l 960 0 q 899 13 928 0 q 849 46 871 25 q 815 95 828 67 q 803 157 803 124 l 803 433 q 815 494 803 465 q 849 544 828 522 q 899 578 871 565 q 960 590 928 590 l 1124 590 m 1638 590 q 1698 578 1669 590 q 1747 544 1726 565 q 1781 494 1768 522 q 1793 433 1793 465 l 1793 157 q 1781 95 1793 124 q 1747 46 1768 67 q 1698 13 1726 25 q 1638 0 1669 0 l 1472 0 q 1412 13 1440 0 q 1363 46 1383 25 q 1329 95 1342 67 q 1317 157 1317 124 l 1317 433 q 1329 494 1317 465 q 1363 544 1342 522 q 1412 578 1383 565 q 1472 590 1440 590 l 1638 590 m 1114 424 q 1108 438 1114 432 q 1093 444 1101 444 l 990 444 q 976 438 982 444 q 969 424 969 432 l 969 167 q 976 153 969 160 q 990 146 983 146 l 1093 146 q 1107 153 1100 146 q 1114 167 1114 160 l 1114 424 m 1626 424 q 1621 438 1626 432 q 1606 444 1615 444 l 1504 444 q 1490 438 1496 444 q 1483 424 1483 432 l 1483 167 q 1490 153 1483 160 q 1504 146 1497 146 l 1606 146 q 1621 152 1615 146 q 1626 167 1626 158 l 1626 424 z "},"":{"ha":1839,"x_min":36,"x_max":1793,"o":"m 864 972 q 892 959 882 972 q 896 926 903 946 l 586 24 q 553 0 576 0 l 469 0 q 442 14 451 0 q 436 46 432 28 l 747 949 q 759 966 750 960 q 779 972 768 972 l 864 972 m 513 539 q 500 478 513 507 q 467 428 488 450 q 417 394 446 407 q 357 382 389 382 l 193 382 q 131 394 160 382 q 82 428 103 407 q 49 478 61 450 q 36 539 36 507 l 36 815 q 49 877 36 849 q 82 926 61 906 q 131 960 103 947 q 193 972 160 972 l 357 972 q 417 960 389 972 q 467 926 446 947 q 500 877 488 906 q 513 815 513 849 l 513 539 m 346 806 q 340 820 346 814 q 324 826 333 826 l 224 826 q 209 820 215 826 q 203 806 203 814 l 203 549 q 209 534 203 540 q 224 528 215 528 l 324 528 q 340 534 333 528 q 346 549 346 540 l 346 806 m 1124 590 q 1184 578 1156 590 q 1234 544 1213 565 q 1268 494 1256 522 q 1281 433 1281 465 l 1281 157 q 1268 95 1281 124 q 1234 46 1256 67 q 1184 13 1213 25 q 1124 0 1156 0 l 960 0 q 899 13 928 0 q 849 46 871 25 q 815 95 828 67 q 803 157 803 124 l 803 433 q 815 494 803 465 q 849 544 828 522 q 899 578 871 565 q 960 590 928 590 l 1124 590 m 1638 590 q 1698 578 1669 590 q 1747 544 1726 565 q 1781 494 1768 522 q 1793 433 1793 465 l 1793 157 q 1781 95 1793 124 q 1747 46 1768 67 q 1698 13 1726 25 q 1638 0 1669 0 l 1472 0 q 1412 13 1440 0 q 1363 46 1383 25 q 1329 95 1342 67 q 1317 157 1317 124 l 1317 433 q 1329 494 1317 465 q 1363 544 1342 522 q 1412 578 1383 565 q 1472 590 1440 590 l 1638 590 m 1114 424 q 1108 438 1114 432 q 1093 444 1101 444 l 990 444 q 976 438 982 444 q 969 424 969 432 l 969 167 q 976 153 969 160 q 990 146 983 146 l 1093 146 q 1107 153 1100 146 q 1114 167 1114 160 l 1114 424 m 1626 424 q 1621 438 1626 432 q 1606 444 1615 444 l 1504 444 q 1490 438 1496 444 q 1483 424 1483 432 l 1483 167 q 1490 153 1483 160 q 1504 146 1497 146 l 1606 146 q 1621 152 1615 146 q 1626 167 1626 158 l 1626 424 z "},"":{"ha":835,"x_min":51,"x_max":765,"o":"m 731 840 q 756 831 746 840 q 765 806 765 821 l 765 35 q 756 10 765 19 q 731 0 746 0 l 581 0 q 557 10 567 0 q 547 35 547 19 l 547 125 q 524 83 536 106 q 493 42 511 61 q 451 12 475 24 q 390 0 426 0 q 350 11 368 0 q 317 40 332 22 q 292 77 303 57 q 271 115 281 97 l 271 -269 q 261 -293 271 -283 q 238 -303 251 -303 l 86 -303 q 61 -293 71 -303 q 51 -269 51 -283 l 51 806 q 61 831 51 821 q 86 840 71 840 l 238 840 q 261 831 251 840 q 271 806 271 821 l 271 400 q 328 276 294 321 q 428 232 363 232 q 501 251 472 232 q 547 293 531 271 l 547 806 q 557 831 547 821 q 581 840 567 840 l 731 840 z "},"":{"ha":835,"x_min":51,"x_max":765,"o":"m 731 840 q 756 831 746 840 q 765 806 765 821 l 765 35 q 756 10 765 19 q 731 0 746 0 l 581 0 q 557 10 567 0 q 547 35 547 19 l 547 125 q 524 83 536 106 q 493 42 511 61 q 451 12 475 24 q 390 0 426 0 q 350 11 368 0 q 317 40 332 22 q 292 77 303 57 q 271 115 281 97 l 271 -269 q 261 -293 271 -283 q 238 -303 251 -303 l 86 -303 q 61 -293 71 -303 q 51 -269 51 -283 l 51 806 q 61 831 51 821 q 86 840 71 840 l 238 840 q 261 831 251 840 q 271 806 271 821 l 271 400 q 328 276 294 321 q 428 232 363 232 q 501 251 472 232 q 547 293 531 271 l 547 806 q 557 831 547 821 q 581 840 567 840 l 731 840 z "},"":{"ha":942,"x_min":11,"x_max":890,"o":"m 856 972 q 881 963 871 972 q 890 938 890 950 l 890 854 q 881 830 890 840 q 856 819 871 819 l 796 819 q 771 810 781 819 q 761 786 761 800 l 761 35 q 751 10 761 19 q 726 0 742 0 l 643 0 q 619 10 629 0 q 608 35 608 19 l 608 810 q 599 819 608 819 l 557 819 q 546 810 546 819 l 546 35 q 536 10 546 19 q 511 0 526 0 l 428 0 q 403 10 413 0 q 393 35 393 19 l 393 392 l 301 392 q 189 415 242 392 q 97 477 136 438 q 34 569 57 517 q 11 682 11 622 q 34 796 11 743 q 97 888 57 849 q 189 949 136 926 q 301 972 242 972 l 856 972 z "},"":{"ha":942,"x_min":11,"x_max":890,"o":"m 856 972 q 881 963 871 972 q 890 938 890 950 l 890 854 q 881 830 890 840 q 856 819 871 819 l 796 819 q 771 810 781 819 q 761 786 761 800 l 761 35 q 751 10 761 19 q 726 0 742 0 l 643 0 q 619 10 629 0 q 608 35 608 19 l 608 810 q 599 819 608 819 l 557 819 q 546 810 546 819 l 546 35 q 536 10 546 19 q 511 0 526 0 l 428 0 q 403 10 413 0 q 393 35 393 19 l 393 392 l 301 392 q 189 415 242 392 q 97 477 136 438 q 34 569 57 517 q 11 682 11 622 q 34 796 11 743 q 97 888 57 849 q 189 949 136 926 q 301 972 242 972 l 856 972 z "},"":{"ha":746,"x_min":21,"x_max":699,"o":"m 582 703 q 563 710 571 703 q 554 729 554 717 l 554 800 q 547 819 554 811 q 528 828 539 828 l 404 828 q 378 819 393 828 q 363 789 364 810 q 363 754 357 772 q 380 710 365 729 q 417 674 394 692 q 467 640 439 657 q 526 603 496 624 q 594 558 564 578 q 645 516 624 539 q 679 463 667 493 q 693 389 692 433 q 679 310 693 342 q 642 258 665 278 q 588 227 619 238 q 522 214 557 217 q 526 195 525 204 q 528 175 526 186 q 510 88 528 122 q 465 34 493 54 q 399 6 436 14 q 322 -1 363 -1 l 60 -1 q 41 7 49 -1 q 33 26 33 15 l 33 115 q 41 135 33 126 q 60 143 49 143 l 247 143 q 292 155 272 143 q 313 188 311 167 q 290 238 314 208 q 204 306 267 268 q 61 423 101 367 q 21 535 21 479 l 21 557 q 32 631 21 596 q 64 694 43 667 q 116 740 85 722 q 188 757 147 757 l 188 771 q 199 846 188 810 q 231 910 210 882 q 283 954 251 938 q 356 971 314 971 l 569 972 q 661 932 624 971 q 699 838 699 893 l 699 729 q 691 710 699 718 q 672 703 683 703 l 582 703 m 413 357 q 457 369 438 357 q 478 401 476 381 q 456 452 479 422 q 369 519 432 482 q 299 567 329 543 q 247 614 268 590 l 239 614 q 213 605 228 614 q 196 575 199 596 q 196 540 193 558 q 215 497 200 515 q 251 460 229 478 q 302 426 274 443 q 361 389 331 410 q 386 372 374 381 q 410 357 399 364 l 413 357 z "},"":{"ha":746,"x_min":21,"x_max":699,"o":"m 582 703 q 563 710 571 703 q 554 729 554 717 l 554 800 q 547 819 554 811 q 528 828 539 828 l 404 828 q 378 819 393 828 q 363 789 364 810 q 363 754 357 772 q 380 710 365 729 q 417 674 394 692 q 467 640 439 657 q 526 603 496 624 q 594 558 564 578 q 645 516 624 539 q 679 463 667 493 q 693 389 692 433 q 679 310 693 342 q 642 258 665 278 q 588 227 619 238 q 522 214 557 217 q 526 195 525 204 q 528 175 526 186 q 510 88 528 122 q 465 34 493 54 q 399 6 436 14 q 322 -1 363 -1 l 60 -1 q 41 7 49 -1 q 33 26 33 15 l 33 115 q 41 135 33 126 q 60 143 49 143 l 247 143 q 292 155 272 143 q 313 188 311 167 q 290 238 314 208 q 204 306 267 268 q 61 423 101 367 q 21 535 21 479 l 21 557 q 32 631 21 596 q 64 694 43 667 q 116 740 85 722 q 188 757 147 757 l 188 771 q 199 846 188 810 q 231 910 210 882 q 283 954 251 938 q 356 971 314 971 l 569 972 q 661 932 624 971 q 699 838 699 893 l 699 729 q 691 710 699 718 q 672 703 683 703 l 582 703 m 413 357 q 457 369 438 357 q 478 401 476 381 q 456 452 479 422 q 369 519 432 482 q 299 567 329 543 q 247 614 268 590 l 239 614 q 213 605 228 614 q 196 575 199 596 q 196 540 193 558 q 215 497 200 515 q 251 460 229 478 q 302 426 274 443 q 361 389 331 410 q 386 372 374 381 q 410 357 399 364 l 413 357 z "},"":{"ha":475,"x_min":32,"x_max":440,"o":"m 406 797 q 431 788 421 797 q 440 764 440 778 l 440 665 q 431 640 440 650 q 406 631 421 631 l 363 631 l 363 35 q 353 10 363 19 q 328 0 343 0 l 143 0 q 119 10 129 0 q 110 35 110 19 l 110 631 l 67 631 q 42 640 51 631 q 32 665 32 650 l 32 764 q 42 788 32 778 q 67 797 51 797 l 110 797 l 110 938 q 119 963 110 953 q 143 972 129 972 l 328 972 q 353 963 343 972 q 363 938 363 953 l 363 797 l 406 797 z "},"":{"ha":475,"x_min":32,"x_max":440,"o":"m 406 797 q 431 788 421 797 q 440 764 440 778 l 440 665 q 431 640 440 650 q 406 631 421 631 l 363 631 l 363 35 q 353 10 363 19 q 328 0 343 0 l 143 0 q 119 10 129 0 q 110 35 110 19 l 110 631 l 67 631 q 42 640 51 631 q 32 665 32 650 l 32 764 q 42 788 32 778 q 67 797 51 797 l 110 797 l 110 938 q 119 963 110 953 q 143 972 129 972 l 328 972 q 353 963 343 972 q 363 938 363 953 l 363 797 l 406 797 z "},"":{"ha":478,"x_min":28,"x_max":438,"o":"m 360 631 l 360 326 l 403 326 q 428 317 418 326 q 438 292 438 307 l 438 194 q 428 169 438 179 q 403 160 418 160 l 360 160 l 360 35 q 350 10 360 19 q 325 0 340 0 l 139 0 q 115 10 125 0 q 106 35 106 19 l 106 160 l 63 160 q 38 169 47 160 q 28 194 28 179 l 28 292 q 38 317 28 307 q 63 326 47 326 l 106 326 l 106 631 l 63 631 q 38 640 47 631 q 28 665 28 650 l 28 764 q 38 788 28 778 q 63 797 47 797 l 106 797 l 106 938 q 115 963 106 953 q 139 972 125 972 l 325 972 q 350 963 340 972 q 360 938 360 953 l 360 797 l 403 797 q 428 788 418 797 q 438 764 438 778 l 438 665 q 428 640 438 650 q 403 631 418 631 l 360 631 z "},"":{"ha":478,"x_min":28,"x_max":438,"o":"m 360 631 l 360 326 l 403 326 q 428 317 418 326 q 438 292 438 307 l 438 194 q 428 169 438 179 q 403 160 418 160 l 360 160 l 360 35 q 350 10 360 19 q 325 0 340 0 l 139 0 q 115 10 125 0 q 106 35 106 19 l 106 160 l 63 160 q 38 169 47 160 q 28 194 28 179 l 28 292 q 38 317 28 307 q 63 326 47 326 l 106 326 l 106 631 l 63 631 q 38 640 47 631 q 28 665 28 650 l 28 764 q 38 788 28 778 q 63 797 47 797 l 106 797 l 106 938 q 115 963 106 953 q 139 972 125 972 l 325 972 q 350 963 340 972 q 360 938 360 953 l 360 797 l 403 797 q 428 788 418 797 q 438 764 438 778 l 438 665 q 428 640 438 650 q 403 631 418 631 l 360 631 z "},"~":{"ha":588,"x_min":28,"x_max":561,"o":"m 549 493 q 558 478 556 488 q 553 460 561 468 q 485 412 524 428 q 404 396 446 396 q 323 417 354 396 q 271 458 292 439 q 242 483 253 476 q 217 489 232 489 q 174 470 199 489 q 131 431 150 451 q 101 428 118 415 l 36 475 q 28 490 31 479 q 33 507 28 500 q 63 538 44 519 q 105 574 81 557 q 158 602 129 590 q 217 614 186 614 q 265 607 244 614 q 303 590 286 600 q 334 569 321 581 q 357 549 347 558 q 383 526 374 532 q 404 519 392 519 q 454 536 432 519 q 478 538 465 544 l 549 493 z "},"":{"ha":588,"x_min":28,"x_max":561,"o":"m 549 493 q 558 478 556 488 q 553 460 561 468 q 485 412 524 428 q 404 396 446 396 q 323 417 354 396 q 271 458 292 439 q 242 483 253 476 q 217 489 232 489 q 174 470 199 489 q 131 431 150 451 q 101 428 118 415 l 36 475 q 28 490 31 479 q 33 507 28 500 q 63 538 44 519 q 105 574 81 557 q 158 602 129 590 q 217 614 186 614 q 265 607 244 614 q 303 590 286 600 q 334 569 321 581 q 357 549 347 558 q 383 526 374 532 q 404 519 392 519 q 454 536 432 519 q 478 538 465 544 l 549 493 z "},"":{"ha":333,"x_min":31,"x_max":301,"o":"m 297 35 q 294 8 301 21 q 275 -8 288 -7 l 228 -24 q 201 -22 214 -28 q 185 -1 189 -17 l 32 476 q 32 497 31 488 l 185 975 q 201 994 189 989 q 228 997 215 1001 l 275 982 q 295 965 289 978 q 297 939 301 953 l 157 497 q 157 476 153 488 l 297 35 z "},"":{"ha":333,"x_min":31,"x_max":301,"o":"m 297 35 q 294 8 301 21 q 275 -8 288 -7 l 228 -24 q 201 -22 214 -28 q 185 -1 189 -17 l 32 476 q 32 497 31 488 l 185 975 q 201 994 189 989 q 228 997 215 1001 l 275 982 q 295 965 289 978 q 297 939 301 953 l 157 497 q 157 476 153 488 l 297 35 z "},"":{"ha":333,"x_min":31,"x_max":304,"o":"m 300 497 q 300 476 304 488 l 147 -1 q 131 -22 143 -15 q 104 -24 118 -29 l 57 -10 q 38 8 44 -6 q 35 35 31 21 l 176 476 q 176 497 179 488 l 35 939 q 37 965 31 953 q 57 982 43 978 l 104 997 q 131 994 118 1001 q 147 975 143 989 l 300 497 z "},"":{"ha":333,"x_min":31,"x_max":304,"o":"m 300 497 q 300 476 304 488 l 147 -1 q 131 -22 143 -15 q 104 -24 118 -29 l 57 -10 q 38 8 44 -6 q 35 35 31 21 l 176 476 q 176 497 179 488 l 35 939 q 37 965 31 953 q 57 982 43 978 l 104 997 q 131 994 118 1001 q 147 975 143 989 l 300 497 z "},"":{"ha":583,"x_min":31,"x_max":551,"o":"m 297 35 q 294 8 301 21 q 275 -8 288 -7 l 228 -24 q 201 -22 214 -28 q 185 -1 189 -15 l 32 476 q 32 497 31 488 l 185 975 q 201 995 189 989 q 228 997 214 1001 l 275 982 q 295 965 289 978 q 297 939 301 953 l 157 497 q 157 476 153 488 l 297 35 m 547 35 q 544 8 551 21 q 525 -8 538 -7 l 478 -24 q 451 -22 464 -28 q 435 -1 439 -17 l 282 476 q 282 497 278 488 l 435 975 q 451 995 439 989 q 478 997 464 1001 l 525 982 q 545 965 539 978 q 547 939 551 953 l 406 497 q 406 476 404 488 l 547 35 z "},"":{"ha":583,"x_min":31,"x_max":551,"o":"m 297 35 q 294 8 301 21 q 275 -8 288 -7 l 228 -24 q 201 -22 214 -28 q 185 -1 189 -15 l 32 476 q 32 497 31 488 l 185 975 q 201 995 189 989 q 228 997 214 1001 l 275 982 q 295 965 289 978 q 297 939 301 953 l 157 497 q 157 476 153 488 l 297 35 m 547 35 q 544 8 551 21 q 525 -8 538 -7 l 478 -24 q 451 -22 464 -28 q 435 -1 439 -17 l 282 476 q 282 497 278 488 l 435 975 q 451 995 439 989 q 478 997 464 1001 l 525 982 q 545 965 539 978 q 547 939 551 953 l 406 497 q 406 476 404 488 l 547 35 z "},"":{"ha":583,"x_min":31,"x_max":553,"o":"m 300 497 q 300 476 304 488 l 147 -1 q 131 -22 143 -17 q 104 -24 119 -28 l 57 -10 q 38 8 44 -6 q 35 35 31 21 l 176 476 q 176 497 179 488 l 35 939 q 37 965 31 953 q 57 982 43 978 l 104 997 q 131 994 118 1001 q 147 975 143 989 l 300 497 m 550 497 q 550 476 553 488 l 397 -1 q 381 -22 393 -17 q 354 -24 368 -28 l 307 -10 q 288 8 294 -6 q 285 35 281 21 l 425 476 q 425 497 429 488 l 285 939 q 287 965 281 953 q 307 982 293 978 l 354 997 q 381 994 367 1001 q 397 975 393 989 l 550 497 z "},"":{"ha":583,"x_min":31,"x_max":553,"o":"m 300 497 q 300 476 304 488 l 147 -1 q 131 -22 143 -17 q 104 -24 119 -28 l 57 -10 q 38 8 44 -6 q 35 35 31 21 l 176 476 q 176 497 179 488 l 35 939 q 37 965 31 953 q 57 982 43 978 l 104 997 q 131 994 118 1001 q 147 975 143 989 l 300 497 m 550 497 q 550 476 553 488 l 397 -1 q 381 -22 393 -17 q 354 -24 368 -28 l 307 -10 q 288 8 294 -6 q 285 35 281 21 l 425 476 q 425 497 429 488 l 285 939 q 287 965 281 953 q 307 982 293 978 l 354 997 q 381 994 367 1001 q 397 975 393 989 l 550 497 z "},"":{"ha":374,"x_min":19,"x_max":357,"o":"m 339 1025 q 357 1007 357 1025 q 348 965 356 990 q 322 916 340 940 q 269 875 303 892 q 183 858 236 858 q 97 876 129 858 q 48 917 65 893 q 25 967 31 942 q 19 1008 19 992 q 24 1021 19 1015 q 36 1025 31 1025 l 119 1025 q 136 1014 133 1025 q 153 987 140 1001 q 196 972 165 972 q 237 987 225 972 q 251 1013 249 1001 q 268 1025 256 1025 l 339 1025 z "},"":{"ha":374,"x_min":19,"x_max":357,"o":"m 339 1025 q 357 1007 357 1025 q 348 965 356 990 q 322 916 340 940 q 269 875 303 892 q 183 858 236 858 q 97 876 129 858 q 48 917 65 893 q 25 967 31 942 q 19 1008 19 992 q 24 1021 19 1015 q 36 1025 31 1025 l 119 1025 q 136 1014 133 1025 q 153 987 140 1001 q 196 972 165 972 q 237 987 225 972 q 251 1013 249 1001 q 268 1025 256 1025 l 339 1025 z "},"":{"ha":231,"x_min":28,"x_max":201,"o":"m 115 1029 q 176 1003 151 1029 q 201 942 201 978 q 176 881 201 906 q 115 856 151 856 q 53 881 79 856 q 28 942 28 906 q 53 1003 28 978 q 115 1029 79 1029 z "},"":{"ha":231,"x_min":28,"x_max":201,"o":"m 115 1029 q 176 1003 151 1029 q 201 942 201 978 q 176 881 201 906 q 115 856 151 856 q 53 881 79 856 q 28 942 28 906 q 53 1003 28 978 q 115 1029 79 1029 z "},"":{"ha":231,"x_min":28,"x_max":201,"o":"m 115 1029 q 176 1003 151 1029 q 201 942 201 978 q 176 881 201 906 q 115 856 151 856 q 53 881 79 856 q 28 942 28 906 q 53 1003 28 978 q 115 1029 79 1029 m 115 910 q 138 919 128 910 q 147 942 147 929 q 138 965 147 956 q 115 974 128 974 q 92 965 101 974 q 83 942 83 956 q 92 919 83 928 q 115 910 104 910 z "},"":{"ha":231,"x_min":28,"x_max":201,"o":"m 115 1029 q 176 1003 151 1029 q 201 942 201 978 q 176 881 201 906 q 115 856 151 856 q 53 881 79 856 q 28 942 28 906 q 53 1003 28 978 q 115 1029 79 1029 m 115 910 q 138 919 128 910 q 147 942 147 929 q 138 965 147 956 q 115 974 128 974 q 92 965 101 974 q 83 942 83 956 q 92 919 83 928 q 115 910 104 910 z "},"":{"ha":317,"x_min":33,"x_max":308,"o":"m 156 1040 q 172 1033 168 1040 q 172 1018 175 1026 l 122 857 q 107 844 121 844 l 53 844 q 39 851 46 844 q 38 867 33 860 l 86 1028 q 103 1040 92 1040 l 156 1040 m 289 1040 q 304 1033 300 1040 q 306 1018 308 1026 l 256 857 q 239 844 254 844 l 186 844 q 172 851 179 844 q 169 867 168 858 l 219 1028 q 236 1040 222 1040 l 289 1040 z "},"":{"ha":317,"x_min":33,"x_max":308,"o":"m 156 1040 q 172 1033 168 1040 q 172 1018 175 1026 l 122 857 q 107 844 121 844 l 53 844 q 39 851 46 844 q 38 867 33 860 l 86 1028 q 103 1040 92 1040 l 156 1040 m 289 1040 q 304 1033 300 1040 q 306 1018 308 1026 l 256 857 q 239 844 254 844 l 186 844 q 172 851 179 844 q 169 867 168 858 l 219 1028 q 236 1040 222 1040 l 289 1040 z "},"":{"ha":281,"x_min":28,"x_max":246,"o":"m 229 35 q 241 30 236 35 q 246 18 246 25 l 246 -49 q 240 -61 246 -53 q 228 -65 235 -65 q 120 -41 160 -62 q 60 9 81 -19 q 35 66 40 38 q 28 113 29 94 q 32 125 28 119 q 44 129 40 131 l 117 129 q 133 115 131 129 q 147 76 136 92 q 173 52 158 61 q 203 39 188 43 q 229 35 218 35 z "},"":{"ha":281,"x_min":28,"x_max":246,"o":"m 229 35 q 241 30 236 35 q 246 18 246 25 l 246 -49 q 240 -61 246 -53 q 228 -65 235 -65 q 120 -41 160 -62 q 60 9 81 -19 q 35 66 40 38 q 28 113 29 94 q 32 125 28 119 q 44 129 40 131 l 117 129 q 133 115 131 129 q 147 76 136 92 q 173 52 158 61 q 203 39 188 43 q 229 35 218 35 z "},"":{"ha":214,"x_min":-12,"x_max":225,"o":"m 214 1028 q 222 1022 221 1028 q 222 1013 225 1019 l 115 867 q 107 863 111 863 q 99 867 101 863 l -10 1013 q -10 1022 -12 1018 q -1 1028 -8 1028 l 72 1028 q 82 1022 81 1028 l 97 989 q 107 982 100 982 q 115 989 113 982 l 131 1022 q 140 1028 135 1028 l 214 1028 z "},"":{"ha":214,"x_min":-12,"x_max":225,"o":"m 214 1028 q 222 1022 221 1028 q 222 1013 225 1019 l 115 867 q 107 863 111 863 q 99 867 101 863 l -10 1013 q -10 1022 -12 1018 q -1 1028 -8 1028 l 72 1028 q 82 1022 81 1028 l 97 989 q 107 982 100 982 q 115 989 113 982 l 131 1022 q 140 1028 135 1028 l 214 1028 z "},"`":{"ha":183,"x_min":15,"x_max":156,"o":"m 154 867 q 151 851 156 858 q 138 844 147 844 l 85 844 q 68 857 72 844 l 19 1018 q 21 1033 15 1025 q 36 1040 28 1040 l 89 1040 q 106 1028 100 1040 l 154 867 z "},"":{"ha":183,"x_min":15,"x_max":156,"o":"m 154 867 q 151 851 156 858 q 138 844 147 844 l 85 844 q 68 857 72 844 l 19 1018 q 21 1033 15 1025 q 36 1040 28 1040 l 89 1040 q 106 1028 100 1040 l 154 867 z "},"":{"ha":421,"x_min":28,"x_max":392,"o":"m 115 1029 q 176 1003 151 1029 q 201 942 201 978 q 176 881 201 906 q 115 856 151 856 q 53 881 79 856 q 28 942 28 906 q 53 1003 28 978 q 115 1029 79 1029 m 306 1029 q 367 1003 342 1029 q 392 942 392 978 q 367 881 392 906 q 306 856 342 856 q 244 881 269 856 q 218 942 218 906 q 244 1003 218 979 q 306 1029 268 1029 z "},"":{"ha":421,"x_min":28,"x_max":392,"o":"m 115 1029 q 176 1003 151 1029 q 201 942 201 978 q 176 881 201 906 q 115 856 151 856 q 53 881 79 856 q 28 942 28 906 q 53 1003 28 978 q 115 1029 79 1029 m 306 1029 q 367 1003 342 1029 q 392 942 392 978 q 367 881 392 906 q 306 856 342 856 q 244 881 269 856 q 218 942 218 906 q 244 1003 218 979 q 306 1029 268 1029 z "},"":{"ha":286,"x_min":24,"x_max":261,"o":"m 258 879 q 258 868 261 872 q 250 863 256 863 l 176 863 q 167 868 172 863 l 151 903 q 143 908 150 908 q 133 903 135 908 l 118 868 q 108 863 115 863 l 35 863 q 26 868 29 863 q 26 879 24 875 l 135 1024 q 143 1028 138 1028 q 151 1024 147 1028 l 258 879 z "},"":{"ha":286,"x_min":24,"x_max":261,"o":"m 258 879 q 258 868 261 872 q 250 863 256 863 l 176 863 q 167 868 172 863 l 151 903 q 143 908 150 908 q 133 903 135 908 l 118 868 q 108 863 115 863 l 35 863 q 26 868 29 863 q 26 879 24 875 l 135 1024 q 143 1028 138 1028 q 151 1024 147 1028 l 258 879 z "},"":{"ha":183,"x_min":25,"x_max":167,"o":"m 147 1040 q 163 1033 158 1040 q 164 1018 167 1026 l 114 857 q 99 844 113 844 l 44 844 q 31 851 38 844 q 29 867 25 860 l 78 1028 q 94 1040 83 1040 l 147 1040 z "},"":{"ha":183,"x_min":25,"x_max":167,"o":"m 147 1040 q 163 1033 158 1040 q 164 1018 167 1026 l 114 857 q 99 844 113 844 l 44 844 q 31 851 38 844 q 29 867 25 860 l 78 1028 q 94 1040 83 1040 l 147 1040 z "},"":{"ha":304,"x_min":32,"x_max":275,"o":"m 151 140 q 238 101 201 135 q 275 0 275 67 q 248 -110 275 -71 q 185 -166 221 -149 q 111 -185 149 -183 q 54 -185 74 -187 q 38 -168 38 -185 l 38 -93 q 42 -81 38 -86 q 54 -75 47 -75 q 120 -69 94 -75 q 159 -49 146 -64 q 173 -9 172 -35 q 163 56 174 17 q 146 69 160 69 l 49 69 q 37 74 42 69 q 32 86 32 79 l 32 192 q 37 204 32 199 q 49 210 42 210 l 118 210 q 135 192 135 210 l 135 157 q 140 145 135 150 q 151 140 144 140 z "},"":{"ha":304,"x_min":32,"x_max":275,"o":"m 151 140 q 238 101 201 135 q 275 0 275 67 q 248 -110 275 -71 q 185 -166 221 -149 q 111 -185 149 -183 q 54 -185 74 -187 q 38 -168 38 -185 l 38 -93 q 42 -81 38 -86 q 54 -75 47 -75 q 120 -69 94 -75 q 159 -49 146 -64 q 173 -9 172 -35 q 163 56 174 17 q 146 69 160 69 l 49 69 q 37 74 42 69 q 32 86 32 79 l 32 192 q 37 204 32 199 q 49 210 42 210 l 118 210 q 135 192 135 210 l 135 157 q 140 145 135 150 q 151 140 144 140 z "},"":{"ha":308,"x_min":38,"x_max":256,"o":"m 214 0 l 79 0 q 49 11 60 0 q 38 42 38 22 l 38 694 q 49 725 38 714 q 79 736 60 736 l 214 736 q 244 725 233 736 q 256 694 256 714 l 256 42 q 244 11 256 22 q 214 0 233 0 z "},"":{"ha":793,"x_min":35,"x_max":717,"o":"m 683 972 q 707 963 697 972 q 717 938 717 953 l 717 822 q 707 797 717 807 q 683 788 697 788 l 288 788 q 263 778 274 788 q 253 753 253 768 l 253 651 q 263 626 253 636 q 288 617 274 617 l 388 617 q 411 607 401 617 q 421 582 421 597 l 421 467 q 411 442 421 451 q 388 432 401 432 l 288 432 q 263 422 274 432 q 253 397 253 413 l 253 35 q 243 10 253 19 q 219 0 233 0 l 69 0 q 44 10 54 0 q 35 35 35 19 l 35 800 q 48 867 35 836 q 85 922 61 899 q 140 959 108 946 q 207 972 171 972 l 683 972 m 675 0 l 540 0 q 510 11 521 0 q 499 42 499 22 l 499 572 q 510 603 499 592 q 540 614 521 614 l 675 614 q 706 603 694 614 q 717 572 717 592 l 717 42 q 706 11 717 22 q 675 0 694 0 z "},"":{"ha":792,"x_min":38,"x_max":721,"o":"m 688 972 q 711 963 701 972 q 721 938 721 953 l 721 35 q 711 10 721 19 q 688 0 701 0 l 538 0 q 513 10 522 0 q 503 35 503 19 l 503 788 l 292 788 q 267 778 278 788 q 257 753 257 768 l 257 651 q 267 626 257 636 q 292 617 278 617 l 392 617 q 415 607 406 617 q 425 582 425 597 l 425 467 q 415 442 425 451 q 392 432 406 432 l 292 432 q 267 422 278 432 q 257 397 257 413 l 257 35 q 247 10 257 19 q 224 0 238 0 l 72 0 q 47 10 57 0 q 38 35 38 19 l 38 800 q 51 867 38 836 q 88 922 64 899 q 142 959 111 946 q 210 972 174 972 l 688 972 z "},"":{"ha":749,"x_min":44,"x_max":690,"o":"m 465 906 q 564 883 522 906 q 634 824 606 861 q 676 737 663 786 q 690 631 690 688 l 690 339 q 676 233 690 283 q 633 147 661 183 q 562 88 604 110 q 463 67 519 67 q 399 76 425 67 q 353 100 372 85 q 319 134 333 115 q 294 171 306 153 q 276 179 290 182 q 263 163 263 175 l 263 35 q 253 10 263 19 q 229 0 243 0 l 79 0 q 54 10 64 0 q 44 35 44 19 l 44 938 q 54 963 44 953 q 79 972 64 972 l 229 972 q 253 963 243 972 q 263 938 263 953 l 263 811 q 276 794 263 797 q 294 801 289 790 q 319 839 306 821 q 353 872 333 857 q 401 897 374 888 q 465 906 428 906 m 471 603 q 465 644 471 624 q 449 683 460 665 q 419 711 438 700 q 374 722 400 722 q 323 704 343 722 q 290 663 303 686 q 272 619 278 640 q 264 592 267 599 l 263 590 l 263 589 l 263 385 l 263 383 l 264 381 q 272 353 267 375 q 290 308 278 332 q 322 266 301 285 q 372 247 342 247 q 424 267 406 247 q 454 310 443 286 q 471 372 467 338 l 471 603 z "},"":{"ha":749,"x_min":44,"x_max":690,"o":"m 465 906 q 564 883 522 906 q 634 824 606 861 q 676 737 663 786 q 690 631 690 688 l 690 339 q 676 233 690 283 q 633 147 661 183 q 562 88 604 110 q 463 67 519 67 q 399 76 425 67 q 353 100 372 85 q 319 134 333 115 q 294 171 306 153 q 276 179 290 182 q 263 163 263 175 l 263 35 q 253 10 263 19 q 229 0 243 0 l 79 0 q 54 10 64 0 q 44 35 44 19 l 44 938 q 54 963 44 953 q 79 972 64 972 l 229 972 q 253 963 243 972 q 263 938 263 953 l 263 811 q 276 794 263 797 q 294 801 289 790 q 319 839 306 821 q 353 872 333 857 q 401 897 374 888 q 465 906 428 906 m 471 603 q 465 644 471 624 q 449 683 460 665 q 419 711 438 700 q 374 722 400 722 q 323 704 343 722 q 290 663 303 686 q 272 619 278 640 q 264 592 267 599 l 263 590 l 263 589 l 263 385 l 263 383 l 264 381 q 272 353 267 375 q 290 308 278 332 q 322 266 301 285 q 372 247 342 247 q 424 267 406 247 q 454 310 443 286 q 471 372 467 338 l 471 603 z "},"":{"ha":858,"x_min":40,"x_max":789,"o":"m 543 904 q 640 878 596 901 q 718 819 685 856 q 770 734 751 782 q 789 633 789 686 l 789 140 q 770 40 789 88 q 718 -45 751 -8 q 640 -105 685 -82 q 543 -132 596 -128 q 462 -127 500 -132 q 392 -108 424 -122 q 335 -67 360 -93 q 292 3 310 -40 q 272 8 282 13 q 260 -8 260 3 l 260 -269 q 250 -293 260 -283 q 226 -303 240 -303 l 75 -303 q 50 -293 60 -303 q 40 -269 40 -283 l 40 938 q 50 963 40 953 q 75 972 60 972 l 226 972 q 250 963 240 972 q 260 938 260 953 l 260 785 q 272 768 260 774 q 292 775 285 763 q 325 819 307 796 q 367 861 343 842 q 424 893 392 881 q 503 906 457 906 q 521 906 506 906 q 543 904 536 906 m 569 615 q 527 672 568 649 q 431 696 486 696 q 371 688 401 696 q 315 665 340 679 q 275 632 290 651 q 260 590 260 613 l 260 172 q 275 137 260 154 q 315 107 290 119 q 371 87 340 94 q 431 79 401 79 q 483 87 458 79 q 527 106 508 94 q 558 131 546 117 q 569 158 569 146 l 569 615 z "},"":{"ha":858,"x_min":40,"x_max":789,"o":"m 543 904 q 640 878 596 901 q 718 819 685 856 q 770 734 751 782 q 789 633 789 686 l 789 140 q 770 40 789 88 q 718 -45 751 -8 q 640 -105 685 -82 q 543 -132 596 -128 q 462 -127 500 -132 q 392 -108 424 -122 q 335 -67 360 -93 q 292 3 310 -40 q 272 8 282 13 q 260 -8 260 3 l 260 -269 q 250 -293 260 -283 q 226 -303 240 -303 l 75 -303 q 50 -293 60 -303 q 40 -269 40 -283 l 40 938 q 50 963 40 953 q 75 972 60 972 l 226 972 q 250 963 240 972 q 260 938 260 953 l 260 785 q 272 768 260 774 q 292 775 285 763 q 325 819 307 796 q 367 861 343 842 q 424 893 392 881 q 503 906 457 906 q 521 906 506 906 q 543 904 536 906 m 569 615 q 527 672 568 649 q 431 696 486 696 q 371 688 401 696 q 315 665 340 679 q 275 632 290 651 q 260 590 260 613 l 260 172 q 275 137 260 154 q 315 107 290 119 q 371 87 340 94 q 431 79 401 79 q 483 87 458 79 q 527 106 508 94 q 558 131 546 117 q 569 158 569 146 l 569 615 z "},"":{"ha":774,"x_min":47,"x_max":711,"o":"m 565 497 q 558 486 557 494 q 568 478 558 478 q 625 457 599 472 q 670 419 651 442 q 700 368 689 396 q 711 308 711 340 l 711 172 q 697 106 711 138 q 660 51 683 74 q 606 14 638 28 q 539 0 575 0 l 413 0 q 388 10 397 0 q 378 35 378 19 l 378 228 q 388 251 378 242 q 413 261 397 261 l 428 261 q 453 271 443 261 q 463 296 463 281 l 463 374 q 453 399 463 389 q 428 408 443 408 l 413 408 q 388 418 397 408 q 378 442 378 428 l 378 531 q 388 556 378 546 q 413 565 397 565 l 428 565 q 453 575 443 565 q 463 599 463 585 l 463 713 q 462 732 463 719 q 456 757 461 744 q 440 778 451 769 q 410 788 429 788 q 364 782 389 788 q 317 759 339 776 q 281 710 296 742 q 265 625 265 678 l 265 35 q 256 10 265 19 q 232 0 246 0 l 82 0 q 57 10 67 0 q 47 35 47 19 l 47 715 q 67 815 47 768 q 123 897 88 863 q 205 952 158 932 q 306 972 251 972 l 539 972 q 606 959 575 972 q 660 922 638 946 q 697 867 683 899 q 711 800 711 836 l 711 667 q 672 558 711 604 q 574 499 633 511 l 565 497 z "},"":{"ha":774,"x_min":47,"x_max":711,"o":"m 565 497 q 558 486 557 494 q 568 478 558 478 q 625 457 599 472 q 670 419 651 442 q 700 368 689 396 q 711 308 711 340 l 711 172 q 697 106 711 138 q 660 51 683 74 q 606 14 638 28 q 539 0 575 0 l 413 0 q 388 10 397 0 q 378 35 378 19 l 378 228 q 388 251 378 242 q 413 261 397 261 l 428 261 q 453 271 443 261 q 463 296 463 281 l 463 374 q 453 399 463 389 q 428 408 443 408 l 413 408 q 388 418 397 408 q 378 442 378 428 l 378 531 q 388 556 378 546 q 413 565 397 565 l 428 565 q 453 575 443 565 q 463 599 463 585 l 463 713 q 462 732 463 719 q 456 757 461 744 q 440 778 451 769 q 410 788 429 788 q 364 782 389 788 q 317 759 339 776 q 281 710 296 742 q 265 625 265 678 l 265 35 q 256 10 265 19 q 232 0 246 0 l 82 0 q 57 10 67 0 q 47 35 47 19 l 47 715 q 67 815 47 768 q 123 897 88 863 q 205 952 158 932 q 306 972 251 972 l 539 972 q 606 959 575 972 q 660 922 638 946 q 697 867 683 899 q 711 800 711 836 l 711 667 q 672 558 711 604 q 574 499 633 511 l 565 497 z "},"":{"ha":764,"x_min":38,"x_max":757,"o":"m 485 707 l 343 678 q 319 683 329 675 q 307 706 310 692 l 294 785 l 294 786 l 231 786 q 206 796 215 786 q 196 821 196 806 l 196 936 q 206 961 196 951 q 231 971 215 971 l 503 971 q 584 948 547 969 q 643 890 621 926 l 707 903 q 733 897 725 906 q 743 875 740 889 l 754 796 q 750 769 757 781 q 729 756 743 758 l 669 743 l 669 257 q 649 156 669 203 q 594 74 629 110 q 512 19 558 39 q 411 -1 465 -1 l 296 -1 q 195 19 242 -1 q 113 74 149 39 q 58 156 78 110 q 38 257 38 203 l 38 442 q 54 520 38 483 q 99 585 71 557 q 167 631 128 614 q 251 647 206 647 l 467 647 q 485 668 485 647 l 485 707 m 396 183 q 461 204 438 183 q 485 271 485 225 l 485 467 q 475 491 485 481 q 450 501 465 501 l 300 501 q 275 491 285 501 q 265 467 265 481 l 265 271 q 285 204 265 225 q 346 183 304 183 l 396 183 z "},"":{"ha":764,"x_min":38,"x_max":757,"o":"m 485 707 l 343 678 q 319 683 329 675 q 307 706 310 692 l 294 785 l 294 786 l 231 786 q 206 796 215 786 q 196 821 196 806 l 196 936 q 206 961 196 951 q 231 971 215 971 l 503 971 q 584 948 547 969 q 643 890 621 926 l 707 903 q 733 897 725 906 q 743 875 740 889 l 754 796 q 750 769 757 781 q 729 756 743 758 l 669 743 l 669 257 q 649 156 669 203 q 594 74 629 110 q 512 19 558 39 q 411 -1 465 -1 l 296 -1 q 195 19 242 -1 q 113 74 149 39 q 58 156 78 110 q 38 257 38 203 l 38 442 q 54 520 38 483 q 99 585 71 557 q 167 631 128 614 q 251 647 206 647 l 467 647 q 485 668 485 647 l 485 707 m 396 183 q 461 204 438 183 q 485 271 485 225 l 485 467 q 475 491 485 481 q 450 501 465 501 l 300 501 q 275 491 285 501 q 265 467 265 481 l 265 271 q 285 204 265 225 q 346 183 304 183 l 396 183 z "},"":{"ha":793,"x_min":39,"x_max":736,"o":"m 669 788 q 656 781 660 788 q 653 765 651 774 l 735 422 q 735 417 735 419 q 736 413 736 415 l 736 35 q 726 10 736 19 q 701 0 717 0 l 550 0 q 526 10 536 0 q 517 35 517 19 l 517 206 q 507 231 517 221 q 482 240 497 240 l 290 240 q 266 231 276 240 q 256 206 256 221 l 256 35 q 246 10 256 19 q 222 0 236 0 l 74 0 q 49 10 58 0 q 39 35 39 19 l 39 413 q 40 422 39 419 l 122 765 q 119 781 125 775 q 106 788 115 788 l 74 788 q 49 797 58 788 q 39 822 39 807 l 39 938 q 49 963 39 953 q 74 972 58 972 l 701 972 q 726 963 717 972 q 736 938 736 953 l 736 822 q 726 797 736 807 q 701 788 717 788 l 669 788 m 388 744 q 354 740 368 744 q 335 713 340 736 l 271 447 q 274 432 268 438 q 288 425 278 425 l 488 425 q 501 432 494 425 q 503 447 507 440 l 440 713 q 421 740 435 735 q 388 744 407 744 m 474 999 q 471 983 475 990 q 457 976 467 976 l 404 976 q 388 989 392 976 l 339 1150 q 340 1165 335 1157 q 356 1172 347 1172 l 408 1172 q 425 1160 419 1172 l 474 999 z "},"":{"ha":779,"x_min":22,"x_max":719,"o":"m 653 788 q 639 781 643 788 q 636 765 635 774 l 718 422 q 719 417 718 419 q 719 413 719 415 l 719 35 q 710 10 719 19 q 685 0 700 0 l 533 0 q 510 10 519 0 q 500 35 500 19 l 500 206 q 490 231 500 221 q 465 240 481 240 l 274 240 q 249 231 260 240 q 239 206 239 221 l 239 35 q 229 10 239 19 q 206 0 219 0 l 57 0 q 32 10 42 0 q 22 35 22 19 l 22 413 q 24 422 22 419 l 106 765 q 103 781 108 775 q 89 788 99 788 l 57 788 q 32 797 42 788 q 22 822 22 807 l 22 938 q 32 963 22 953 q 57 972 42 972 l 685 972 q 710 963 700 972 q 719 938 719 953 l 719 822 q 710 797 719 807 q 685 788 700 788 l 653 788 m 371 744 q 338 740 351 744 q 318 713 324 736 l 254 447 q 257 432 251 438 q 271 425 261 425 l 471 425 q 485 432 478 425 q 486 447 490 440 l 424 713 q 404 740 418 735 q 371 744 390 744 m 432 1172 q 447 1165 443 1172 q 449 1150 451 1158 l 399 989 q 383 976 397 976 l 329 976 q 315 983 322 976 q 314 999 310 992 l 363 1160 q 379 1172 368 1172 l 432 1172 z "},"":{"ha":774,"x_min":26,"x_max":724,"o":"m 657 788 q 643 781 647 788 q 640 765 639 774 l 722 422 q 723 417 722 419 q 724 413 724 415 l 724 35 q 714 10 724 19 q 689 0 704 0 l 538 0 q 514 10 524 0 q 504 35 504 19 l 504 206 q 494 231 504 221 q 469 240 485 240 l 278 240 q 253 231 264 240 q 243 206 243 221 l 243 35 q 233 10 243 19 q 210 0 224 0 l 61 0 q 36 10 46 0 q 26 35 26 19 l 26 413 q 28 422 26 419 l 110 765 q 107 781 113 775 q 93 788 103 788 l 61 788 q 36 797 46 788 q 26 822 26 807 l 26 938 q 36 963 26 953 q 61 972 46 972 l 689 972 q 714 963 704 972 q 724 938 724 953 l 724 822 q 714 797 724 807 q 689 788 704 788 l 657 788 m 375 744 q 342 740 356 744 q 322 713 328 736 l 258 447 q 261 432 256 438 q 275 425 265 425 l 475 425 q 489 432 482 425 q 490 447 494 440 l 428 713 q 408 740 422 735 q 375 744 394 744 m 294 1161 q 356 1135 331 1161 q 381 1074 381 1110 q 356 1013 381 1038 q 294 988 331 988 q 233 1013 258 988 q 207 1074 207 1038 q 233 1135 207 1110 q 294 1161 258 1161 m 485 1161 q 546 1135 521 1161 q 571 1074 571 1110 q 546 1013 571 1038 q 485 988 521 988 q 423 1013 449 988 q 397 1074 397 1038 q 424 1135 397 1111 q 485 1161 447 1161 z "},"":{"ha":781,"x_min":32,"x_max":729,"o":"m 663 788 q 649 781 653 788 q 646 765 644 774 l 728 422 q 728 417 728 419 q 729 413 729 415 l 729 35 q 719 10 729 19 q 694 0 710 0 l 543 0 q 519 10 529 0 q 510 35 510 19 l 510 206 q 500 231 510 221 q 475 240 490 240 l 283 240 q 259 231 269 240 q 249 206 249 221 l 249 35 q 239 10 249 19 q 215 0 229 0 l 67 0 q 42 10 51 0 q 32 35 32 19 l 32 413 q 33 422 32 419 l 115 765 q 113 781 118 775 q 99 788 108 788 l 67 788 q 42 797 51 788 q 32 822 32 807 l 32 938 q 42 963 32 953 q 67 972 51 972 l 694 972 q 719 963 710 972 q 729 938 729 953 l 729 822 q 719 797 729 807 q 694 788 710 788 l 663 788 m 381 744 q 347 740 361 744 q 328 713 333 736 l 264 447 q 267 432 261 438 q 281 425 271 425 l 481 425 q 494 432 488 425 q 496 447 500 440 l 433 713 q 414 740 428 735 q 381 744 400 744 m 594 1063 q 603 1050 601 1058 q 599 1036 603 1043 q 544 999 575 1013 q 481 986 514 986 q 417 1003 442 986 q 378 1036 393 1021 q 354 1055 363 1050 q 335 1060 346 1060 q 301 1045 319 1060 q 267 1014 282 1031 q 244 1011 258 1004 l 193 1040 q 186 1051 189 1043 q 190 1065 186 1060 q 213 1090 199 1076 q 247 1117 228 1104 q 288 1140 265 1131 q 335 1149 310 1149 q 403 1131 376 1149 q 444 1097 429 1113 q 465 1080 458 1085 q 482 1075 472 1075 q 521 1088 504 1075 q 539 1089 528 1093 l 594 1063 z "},"":{"ha":778,"x_min":33,"x_max":731,"o":"m 664 788 q 650 781 654 788 q 647 765 646 774 l 729 422 q 730 417 729 419 q 731 413 731 415 l 731 35 q 721 10 731 19 q 696 0 711 0 l 544 0 q 521 10 531 0 q 511 35 511 19 l 511 206 q 501 231 511 221 q 476 240 492 240 l 285 240 q 260 231 271 240 q 250 206 250 221 l 250 35 q 240 10 250 19 q 217 0 231 0 l 68 0 q 43 10 53 0 q 33 35 33 19 l 33 413 q 35 422 33 419 l 117 765 q 114 781 119 775 q 100 788 110 788 l 68 788 q 43 797 53 788 q 33 822 33 807 l 33 938 q 43 963 33 953 q 68 972 53 972 l 696 972 q 721 963 711 972 q 731 938 731 953 l 731 822 q 721 797 731 807 q 696 788 711 788 l 664 788 m 382 744 q 349 740 363 744 q 329 713 335 736 l 265 447 q 268 432 263 438 q 282 425 272 425 l 482 425 q 496 432 489 425 q 497 447 501 440 l 435 713 q 415 740 429 735 q 382 744 401 744 m 510 1011 q 510 1000 513 1004 q 501 994 507 994 l 428 994 q 418 1000 424 994 l 403 1035 q 394 1040 401 1040 q 385 1035 386 1040 l 369 1000 q 360 994 367 994 l 286 994 q 278 1000 281 994 q 278 1011 275 1007 l 386 1156 q 394 1160 389 1160 q 403 1156 399 1160 l 510 1011 z "},"":{"ha":792,"x_min":39,"x_max":736,"o":"m 669 788 q 656 781 660 788 q 653 765 651 774 l 735 422 q 735 417 735 419 q 736 413 736 415 l 736 35 q 726 10 736 19 q 701 0 717 0 l 550 0 q 526 10 536 0 q 517 35 517 19 l 517 206 q 507 231 517 221 q 482 240 497 240 l 290 240 q 266 231 276 240 q 256 206 256 221 l 256 35 q 246 10 256 19 q 222 0 236 0 l 74 0 q 49 10 58 0 q 39 35 39 19 l 39 413 q 40 422 39 419 l 122 765 q 119 781 125 775 q 106 788 115 788 l 74 788 q 49 797 58 788 q 39 822 39 807 l 39 938 q 49 963 39 953 q 74 972 58 972 l 701 972 q 726 963 717 972 q 736 938 736 953 l 736 822 q 726 797 736 807 q 701 788 717 788 l 669 788 m 388 744 q 354 740 368 744 q 335 713 340 736 l 271 447 q 274 432 268 438 q 288 425 278 425 l 488 425 q 501 432 494 425 q 503 447 507 440 l 440 713 q 421 740 435 735 q 388 744 407 744 m 393 1161 q 454 1135 429 1161 q 479 1074 479 1110 q 454 1013 479 1038 q 393 988 429 988 q 331 1013 357 988 q 306 1074 306 1038 q 331 1135 306 1110 q 393 1161 357 1161 m 393 1042 q 415 1051 406 1042 q 425 1074 425 1061 q 415 1097 425 1088 q 393 1106 406 1106 q 370 1097 379 1106 q 361 1074 361 1088 q 369 1051 361 1060 q 393 1042 382 1042 z "},"":{"ha":1172,"x_min":38,"x_max":1114,"o":"m 668 788 q 654 781 658 788 q 651 765 650 774 l 733 422 q 734 417 733 419 q 735 413 735 415 l 735 35 q 725 10 735 19 q 700 0 715 0 l 549 0 q 525 10 535 0 q 515 35 515 19 l 515 206 q 506 231 515 221 q 481 240 496 240 l 289 240 q 265 231 275 240 q 254 206 254 221 l 254 35 q 244 10 254 19 q 221 0 235 0 l 72 0 q 47 10 57 0 q 38 35 38 19 l 38 413 q 39 422 38 419 l 121 765 q 118 781 124 775 q 104 788 114 788 l 72 788 q 47 797 57 788 q 38 822 38 807 l 38 938 q 47 963 38 953 q 72 972 57 972 l 700 972 q 725 963 715 972 q 735 938 735 953 l 735 822 q 725 797 735 807 q 700 788 715 788 l 668 788 m 386 744 q 353 740 367 744 q 333 713 339 736 l 269 447 q 272 432 267 438 q 286 425 276 425 l 486 425 q 500 432 493 425 q 501 447 506 440 l 439 713 q 419 740 433 735 q 386 744 406 744 m 788 788 q 763 778 774 788 q 753 753 753 768 l 753 611 q 763 586 753 596 q 788 576 774 576 l 1079 576 q 1104 567 1094 576 q 1114 542 1114 557 l 1114 426 q 1104 401 1114 411 q 1079 392 1094 392 l 788 392 q 763 382 774 392 q 753 357 753 372 l 753 219 q 763 194 753 204 q 788 185 774 185 l 1079 185 q 1104 175 1094 185 q 1114 150 1114 165 l 1114 35 q 1104 10 1114 19 q 1079 0 1094 0 l 568 0 q 543 10 553 0 q 533 35 533 19 l 533 938 q 543 963 533 953 q 568 972 553 972 l 1079 972 q 1104 963 1094 972 q 1114 938 1114 953 l 1114 822 q 1104 797 1114 807 q 1079 788 1094 788 l 788 788 z "},"":{"ha":765,"x_min":33,"x_max":718,"o":"m 568 564 q 543 574 553 564 q 533 597 533 583 l 533 751 q 524 776 533 767 q 500 786 514 786 l 288 786 q 263 776 274 786 q 253 751 253 767 l 253 218 q 263 193 253 203 q 288 183 274 183 l 500 183 q 524 193 514 183 q 533 218 533 203 l 533 372 q 543 396 533 386 q 568 406 553 406 l 685 406 q 708 396 699 406 q 718 372 718 386 l 718 171 q 706 105 718 136 q 671 51 693 74 q 618 14 649 28 q 553 -1 588 0 l 206 -1 q 138 12 169 -1 q 83 49 107 25 q 47 103 60 72 q 33 171 33 135 l 33 799 q 47 866 33 835 q 83 921 60 897 q 138 958 107 944 q 206 971 169 971 l 553 971 q 618 956 588 969 q 671 919 649 942 q 706 865 693 896 q 718 799 718 833 l 718 597 q 708 574 718 583 q 685 564 699 564 l 568 564 m 374 140 q 460 101 424 135 q 497 0 497 67 q 470 -110 497 -71 q 407 -166 443 -149 q 333 -185 371 -183 q 276 -185 296 -187 q 260 -168 260 -185 l 260 -93 q 265 -81 260 -86 q 276 -75 269 -75 q 342 -69 317 -75 q 381 -49 368 -64 q 395 -9 394 -35 q 385 56 396 17 q 368 69 382 69 l 271 69 q 259 74 264 69 q 254 86 254 79 l 254 192 q 259 204 254 199 q 271 210 264 210 l 340 210 q 357 192 357 210 l 357 157 q 362 145 357 150 q 374 140 367 140 z "},"":{"ha":829,"x_min":-26,"x_max":781,"o":"m 475 972 q 593 953 538 972 q 690 897 649 935 q 756 801 732 858 q 781 667 781 743 l 781 308 q 762 188 781 244 q 705 90 743 132 q 608 24 667 49 q 472 0 550 0 l 117 0 q 92 10 101 0 q 82 35 82 19 l 82 938 q 92 963 82 953 q 117 972 101 972 l 475 972 m 563 664 q 533 759 563 731 q 465 788 504 788 l 319 788 q 307 783 313 788 q 301 771 301 778 l 301 201 q 307 190 301 194 q 319 185 313 185 l 465 185 q 533 214 504 185 q 563 310 563 243 l 563 664 m 446 631 q 474 621 467 631 q 481 596 481 611 l 481 515 q 471 490 481 500 q 446 481 461 481 l 8 481 q -17 490 -7 481 q -26 515 -26 500 l -26 596 q -17 621 -26 611 q 8 631 -7 631 l 446 631 z "},"":{"ha":829,"x_min":-25,"x_max":781,"o":"m 475 972 q 593 953 538 972 q 690 897 649 935 q 756 801 732 858 q 781 667 781 743 l 781 308 q 762 188 781 244 q 705 90 743 132 q 608 24 667 49 q 472 0 550 0 l 117 0 q 92 10 101 0 q 82 35 82 19 l 82 938 q 92 963 82 953 q 117 972 101 972 l 475 972 m 563 664 q 533 759 563 731 q 465 788 504 788 l 319 788 q 307 783 313 788 q 301 771 301 778 l 301 201 q 307 190 301 194 q 319 185 313 185 l 465 185 q 533 214 504 185 q 563 310 563 243 l 563 664 m 447 631 q 475 621 468 631 q 482 596 482 611 l 482 515 q 472 490 482 500 q 447 481 463 481 l 10 481 q -15 490 -6 481 q -25 515 -25 500 l -25 596 q -15 621 -25 611 q 10 631 -6 631 l 447 631 z "},"":{"ha":664,"x_min":33,"x_max":614,"o":"m 288 788 q 263 778 274 788 q 253 753 253 768 l 253 611 q 263 586 253 596 q 288 576 274 576 l 579 576 q 604 567 594 576 q 614 542 614 557 l 614 426 q 604 401 614 411 q 579 392 594 392 l 288 392 q 263 382 274 392 q 253 357 253 372 l 253 219 q 263 194 253 204 q 288 185 274 185 l 579 185 q 604 175 594 185 q 614 150 614 165 l 614 35 q 604 10 614 19 q 579 0 594 0 l 68 0 q 43 10 53 0 q 33 35 33 19 l 33 938 q 43 963 33 953 q 68 972 53 972 l 579 972 q 604 963 594 972 q 614 938 614 953 l 614 822 q 604 797 614 807 q 579 788 594 788 l 288 788 m 385 999 q 382 983 386 990 q 368 976 378 976 l 315 976 q 299 989 303 976 l 250 1150 q 251 1165 246 1157 q 267 1172 258 1172 l 319 1172 q 336 1160 331 1172 l 385 999 z "},"":{"ha":667,"x_min":40,"x_max":621,"o":"m 294 788 q 270 778 281 788 q 260 753 260 768 l 260 611 q 270 586 260 596 q 294 576 281 576 l 586 576 q 611 567 601 576 q 621 542 621 557 l 621 426 q 611 401 621 411 q 586 392 601 392 l 294 392 q 270 382 281 392 q 260 357 260 372 l 260 219 q 270 194 260 204 q 294 185 281 185 l 586 185 q 611 175 601 185 q 621 150 621 165 l 621 35 q 611 10 621 19 q 586 0 601 0 l 75 0 q 50 10 60 0 q 40 35 40 19 l 40 938 q 50 963 40 953 q 75 972 60 972 l 586 972 q 611 963 601 972 q 621 938 621 953 l 621 822 q 611 797 621 807 q 586 788 601 788 l 294 788 m 368 1172 q 383 1165 379 1172 q 385 1150 388 1158 l 335 989 q 319 976 333 976 l 265 976 q 251 983 258 976 q 250 999 246 992 l 299 1160 q 315 1172 304 1172 l 368 1172 z "},"":{"ha":667,"x_min":40,"x_max":621,"o":"m 294 788 q 270 778 281 788 q 260 753 260 768 l 260 611 q 270 586 260 596 q 294 576 281 576 l 586 576 q 611 567 601 576 q 621 542 621 557 l 621 426 q 611 401 621 411 q 586 392 601 392 l 294 392 q 270 382 281 392 q 260 357 260 372 l 260 219 q 270 194 260 204 q 294 185 281 185 l 586 185 q 611 175 601 185 q 621 150 621 165 l 621 35 q 611 10 621 19 q 586 0 601 0 l 75 0 q 50 10 60 0 q 40 35 40 19 l 40 938 q 50 963 40 953 q 75 972 60 972 l 586 972 q 611 963 601 972 q 621 938 621 953 l 621 822 q 611 797 621 807 q 586 788 601 788 l 294 788 m 225 1161 q 286 1135 261 1161 q 311 1074 311 1110 q 286 1013 311 1038 q 225 988 261 988 q 163 1013 189 988 q 138 1074 138 1038 q 163 1135 138 1110 q 225 1161 189 1161 m 415 1161 q 476 1135 451 1161 q 501 1074 501 1110 q 476 1013 501 1038 q 415 988 451 988 q 353 1013 379 988 q 328 1074 328 1038 q 354 1135 328 1111 q 415 1161 378 1161 z "},"":{"ha":667,"x_min":39,"x_max":619,"o":"m 293 788 q 269 778 279 788 q 258 753 258 768 l 258 611 q 269 586 258 596 q 293 576 279 576 l 585 576 q 610 567 600 576 q 619 542 619 557 l 619 426 q 610 401 619 411 q 585 392 600 392 l 293 392 q 269 382 279 392 q 258 357 258 372 l 258 219 q 269 194 258 204 q 293 185 279 185 l 585 185 q 610 175 600 185 q 619 150 619 165 l 619 35 q 610 10 619 19 q 585 0 600 0 l 74 0 q 49 10 58 0 q 39 35 39 19 l 39 938 q 49 963 39 953 q 74 972 58 972 l 585 972 q 610 963 600 972 q 619 938 619 953 l 619 822 q 610 797 619 807 q 585 788 600 788 l 293 788 m 433 1011 q 433 1000 436 1004 q 425 994 431 994 l 351 994 q 342 1000 347 994 l 326 1035 q 318 1040 325 1040 q 308 1035 310 1040 l 293 1000 q 283 994 290 994 l 210 994 q 201 1000 204 994 q 201 1011 199 1007 l 310 1156 q 318 1160 313 1160 q 326 1156 322 1160 l 433 1011 z "},"":{"ha":310,"x_min":42,"x_max":260,"o":"m 83 972 l 218 972 q 249 961 238 972 q 260 931 260 950 l 260 42 q 249 11 260 22 q 218 0 238 0 l 83 0 q 53 11 64 0 q 42 42 42 22 l 42 931 q 53 961 42 950 q 83 972 64 972 m 225 999 q 222 983 226 990 q 208 976 218 976 l 156 976 q 139 989 143 976 l 90 1150 q 92 1165 86 1157 q 107 1172 99 1172 l 160 1172 q 176 1160 171 1172 l 225 999 z "},"":{"ha":303,"x_min":40,"x_max":258,"o":"m 82 972 l 217 972 q 247 961 236 972 q 258 931 258 950 l 258 42 q 247 11 258 22 q 217 0 236 0 l 82 0 q 51 11 63 0 q 40 42 40 22 l 40 931 q 51 961 40 950 q 82 972 63 972 m 200 1172 q 215 1165 211 1172 q 217 1150 219 1158 l 167 989 q 151 976 165 976 l 97 976 q 83 983 90 976 q 82 999 78 992 l 131 1160 q 147 1172 136 1172 l 200 1172 z "},"":{"ha":356,"x_min":-1,"x_max":363,"o":"m 111 972 l 246 972 q 276 961 265 972 q 288 931 288 950 l 288 42 q 276 11 288 22 q 246 0 265 0 l 111 0 q 81 11 92 0 q 69 42 69 22 l 69 931 q 81 961 69 950 q 111 972 92 972 m 86 1161 q 147 1135 122 1161 q 172 1074 172 1110 q 147 1013 172 1038 q 86 988 122 988 q 24 1013 50 988 q -1 1074 -1 1038 q 24 1135 -1 1110 q 86 1161 50 1161 m 276 1161 q 338 1135 313 1161 q 363 1074 363 1110 q 338 1013 363 1038 q 276 988 313 988 q 215 1013 240 988 q 189 1074 189 1038 q 215 1135 189 1111 q 276 1161 239 1161 z "},"":{"ha":332,"x_min":47,"x_max":285,"o":"m 97 972 l 232 972 q 263 961 251 972 q 274 931 274 950 l 274 42 q 263 11 274 22 q 232 0 251 0 l 97 0 q 67 11 78 0 q 56 42 56 22 l 56 931 q 67 961 56 950 q 97 972 78 972 m 282 1011 q 282 1000 285 1004 q 274 994 279 994 l 200 994 q 190 1000 196 994 l 175 1035 q 167 1040 174 1040 q 157 1035 158 1040 l 142 1000 q 132 994 139 994 l 58 994 q 50 1000 53 994 q 50 1011 47 1007 l 158 1156 q 167 1160 161 1160 q 175 1156 171 1160 l 282 1011 z "},"":{"ha":663,"x_min":43,"x_max":640,"o":"m 606 185 q 631 175 621 185 q 640 150 640 165 l 640 35 q 631 10 640 19 q 606 0 621 0 l 308 0 q 208 20 254 0 q 126 76 161 40 q 70 158 90 111 q 50 258 50 204 l 50 938 q 60 963 50 953 q 85 972 69 972 l 236 972 q 260 963 250 972 q 269 938 269 953 l 269 272 q 275 243 269 258 q 292 215 281 228 q 319 193 303 201 q 356 185 335 185 l 606 185 m 515 561 q 540 551 531 561 q 550 526 550 542 l 550 446 q 540 421 550 431 q 515 411 531 411 l 78 411 q 53 421 63 411 q 43 446 43 431 l 43 526 q 51 551 43 542 q 78 561 60 561 l 515 561 z "},"":{"ha":822,"x_min":43,"x_max":767,"o":"m 732 972 q 757 963 747 972 q 767 938 767 953 l 767 35 q 757 10 767 19 q 732 0 747 0 l 568 0 q 551 5 560 0 q 539 17 542 10 l 281 515 q 269 519 278 522 q 261 510 261 517 l 261 35 q 251 10 261 19 q 228 0 242 0 l 78 0 q 53 10 63 0 q 43 35 43 19 l 43 938 q 53 963 43 953 q 78 972 63 972 l 243 972 q 260 968 251 972 q 272 957 268 964 l 529 454 q 542 450 532 447 q 549 460 549 453 l 549 938 q 558 963 549 953 q 583 972 568 972 l 732 972 m 579 1063 q 588 1050 586 1058 q 583 1036 588 1043 q 529 999 560 1013 q 465 986 499 986 q 402 1003 426 986 q 363 1036 378 1021 q 339 1055 347 1050 q 319 1060 331 1060 q 285 1045 304 1060 q 251 1014 267 1031 q 229 1011 243 1004 l 178 1040 q 171 1051 174 1043 q 175 1065 171 1060 q 198 1090 183 1076 q 231 1117 213 1104 q 272 1140 250 1131 q 319 1149 294 1149 q 388 1131 361 1149 q 429 1097 414 1113 q 450 1080 443 1085 q 467 1075 457 1075 q 506 1088 489 1075 q 524 1089 513 1093 l 579 1063 z "},"":{"ha":772,"x_min":35,"x_max":717,"o":"m 460 972 q 560 952 513 972 q 642 897 607 932 q 697 815 676 861 q 717 714 717 768 l 717 258 q 697 158 717 204 q 642 76 676 111 q 560 20 607 40 q 460 0 513 0 l 293 0 q 192 20 239 0 q 110 76 146 40 q 55 158 75 111 q 35 258 35 204 l 35 714 q 55 815 35 768 q 110 897 75 861 q 192 952 146 932 q 293 972 239 972 l 460 972 m 497 700 q 476 763 497 738 q 410 788 454 788 l 346 788 q 277 763 301 788 q 253 700 253 738 l 253 272 q 277 210 253 235 q 346 185 301 185 l 410 185 q 476 210 454 185 q 497 272 497 235 l 497 700 m 453 999 q 450 983 454 990 q 436 976 446 976 l 383 976 q 367 989 371 976 l 318 1150 q 319 1165 314 1157 q 335 1172 326 1172 l 388 1172 q 404 1160 399 1172 l 453 999 z "},"":{"ha":761,"x_min":22,"x_max":704,"o":"m 447 972 q 547 952 500 972 q 629 897 594 932 q 684 815 664 861 q 704 714 704 768 l 704 258 q 684 158 704 204 q 629 76 664 111 q 547 20 594 40 q 447 0 500 0 l 281 0 q 180 20 226 0 q 98 76 133 40 q 42 158 63 111 q 22 258 22 204 l 22 714 q 42 815 22 768 q 98 897 63 861 q 180 952 133 932 q 281 972 226 972 l 447 972 m 485 700 q 463 763 485 738 q 397 788 442 788 l 333 788 q 265 763 289 788 q 240 700 240 738 l 240 272 q 265 210 240 235 q 333 185 289 185 l 397 185 q 463 210 442 185 q 485 272 485 235 l 485 700 m 417 1172 q 432 1165 428 1172 q 433 1150 436 1158 l 383 989 q 368 976 382 976 l 314 976 q 300 983 307 976 q 299 999 294 992 l 347 1160 q 364 1172 353 1172 l 417 1172 z "},"":{"ha":758,"x_min":35,"x_max":717,"o":"m 460 972 q 560 952 513 972 q 642 897 607 932 q 697 815 676 861 q 717 714 717 768 l 717 258 q 697 158 717 204 q 642 76 676 111 q 560 20 607 40 q 460 0 513 0 l 293 0 q 192 20 239 0 q 110 76 146 40 q 55 158 75 111 q 35 258 35 204 l 35 714 q 55 815 35 768 q 110 897 75 861 q 192 952 146 932 q 293 972 239 972 l 460 972 m 497 700 q 476 763 497 738 q 410 788 454 788 l 346 788 q 277 763 301 788 q 253 700 253 738 l 253 272 q 277 210 253 235 q 346 185 301 185 l 410 185 q 476 210 454 185 q 497 272 497 235 l 497 700 m 286 1161 q 347 1135 322 1161 q 372 1074 372 1110 q 347 1013 372 1038 q 286 988 322 988 q 224 1013 250 988 q 199 1074 199 1038 q 224 1135 199 1110 q 286 1161 250 1161 m 476 1161 q 538 1135 513 1161 q 563 1074 563 1110 q 538 1013 563 1038 q 476 988 513 988 q 415 1013 440 988 q 389 1074 389 1038 q 415 1135 389 1111 q 476 1161 439 1161 z "},"":{"ha":751,"x_min":29,"x_max":711,"o":"m 454 972 q 554 952 507 972 q 636 897 601 932 q 691 815 671 861 q 711 714 711 768 l 711 258 q 691 158 711 204 q 636 76 671 111 q 554 20 601 40 q 454 0 507 0 l 288 0 q 187 20 233 0 q 105 76 140 40 q 49 158 69 111 q 29 258 29 204 l 29 714 q 49 815 29 768 q 105 897 69 861 q 187 952 140 932 q 288 972 233 972 l 454 972 m 492 700 q 470 763 492 738 q 404 788 449 788 l 340 788 q 272 763 296 788 q 247 700 247 738 l 247 272 q 272 210 247 235 q 340 185 296 185 l 404 185 q 470 210 449 185 q 492 272 492 235 l 492 700 m 576 1063 q 585 1050 583 1058 q 581 1036 585 1043 q 526 999 557 1013 q 463 986 496 986 q 399 1003 424 986 q 360 1036 375 1021 q 336 1055 344 1050 q 317 1060 328 1060 q 283 1045 301 1060 q 249 1014 264 1031 q 226 1011 240 1004 l 175 1040 q 168 1051 171 1043 q 172 1065 168 1060 q 195 1090 181 1076 q 228 1117 210 1104 q 269 1140 247 1131 q 317 1149 292 1149 q 385 1131 358 1149 q 426 1097 411 1113 q 447 1080 440 1085 q 464 1075 454 1075 q 503 1088 486 1075 q 521 1089 510 1093 l 576 1063 z "},"":{"ha":768,"x_min":35,"x_max":717,"o":"m 460 972 q 560 952 513 972 q 642 897 607 932 q 697 815 676 861 q 717 714 717 768 l 717 258 q 697 158 717 204 q 642 76 676 111 q 560 20 607 40 q 460 0 513 0 l 293 0 q 192 20 239 0 q 110 76 146 40 q 55 158 75 111 q 35 258 35 204 l 35 714 q 55 815 35 768 q 110 897 75 861 q 192 952 146 932 q 293 972 239 972 l 460 972 m 497 700 q 476 763 497 738 q 410 788 454 788 l 346 788 q 277 763 301 788 q 253 700 253 738 l 253 272 q 277 210 253 235 q 346 185 301 185 l 410 185 q 476 210 454 185 q 497 272 497 235 l 497 700 m 496 1011 q 496 1000 499 1004 q 488 994 493 994 l 414 994 q 404 1000 410 994 l 389 1035 q 381 1040 388 1040 q 371 1035 372 1040 l 356 1000 q 346 994 353 994 l 272 994 q 264 1000 267 994 q 264 1011 261 1007 l 372 1156 q 381 1160 375 1160 q 389 1156 385 1160 l 496 1011 z "},"":{"ha":769,"x_min":38,"x_max":719,"o":"m 463 972 q 563 952 515 972 q 644 897 610 932 q 699 815 679 861 q 719 714 719 768 l 719 258 q 699 158 719 204 q 644 76 679 111 q 563 20 610 40 q 463 0 515 0 l 296 0 q 195 20 242 0 q 113 76 149 40 q 58 158 78 111 q 38 258 38 204 l 38 714 q 58 815 38 768 q 113 897 78 861 q 195 952 149 932 q 296 972 242 972 l 463 972 m 500 700 q 478 763 500 738 q 413 788 457 788 l 349 788 q 280 763 304 788 q 256 700 256 738 l 256 272 q 280 210 256 235 q 349 185 304 185 l 413 185 q 478 210 457 185 q 500 272 500 235 l 500 700 m 483 1042 q 496 1026 491 1042 q 498 989 501 1008 l 355 -42 q 339 -69 350 -69 l 286 -69 q 273 -54 277 -69 q 270 -17 268 -38 l 414 1015 q 419 1035 415 1027 q 429 1042 424 1042 l 483 1042 z "},"":{"ha":1126,"x_min":29,"x_max":1076,"o":"m 454 972 q 554 952 507 972 q 636 897 601 932 q 691 815 671 861 q 711 714 711 768 l 711 258 q 691 158 711 204 q 636 76 671 111 q 554 20 601 40 q 454 0 507 0 l 288 0 q 187 20 233 0 q 105 76 140 40 q 49 158 69 111 q 29 258 29 204 l 29 714 q 49 815 29 768 q 105 897 69 861 q 187 952 140 932 q 288 972 233 972 l 454 972 m 492 700 q 470 763 492 738 q 404 788 449 788 l 340 788 q 272 763 296 788 q 247 700 247 738 l 247 272 q 272 210 247 235 q 340 185 296 185 l 404 185 q 470 210 449 185 q 492 272 492 235 l 492 700 m 750 788 q 726 778 736 788 q 715 753 715 768 l 715 611 q 726 586 715 596 q 750 576 736 576 l 1042 576 q 1067 567 1057 576 q 1076 542 1076 557 l 1076 426 q 1067 401 1076 411 q 1042 392 1057 392 l 750 392 q 726 382 736 392 q 715 357 715 372 l 715 219 q 726 194 715 204 q 750 185 736 185 l 1042 185 q 1067 175 1057 185 q 1076 150 1076 165 l 1076 35 q 1067 10 1076 19 q 1042 0 1057 0 l 531 0 q 506 10 515 0 q 496 35 496 19 l 496 938 q 506 963 496 953 q 531 972 515 972 l 1042 972 q 1067 963 1057 972 q 1076 938 1076 953 l 1076 822 q 1067 797 1076 807 q 1042 788 1057 788 l 750 788 z "},"":{"ha":736,"x_min":29,"x_max":683,"o":"m 533 625 q 510 635 518 625 q 499 658 499 646 l 499 750 q 489 775 499 765 q 465 785 479 785 l 307 785 q 274 774 292 785 q 253 735 256 763 q 251 714 251 726 q 253 692 251 701 q 276 635 257 660 q 323 589 294 611 q 388 545 351 567 q 464 497 424 524 q 549 441 511 467 q 615 386 588 415 q 658 319 642 357 q 676 224 674 281 q 655 113 676 157 q 597 44 633 69 q 513 8 560 18 q 414 -1 465 -1 l 79 -1 q 54 8 64 -1 q 44 33 44 18 l 44 149 q 54 174 44 164 q 79 183 64 183 l 318 183 q 374 198 350 183 q 401 240 399 213 q 373 306 403 267 q 264 392 343 344 q 152 468 197 431 q 80 542 107 506 q 41 613 53 578 q 29 683 29 649 l 29 713 q 43 809 29 763 q 84 891 57 856 q 152 948 111 926 q 246 969 193 969 l 518 971 q 583 956 553 969 q 636 919 614 942 q 671 865 658 896 q 683 799 683 833 l 683 658 q 674 635 683 644 q 650 625 664 625 l 533 625 m 472 1160 q 481 1154 479 1160 q 481 1144 483 1151 l 374 999 q 365 994 369 994 q 357 999 360 994 l 249 1144 q 249 1154 246 1150 q 257 1160 250 1160 l 331 1160 q 340 1154 339 1160 l 356 1121 q 365 1114 358 1114 q 374 1121 371 1114 l 389 1154 q 399 1160 393 1160 l 472 1160 z "},"":{"ha":782,"x_min":39,"x_max":724,"o":"m 690 972 q 714 963 704 972 q 724 938 724 953 l 724 258 q 703 158 724 204 q 649 76 683 111 q 567 20 614 40 q 467 0 519 0 l 297 0 q 197 20 243 0 q 115 76 150 40 q 59 158 79 111 q 39 258 39 204 l 39 938 q 49 963 39 953 q 74 972 58 972 l 225 972 q 249 963 239 972 q 258 938 258 953 l 258 274 q 281 210 258 235 q 349 185 304 185 l 418 185 q 484 210 463 185 q 506 274 506 235 l 506 938 q 515 963 506 953 q 540 972 525 972 l 690 972 m 450 996 q 447 981 451 988 q 433 974 443 974 l 381 974 q 364 986 368 974 l 315 1147 q 317 1163 311 1154 q 332 1169 324 1169 l 385 1169 q 401 1157 396 1169 l 450 996 z "},"":{"ha":776,"x_min":35,"x_max":719,"o":"m 686 972 q 710 963 700 972 q 719 938 719 953 l 719 258 q 699 158 719 204 q 644 76 679 111 q 563 20 610 40 q 463 0 515 0 l 293 0 q 192 20 239 0 q 110 76 146 40 q 55 158 75 111 q 35 258 35 204 l 35 938 q 44 963 35 953 q 69 972 54 972 l 221 972 q 244 963 235 972 q 254 938 254 953 l 254 274 q 277 210 254 235 q 344 185 300 185 l 414 185 q 480 210 458 185 q 501 274 501 235 l 501 938 q 511 963 501 953 q 536 972 521 972 l 686 972 m 446 1172 q 461 1165 457 1172 q 463 1150 465 1158 l 413 989 q 397 976 411 976 l 343 976 q 329 983 336 976 q 328 999 324 992 l 376 1160 q 393 1172 382 1172 l 446 1172 z "},"":{"ha":781,"x_min":40,"x_max":725,"o":"m 692 972 q 715 963 706 972 q 725 938 725 953 l 725 258 q 705 158 725 204 q 650 76 685 111 q 568 20 615 40 q 468 0 521 0 l 299 0 q 198 20 244 0 q 116 76 151 40 q 60 158 81 111 q 40 258 40 204 l 40 938 q 50 963 40 953 q 75 972 60 972 l 226 972 q 250 963 240 972 q 260 938 260 953 l 260 274 q 283 210 260 235 q 350 185 306 185 l 419 185 q 485 210 464 185 q 507 274 507 235 l 507 938 q 517 963 507 953 q 542 972 526 972 l 692 972 m 286 1160 q 347 1134 322 1160 q 372 1072 372 1108 q 347 1011 372 1036 q 286 986 322 986 q 224 1011 250 986 q 199 1072 199 1036 q 224 1134 199 1108 q 286 1160 250 1160 m 476 1160 q 538 1134 513 1160 q 563 1072 563 1108 q 538 1011 563 1036 q 476 986 513 986 q 415 1011 440 986 q 389 1072 389 1036 q 415 1133 389 1110 q 476 1160 439 1160 z "},"":{"ha":782,"x_min":46,"x_max":731,"o":"m 697 972 q 721 963 711 972 q 731 938 731 953 l 731 258 q 710 158 731 204 q 656 76 690 111 q 574 20 621 40 q 474 0 526 0 l 304 0 q 203 20 250 0 q 122 76 157 40 q 66 158 86 111 q 46 258 46 204 l 46 938 q 56 963 46 953 q 81 972 65 972 l 232 972 q 256 963 246 972 q 265 938 265 953 l 265 274 q 288 210 265 235 q 356 185 311 185 l 425 185 q 491 210 469 185 q 513 274 513 235 l 513 938 q 522 963 513 953 q 547 972 532 972 l 697 972 m 503 1015 q 503 1004 506 1008 q 494 999 500 999 l 421 999 q 411 1004 417 999 l 396 1039 q 388 1044 394 1044 q 378 1039 379 1044 l 363 1004 q 353 999 360 999 l 279 999 q 271 1004 274 999 q 271 1015 268 1011 l 379 1160 q 388 1164 382 1164 q 396 1160 392 1164 l 503 1015 z "},"":{"ha":790,"x_min":6,"x_max":757,"o":"m 718 972 q 747 956 738 972 q 747 921 757 939 l 497 444 q 493 428 493 436 l 493 35 q 483 10 493 19 q 458 0 474 0 l 308 0 q 285 10 294 0 q 275 35 275 19 l 275 428 q 269 444 275 433 l 14 921 q 14 956 6 939 q 44 972 26 972 l 214 972 q 244 956 232 972 l 374 710 q 382 706 376 706 q 392 710 388 706 l 515 956 q 528 968 519 964 q 544 972 536 972 l 718 972 m 497 1011 q 497 1000 500 1004 q 489 994 494 994 l 415 994 q 406 1000 411 994 l 390 1035 q 382 1040 389 1040 q 372 1035 374 1040 l 357 1000 q 347 994 354 994 l 274 994 q 265 1000 268 994 q 265 1011 263 1007 l 374 1156 q 382 1160 376 1160 q 390 1156 386 1160 l 497 1011 z "},"":{"ha":781,"x_min":7,"x_max":758,"o":"m 719 972 q 749 956 739 972 q 749 921 758 939 l 499 444 q 494 428 494 436 l 494 35 q 485 10 494 19 q 460 0 475 0 l 310 0 q 286 10 296 0 q 276 35 276 19 l 276 428 q 271 444 276 433 l 15 921 q 15 956 7 939 q 46 972 28 972 l 215 972 q 246 956 233 972 l 375 710 q 383 706 378 706 q 393 710 389 706 l 517 956 q 529 968 521 964 q 546 972 538 972 l 719 972 m 444 1169 q 460 1163 456 1169 q 461 1147 464 1156 l 411 986 q 396 974 410 974 l 342 974 q 328 981 335 974 q 326 996 322 989 l 375 1157 q 392 1169 381 1169 l 444 1169 z "},"":{"ha":767,"x_min":28,"x_max":713,"o":"m 353 203 q 350 192 349 199 q 360 185 353 185 l 679 185 q 703 175 693 185 q 713 150 713 165 l 713 35 q 703 10 713 19 q 679 0 693 0 l 63 0 q 38 10 50 0 q 28 35 28 22 l 28 163 q 31 176 28 169 q 39 188 35 182 l 497 757 q 500 765 500 763 l 500 776 q 490 788 500 788 l 229 788 q 217 783 222 788 q 213 771 213 778 l 213 675 q 203 651 213 661 q 178 642 193 642 l 63 642 q 38 651 47 642 q 28 675 28 661 l 28 938 q 38 963 28 953 q 63 972 47 972 l 679 972 q 703 963 693 972 q 713 938 713 953 l 713 678 q 709 665 713 671 q 701 651 706 658 l 353 203 m 485 1160 q 493 1154 492 1160 q 493 1144 496 1151 l 386 999 q 378 994 382 994 q 369 999 372 994 l 261 1144 q 261 1154 258 1150 q 269 1160 263 1160 l 343 1160 q 353 1154 351 1160 l 368 1121 q 378 1114 371 1114 q 386 1121 383 1114 l 401 1154 q 411 1160 406 1160 l 485 1160 z "},"":{"ha":688,"x_min":17,"x_max":626,"o":"m 321 840 q 440 814 385 840 q 538 742 496 788 q 603 638 579 697 q 626 513 626 578 l 626 35 q 617 10 626 19 q 592 0 607 0 l 442 0 q 417 10 426 0 q 407 35 407 19 l 407 107 q 399 117 407 117 q 392 116 396 118 q 388 111 388 114 q 376 85 385 103 q 349 48 368 67 q 297 15 331 29 q 208 0 263 0 q 142 13 176 0 q 81 51 108 26 q 35 113 53 76 q 17 194 17 149 l 17 257 q 74 424 17 360 q 242 489 131 489 q 331 474 292 489 q 389 439 369 460 q 400 436 394 435 q 407 446 407 439 l 407 500 q 398 548 407 524 q 372 592 389 572 q 332 624 356 611 q 278 636 308 636 l 125 636 q 101 646 111 636 q 92 669 92 656 l 92 806 q 101 830 92 819 q 125 840 111 840 l 321 840 m 407 297 q 391 342 407 319 q 346 364 375 364 l 268 364 q 212 338 235 364 q 189 274 189 313 q 212 211 189 238 q 268 185 235 185 l 346 185 q 391 208 375 185 q 407 256 407 232 l 407 297 m 403 867 q 400 851 404 858 q 386 844 396 844 l 333 844 q 317 857 321 844 l 268 1018 q 269 1033 264 1025 q 285 1040 276 1040 l 338 1040 q 354 1028 349 1040 l 403 867 z "},"":{"ha":676,"x_min":26,"x_max":636,"o":"m 331 840 q 450 814 394 840 q 547 742 506 788 q 613 638 589 697 q 636 513 636 578 l 636 35 q 626 10 636 19 q 601 0 617 0 l 451 0 q 426 10 436 0 q 417 35 417 19 l 417 107 q 408 117 417 117 q 401 116 406 118 q 397 111 397 114 q 386 85 394 103 q 359 48 378 67 q 306 15 340 29 q 218 0 272 0 q 152 13 186 0 q 90 51 118 26 q 44 113 63 76 q 26 194 26 149 l 26 257 q 83 424 26 360 q 251 489 140 489 q 340 474 301 489 q 399 439 379 460 q 410 436 404 435 q 417 446 417 439 l 417 500 q 408 548 417 524 q 382 592 399 572 q 342 624 365 611 q 288 636 318 636 l 135 636 q 111 646 121 636 q 101 669 101 656 l 101 806 q 111 830 101 819 q 135 840 121 840 l 331 840 m 417 297 q 401 342 417 319 q 356 364 385 364 l 278 364 q 222 338 244 364 q 199 274 199 313 q 222 211 199 238 q 278 185 244 185 l 356 185 q 401 208 385 185 q 417 256 417 232 l 417 297 m 400 1038 q 415 1031 411 1038 q 417 1015 419 1024 l 367 854 q 351 842 365 842 l 297 842 q 283 849 290 842 q 282 864 278 857 l 331 1025 q 347 1038 336 1038 l 400 1038 z "},"":{"ha":686,"x_min":24,"x_max":633,"o":"m 328 840 q 447 814 392 840 q 544 742 503 788 q 610 638 586 697 q 633 513 633 578 l 633 35 q 624 10 633 19 q 599 0 614 0 l 449 0 q 424 10 433 0 q 414 35 414 19 l 414 107 q 406 117 414 117 q 399 116 403 118 q 394 111 394 114 q 383 85 392 103 q 356 48 375 67 q 303 15 338 29 q 215 0 269 0 q 149 13 183 0 q 88 51 115 26 q 42 113 60 76 q 24 194 24 149 l 24 257 q 81 424 24 360 q 249 489 138 489 q 338 474 299 489 q 396 439 376 460 q 407 436 401 435 q 414 446 414 439 l 414 500 q 405 548 414 524 q 379 592 396 572 q 339 624 363 611 q 285 636 315 636 l 132 636 q 108 646 118 636 q 99 669 99 656 l 99 806 q 108 830 99 819 q 132 840 118 840 l 328 840 m 414 297 q 398 342 414 319 q 353 364 382 364 l 275 364 q 219 338 242 364 q 196 274 196 313 q 219 211 196 238 q 275 185 242 185 l 353 185 q 398 208 382 185 q 414 256 414 232 l 414 297 m 253 1029 q 314 1003 289 1029 q 339 942 339 978 q 314 881 339 906 q 253 856 289 856 q 191 881 217 856 q 165 942 165 906 q 191 1003 165 978 q 253 1029 217 1029 m 443 1029 q 504 1003 479 1029 q 529 942 529 978 q 504 881 529 906 q 443 856 479 856 q 381 881 407 856 q 356 942 356 906 q 382 1003 356 979 q 443 1029 406 1029 z "},"":{"ha":682,"x_min":25,"x_max":635,"o":"m 329 840 q 449 814 393 840 q 546 742 504 788 q 611 638 588 697 q 635 513 635 578 l 635 35 q 625 10 635 19 q 600 0 615 0 l 450 0 q 425 10 435 0 q 415 35 415 19 l 415 107 q 407 117 415 117 q 400 116 404 118 q 396 111 396 114 q 385 85 393 103 q 358 48 376 67 q 305 15 339 29 q 217 0 271 0 q 151 13 185 0 q 89 51 117 26 q 43 113 61 76 q 25 194 25 149 l 25 257 q 82 424 25 360 q 250 489 139 489 q 339 474 300 489 q 397 439 378 460 q 408 436 403 435 q 415 446 415 439 l 415 500 q 406 548 415 524 q 381 592 397 572 q 340 624 364 611 q 286 636 317 636 l 133 636 q 110 646 119 636 q 100 669 100 656 l 100 806 q 110 830 100 819 q 133 840 119 840 l 329 840 m 415 297 q 399 342 415 319 q 354 364 383 364 l 276 364 q 220 338 243 364 q 197 274 197 313 q 220 211 197 238 q 276 185 243 185 l 354 185 q 399 208 383 185 q 415 256 415 232 l 415 297 m 560 931 q 568 918 567 926 q 564 904 568 911 q 510 867 540 881 q 446 854 479 854 q 383 872 407 854 q 343 904 358 889 q 319 923 328 918 q 300 928 311 928 q 266 913 285 928 q 232 882 247 899 q 210 879 224 872 l 158 908 q 151 919 154 911 q 156 933 151 928 q 178 958 164 944 q 212 985 193 972 q 253 1008 231 999 q 300 1017 275 1017 q 368 999 342 1017 q 410 965 394 981 q 431 948 424 953 q 447 943 438 943 q 486 956 469 943 q 504 957 493 961 l 560 931 z "},"":{"ha":679,"x_min":19,"x_max":629,"o":"m 324 840 q 443 814 388 840 q 540 742 499 788 q 606 638 582 697 q 629 513 629 578 l 629 35 q 619 10 629 19 q 594 0 610 0 l 444 0 q 419 10 429 0 q 410 35 410 19 l 410 107 q 401 117 410 117 q 394 116 399 118 q 390 111 390 114 q 379 85 388 103 q 352 48 371 67 q 299 15 333 29 q 211 0 265 0 q 145 13 179 0 q 83 51 111 26 q 38 113 56 76 q 19 194 19 149 l 19 257 q 76 424 19 360 q 244 489 133 489 q 333 474 294 489 q 392 439 372 460 q 403 436 397 435 q 410 446 410 439 l 410 500 q 401 548 410 524 q 375 592 392 572 q 335 624 358 611 q 281 636 311 636 l 128 636 q 104 646 114 636 q 94 669 94 656 l 94 806 q 104 830 94 819 q 128 840 114 840 l 324 840 m 410 297 q 394 342 410 319 q 349 364 378 364 l 271 364 q 215 338 238 364 q 192 274 192 313 q 215 211 192 238 q 271 185 238 185 l 349 185 q 394 208 378 185 q 410 256 410 232 l 410 297 m 454 879 q 454 868 457 872 q 446 863 451 863 l 372 863 q 363 868 368 863 l 347 903 q 339 908 346 908 q 329 903 331 908 l 314 868 q 304 863 311 863 l 231 863 q 222 868 225 863 q 222 879 219 875 l 331 1024 q 339 1028 333 1028 q 347 1024 343 1028 l 454 879 z "},"":{"ha":671,"x_min":21,"x_max":631,"o":"m 325 840 q 444 814 389 840 q 542 742 500 788 q 607 638 583 697 q 631 513 631 578 l 631 35 q 621 10 631 19 q 596 0 611 0 l 446 0 q 421 10 431 0 q 411 35 411 19 l 411 107 q 403 117 411 117 q 396 116 400 118 q 392 111 392 114 q 381 85 389 103 q 353 48 372 67 q 301 15 335 29 q 213 0 267 0 q 147 13 181 0 q 85 51 113 26 q 39 113 57 76 q 21 194 21 149 l 21 257 q 78 424 21 360 q 246 489 135 489 q 335 474 296 489 q 393 439 374 460 q 404 436 399 435 q 411 446 411 439 l 411 500 q 402 548 411 524 q 376 592 393 572 q 336 624 360 611 q 282 636 313 636 l 129 636 q 106 646 115 636 q 96 669 96 656 l 96 806 q 106 830 96 819 q 129 840 115 840 l 325 840 m 411 297 q 395 342 411 319 q 350 364 379 364 l 272 364 q 216 338 239 364 q 193 274 193 313 q 216 211 193 238 q 272 185 239 185 l 350 185 q 395 208 379 185 q 411 256 411 232 l 411 297 m 356 1029 q 417 1003 392 1029 q 442 942 442 978 q 417 881 442 906 q 356 856 392 856 q 294 881 319 856 q 268 942 268 906 q 294 1003 268 978 q 356 1029 319 1029 m 356 910 q 378 919 368 910 q 388 942 388 929 q 378 965 388 956 q 356 974 368 974 q 333 965 342 974 q 324 942 324 956 q 332 919 324 928 q 356 910 344 910 z "},"":{"ha":1068,"x_min":17,"x_max":1025,"o":"m 321 840 q 440 814 385 840 q 538 742 496 788 q 603 638 579 697 q 626 513 626 578 l 626 35 q 617 10 626 19 q 592 0 607 0 l 442 0 q 417 10 426 0 q 407 35 407 19 l 407 107 q 399 117 407 117 q 392 116 396 118 q 388 111 388 114 q 376 85 385 103 q 349 48 368 67 q 297 15 331 29 q 208 0 263 0 q 142 13 176 0 q 81 51 108 26 q 35 113 53 76 q 17 194 17 149 l 17 257 q 74 424 17 360 q 242 489 131 489 q 331 474 292 489 q 389 439 369 460 q 400 436 394 435 q 407 446 407 439 l 407 500 q 398 548 407 524 q 372 592 389 572 q 332 624 356 611 q 278 636 308 636 l 125 636 q 101 646 111 636 q 92 669 92 656 l 92 806 q 101 830 92 819 q 125 840 111 840 l 321 840 m 407 297 q 391 342 407 319 q 346 364 375 364 l 268 364 q 212 338 235 364 q 189 274 189 313 q 212 211 189 238 q 268 185 235 185 l 346 185 q 391 208 375 185 q 407 256 407 232 l 407 297 m 708 421 q 688 420 701 421 q 660 417 674 419 q 637 413 647 415 q 626 408 626 411 l 626 275 q 649 208 626 229 q 694 186 671 186 l 767 186 q 816 207 792 186 q 840 274 840 228 l 840 339 q 850 364 840 354 q 875 374 860 374 l 990 374 q 1015 364 1006 374 q 1025 339 1025 354 l 1025 260 q 1007 162 1025 208 q 958 80 989 115 q 883 23 926 44 q 790 1 840 1 l 635 1 q 544 23 586 1 q 472 81 503 44 q 424 163 442 117 q 407 260 407 210 l 407 583 q 424 680 407 633 q 472 763 442 726 q 544 820 503 799 q 635 842 586 842 l 782 842 q 880 822 835 842 q 957 766 925 801 q 1007 683 989 731 q 1025 583 1025 636 l 1025 456 q 1015 431 1025 440 q 990 421 1006 421 l 708 421 m 626 532 q 635 529 626 531 q 654 527 643 528 q 675 526 665 526 q 689 525 685 525 l 774 525 q 788 526 778 525 q 810 527 799 526 q 831 529 822 528 q 840 532 840 531 l 840 575 q 817 638 840 619 q 774 657 794 657 l 689 657 q 647 638 668 657 q 626 575 626 619 l 626 532 z "},"":{"ha":690,"x_min":29,"x_max":646,"o":"m 496 468 q 471 478 481 468 q 461 501 461 488 l 461 564 q 434 632 461 608 q 375 656 407 656 l 336 656 q 272 629 297 656 q 247 550 247 603 l 247 288 q 272 210 247 235 q 336 185 297 185 l 389 185 q 441 206 421 185 q 461 272 461 228 l 461 338 q 471 363 461 353 q 496 372 481 372 l 613 372 q 636 363 626 372 q 646 338 646 353 l 646 258 q 628 160 646 207 q 578 78 610 114 q 503 22 546 43 q 410 0 460 0 l 257 0 q 167 22 208 0 q 94 79 125 43 q 47 162 64 115 q 29 258 29 208 l 29 582 q 47 678 29 632 q 94 761 64 725 q 167 819 125 797 q 257 840 208 840 l 389 840 q 489 820 442 840 q 571 765 536 800 q 626 682 606 729 q 646 582 646 635 l 646 501 q 636 478 646 488 q 613 468 626 468 l 496 468 m 364 140 q 451 101 414 135 q 488 0 488 67 q 460 -110 488 -71 q 397 -166 433 -149 q 324 -185 361 -183 q 267 -185 286 -187 q 250 -168 250 -185 l 250 -93 q 255 -81 250 -86 q 267 -75 260 -75 q 333 -69 307 -75 q 372 -49 358 -64 q 385 -9 385 -35 q 375 56 386 17 q 358 69 372 69 l 261 69 q 249 74 254 69 q 244 86 244 79 l 244 192 q 249 204 244 199 q 261 210 254 210 l 331 210 q 347 192 347 210 l 347 157 q 352 145 347 150 q 364 140 357 140 z "},"":{"ha":761,"x_min":35,"x_max":754,"o":"m 654 972 q 679 963 669 972 q 689 938 689 953 l 689 35 q 679 10 689 19 q 654 0 669 0 l 506 0 q 481 10 490 0 q 471 35 471 19 l 471 124 q 463 133 471 132 q 451 128 454 136 q 429 81 442 104 q 398 40 417 58 q 352 11 379 22 q 285 0 325 0 q 183 22 229 0 q 103 82 136 44 q 53 169 71 119 q 35 276 35 219 l 35 567 q 53 666 35 617 q 104 753 71 715 q 184 816 138 792 q 286 840 231 840 q 357 828 329 840 q 403 798 385 817 q 432 756 421 779 q 451 713 443 733 q 463 707 454 704 q 471 717 471 707 l 471 938 q 481 963 471 953 q 506 972 490 972 l 654 972 m 471 533 q 468 547 471 539 q 454 575 464 556 q 428 614 444 594 q 388 648 411 633 q 333 663 364 663 q 290 644 306 663 q 265 601 274 625 q 253 540 256 575 l 253 300 q 265 239 256 265 q 289 197 274 215 q 332 178 304 178 q 383 192 360 178 q 424 226 406 207 q 453 265 442 246 q 468 293 464 283 q 471 307 471 301 l 471 533 m 729 920 q 746 914 740 920 q 753 898 753 908 l 753 848 q 746 832 753 838 q 729 826 740 826 l 430 826 q 411 832 416 826 q 406 848 406 838 l 406 898 q 413 914 406 908 q 430 920 419 920 l 729 920 z "},"":{"ha":682,"x_min":22,"x_max":640,"o":"m 324 419 q 303 419 317 419 q 276 416 289 418 q 252 412 263 414 q 242 407 242 410 l 242 274 q 264 206 242 228 q 310 185 286 185 l 382 185 q 431 206 407 185 q 456 272 456 226 l 456 338 q 465 363 456 353 q 490 372 475 372 l 606 372 q 631 363 621 372 q 640 338 640 353 l 640 258 q 622 160 640 207 q 573 78 604 114 q 499 22 542 43 q 406 0 456 0 l 250 0 q 160 22 201 0 q 88 79 118 43 q 40 162 57 115 q 22 258 22 208 l 22 582 q 40 678 22 632 q 88 761 57 725 q 160 819 118 797 q 250 840 201 840 l 397 840 q 495 820 450 840 q 572 765 540 800 q 622 682 604 729 q 640 582 640 635 l 640 454 q 631 429 640 439 q 606 419 621 419 l 324 419 m 242 531 q 250 528 242 529 q 269 526 258 526 q 290 524 281 525 q 304 524 300 524 l 389 524 q 403 524 393 524 q 426 526 414 525 q 447 528 438 526 q 456 531 456 529 l 456 574 q 433 637 456 618 q 389 656 410 656 l 304 656 q 263 637 283 656 q 242 574 242 618 l 242 531 m 399 868 q 396 853 400 860 q 382 846 392 846 l 329 846 q 313 858 317 846 l 264 1019 q 265 1035 260 1026 q 281 1042 272 1042 l 333 1042 q 350 1029 344 1042 l 399 868 z "},"":{"ha":685,"x_min":26,"x_max":644,"o":"m 328 419 q 307 419 321 419 q 280 416 293 418 q 256 412 267 414 q 246 407 246 410 l 246 274 q 268 206 246 228 q 314 185 290 185 l 386 185 q 435 206 411 185 q 460 272 460 226 l 460 338 q 469 363 460 353 q 494 372 479 372 l 610 372 q 635 363 625 372 q 644 338 644 353 l 644 258 q 626 160 644 207 q 577 78 608 114 q 503 22 546 43 q 410 0 460 0 l 254 0 q 164 22 206 0 q 92 79 122 43 q 44 162 61 115 q 26 258 26 208 l 26 582 q 44 678 26 632 q 92 761 61 725 q 164 819 122 797 q 254 840 206 840 l 401 840 q 499 820 454 840 q 576 765 544 800 q 626 682 608 729 q 644 582 644 635 l 644 454 q 635 429 644 439 q 610 419 625 419 l 328 419 m 246 531 q 254 528 246 529 q 274 526 263 526 q 294 524 285 525 q 308 524 304 524 l 393 524 q 408 524 397 524 q 430 526 418 525 q 451 528 442 526 q 460 531 460 529 l 460 574 q 437 637 460 618 q 393 656 414 656 l 308 656 q 267 637 288 656 q 246 574 246 618 l 246 531 m 388 1040 q 403 1033 399 1040 q 404 1018 407 1026 l 354 857 q 339 844 353 844 l 285 844 q 271 851 278 844 q 269 867 265 860 l 318 1028 q 335 1040 324 1040 l 388 1040 z "},"":{"ha":686,"x_min":28,"x_max":646,"o":"m 329 419 q 308 419 322 419 q 281 416 294 418 q 258 412 268 414 q 247 407 247 410 l 247 274 q 269 206 247 228 q 315 185 292 185 l 388 185 q 437 206 413 185 q 461 272 461 226 l 461 338 q 471 363 461 353 q 496 372 481 372 l 611 372 q 636 363 626 372 q 646 338 646 353 l 646 258 q 628 160 646 207 q 578 78 610 114 q 504 22 547 43 q 411 0 461 0 l 256 0 q 165 22 207 0 q 93 79 124 43 q 45 162 63 115 q 28 258 28 208 l 28 582 q 45 678 28 632 q 93 761 63 725 q 165 819 124 797 q 256 840 207 840 l 403 840 q 501 820 456 840 q 578 765 546 800 q 628 682 610 729 q 646 582 646 635 l 646 454 q 636 429 646 439 q 611 419 626 419 l 329 419 m 247 531 q 256 528 247 529 q 275 526 264 526 q 296 524 286 525 q 310 524 306 524 l 394 524 q 409 524 399 524 q 431 526 419 525 q 452 528 443 526 q 461 531 461 529 l 461 574 q 438 637 461 618 q 394 656 415 656 l 310 656 q 268 637 289 656 q 247 574 247 618 l 247 531 m 243 1029 q 304 1003 279 1029 q 329 942 329 978 q 304 881 329 906 q 243 856 279 856 q 181 881 207 856 q 156 942 156 906 q 181 1003 156 978 q 243 1029 207 1029 m 433 1029 q 494 1003 469 1029 q 519 942 519 978 q 494 881 519 906 q 433 856 469 856 q 372 881 397 856 q 346 942 346 906 q 372 1003 346 979 q 433 1029 396 1029 z "},"":{"ha":692,"x_min":28,"x_max":646,"o":"m 329 419 q 308 419 322 419 q 281 416 294 418 q 258 412 268 414 q 247 407 247 410 l 247 274 q 269 206 247 228 q 315 185 292 185 l 388 185 q 437 206 413 185 q 461 272 461 226 l 461 338 q 471 363 461 353 q 496 372 481 372 l 611 372 q 636 363 626 372 q 646 338 646 353 l 646 258 q 628 160 646 207 q 578 78 610 114 q 504 22 547 43 q 411 0 461 0 l 256 0 q 165 22 207 0 q 93 79 124 43 q 45 162 63 115 q 28 258 28 208 l 28 582 q 45 678 28 632 q 93 761 63 725 q 165 819 124 797 q 256 840 207 840 l 403 840 q 501 820 456 840 q 578 765 546 800 q 628 682 610 729 q 646 582 646 635 l 646 454 q 636 429 646 439 q 611 419 626 419 l 329 419 m 247 531 q 256 528 247 529 q 275 526 264 526 q 296 524 286 525 q 310 524 306 524 l 394 524 q 409 524 399 524 q 431 526 419 525 q 452 528 443 526 q 461 531 461 529 l 461 574 q 438 637 461 618 q 394 656 415 656 l 310 656 q 268 637 289 656 q 247 574 247 618 l 247 531 m 453 878 q 453 867 456 871 q 444 861 450 861 l 371 861 q 361 867 367 861 l 346 901 q 338 907 344 907 q 328 901 329 907 l 313 867 q 303 861 310 861 l 229 861 q 221 867 224 861 q 221 878 218 874 l 329 1022 q 338 1026 332 1026 q 346 1022 342 1026 l 453 878 z "},"":{"ha":301,"x_min":39,"x_max":257,"o":"m 215 0 l 81 0 q 50 11 61 0 q 39 42 39 22 l 39 694 q 50 725 39 714 q 81 736 61 736 l 215 736 q 246 725 235 736 q 257 694 257 714 l 257 42 q 246 11 257 22 q 215 0 235 0 m 208 867 q 206 851 210 858 q 192 844 201 844 l 139 844 q 122 857 126 844 l 74 1018 q 75 1033 69 1025 q 90 1040 82 1040 l 143 1040 q 160 1028 154 1040 l 208 867 z "},"":{"ha":294,"x_min":39,"x_max":257,"o":"m 215 0 l 81 0 q 50 11 61 0 q 39 42 39 22 l 39 694 q 50 725 39 714 q 81 736 61 736 l 215 736 q 246 725 235 736 q 257 694 257 714 l 257 42 q 246 11 257 22 q 215 0 235 0 m 207 1040 q 222 1033 218 1040 q 224 1018 226 1026 l 174 857 q 158 844 172 844 l 104 844 q 90 851 97 844 q 89 867 85 860 l 138 1028 q 154 1040 143 1040 l 207 1040 z "},"":{"ha":311,"x_min":-24,"x_max":340,"o":"m 226 0 l 92 0 q 61 11 72 0 q 50 42 50 22 l 50 694 q 61 725 50 714 q 92 736 72 736 l 226 736 q 257 725 246 736 q 268 694 268 714 l 268 42 q 257 11 268 22 q 226 0 246 0 m 64 1029 q 125 1003 100 1029 q 150 942 150 978 q 125 881 150 906 q 64 856 100 856 q 2 881 28 856 q -24 942 -24 906 q 2 1003 -24 978 q 64 1029 28 1029 m 254 1029 q 315 1003 290 1029 q 340 942 340 978 q 315 881 340 906 q 254 856 290 856 q 192 881 218 856 q 167 942 167 906 q 193 1003 167 979 q 254 1029 217 1029 z "},"":{"ha":303,"x_min":31,"x_max":268,"o":"m 218 0 l 83 0 q 53 11 64 0 q 42 42 42 22 l 42 694 q 53 725 42 714 q 83 736 64 736 l 218 736 q 249 725 238 736 q 260 694 260 714 l 260 42 q 249 11 260 22 q 218 0 238 0 m 265 879 q 265 868 268 872 q 257 863 263 863 l 183 863 q 174 868 179 863 l 158 903 q 150 908 157 908 q 140 903 142 908 l 125 868 q 115 863 122 863 l 42 863 q 33 868 36 863 q 33 879 31 875 l 142 1024 q 150 1028 144 1028 q 158 1024 154 1028 l 265 879 z "},"":{"ha":386,"x_min":-32,"x_max":414,"o":"m 263 0 l 128 0 q 97 11 108 0 q 86 42 86 22 l 86 931 q 97 961 86 950 q 128 972 108 972 l 263 972 q 293 961 282 972 q 304 931 304 950 l 304 42 q 293 11 304 22 q 263 0 282 0 m 383 561 q 405 551 397 561 q 414 526 414 542 l 414 446 q 405 421 414 431 q 383 411 397 411 l -1 411 q -23 421 -15 411 q -32 446 -32 431 l -32 526 q -25 551 -32 542 q -1 561 -17 561 l 383 561 z "},"":{"ha":746,"x_min":46,"x_max":700,"o":"m 447 840 q 544 818 499 840 q 625 758 590 796 q 680 671 660 721 q 700 564 700 621 l 700 35 q 690 10 700 19 q 665 0 681 0 l 515 0 q 490 10 500 0 q 481 35 481 19 l 481 539 q 468 599 478 572 q 444 640 460 622 q 400 658 428 658 q 346 647 371 658 q 303 617 321 635 q 274 576 285 599 q 264 532 264 554 l 264 35 q 254 10 264 19 q 231 0 244 0 l 81 0 q 56 10 65 0 q 46 35 46 19 l 46 806 q 56 830 46 819 q 81 840 65 840 l 231 840 q 254 830 244 840 q 264 806 264 819 l 264 717 q 272 707 267 707 q 285 713 279 706 q 304 756 294 733 q 331 797 314 778 q 376 828 349 815 q 447 840 404 840 m 572 931 q 581 918 579 926 q 576 904 581 911 q 522 867 553 881 q 458 854 492 854 q 395 872 419 854 q 356 904 371 889 q 332 923 340 918 q 313 928 324 928 q 278 913 297 928 q 244 882 260 899 q 222 879 236 872 l 171 908 q 164 919 167 911 q 168 933 164 928 q 191 958 176 944 q 224 985 206 972 q 265 1008 243 999 q 313 1017 288 1017 q 381 999 354 1017 q 422 965 407 981 q 443 948 436 953 q 460 943 450 943 q 499 956 482 943 q 517 957 506 961 l 572 931 z "},"":{"ha":685,"x_min":24,"x_max":640,"o":"m 397 840 q 492 820 447 840 q 569 765 536 800 q 622 682 603 729 q 640 582 640 635 l 640 258 q 622 160 640 207 q 572 78 604 114 q 497 22 540 43 q 404 0 454 0 l 251 0 q 163 22 204 0 q 90 79 121 43 q 41 162 58 115 q 24 258 24 208 l 24 582 q 41 678 24 632 q 88 761 58 725 q 160 819 118 797 q 251 840 201 840 l 397 840 m 456 557 q 427 633 456 610 q 349 656 399 656 q 270 633 299 656 q 242 557 242 610 l 242 283 q 270 208 242 231 q 349 185 299 185 q 427 208 399 185 q 456 283 456 231 l 456 557 m 401 864 q 399 849 403 856 q 385 842 394 842 l 332 842 q 315 854 319 842 l 267 1015 q 268 1031 263 1022 q 283 1038 275 1038 l 336 1038 q 353 1025 347 1038 l 401 864 z "},"":{"ha":681,"x_min":24,"x_max":640,"o":"m 397 840 q 492 820 447 840 q 569 765 536 800 q 622 682 603 729 q 640 582 640 635 l 640 258 q 622 160 640 207 q 572 78 604 114 q 497 22 540 43 q 404 0 454 0 l 251 0 q 163 22 204 0 q 90 79 121 43 q 41 162 58 115 q 24 258 24 208 l 24 582 q 41 678 24 632 q 88 761 58 725 q 160 819 118 797 q 251 840 201 840 l 397 840 m 456 557 q 427 633 456 610 q 349 656 399 656 q 270 633 299 656 q 242 557 242 610 l 242 283 q 270 208 242 231 q 349 185 299 185 q 427 208 399 185 q 456 283 456 231 l 456 557 m 397 1039 q 413 1032 408 1039 q 414 1017 417 1025 l 364 856 q 349 843 363 843 l 294 843 q 281 850 288 843 q 279 865 275 858 l 328 1026 q 344 1039 333 1039 l 397 1039 z "},"":{"ha":686,"x_min":24,"x_max":640,"o":"m 397 840 q 492 820 447 840 q 569 765 536 800 q 622 682 603 729 q 640 582 640 635 l 640 258 q 622 160 640 207 q 572 78 604 114 q 497 22 540 43 q 404 0 454 0 l 251 0 q 163 22 204 0 q 90 79 121 43 q 41 162 58 115 q 24 258 24 208 l 24 582 q 41 678 24 632 q 88 761 58 725 q 160 819 118 797 q 251 840 201 840 l 397 840 m 456 557 q 427 633 456 610 q 349 656 399 656 q 270 633 299 656 q 242 557 242 610 l 242 283 q 270 208 242 231 q 349 185 299 185 q 427 208 399 185 q 456 283 456 231 l 456 557 m 239 1029 q 300 1003 275 1029 q 325 942 325 978 q 300 881 325 906 q 239 856 275 856 q 177 881 203 856 q 151 942 151 906 q 177 1003 151 978 q 239 1029 203 1029 m 429 1029 q 490 1003 465 1029 q 515 942 515 978 q 490 881 515 906 q 429 856 465 856 q 367 881 393 856 q 342 942 342 906 q 368 1003 342 979 q 429 1029 392 1029 z "},"":{"ha":689,"x_min":24,"x_max":640,"o":"m 397 840 q 492 820 447 840 q 569 765 536 800 q 622 682 603 729 q 640 582 640 635 l 640 258 q 622 160 640 207 q 572 78 604 114 q 497 22 540 43 q 404 0 454 0 l 251 0 q 163 22 204 0 q 90 79 121 43 q 41 162 58 115 q 24 258 24 208 l 24 582 q 41 678 24 632 q 88 761 58 725 q 160 819 118 797 q 251 840 201 840 l 397 840 m 456 557 q 427 633 456 610 q 349 656 399 656 q 270 633 299 656 q 242 557 242 610 l 242 283 q 270 208 242 231 q 349 185 299 185 q 427 208 399 185 q 456 283 456 231 l 456 557 m 533 931 q 542 918 540 926 q 538 904 542 911 q 483 867 514 881 q 419 854 453 854 q 356 872 381 854 q 317 904 332 889 q 293 923 301 918 q 274 928 285 928 q 240 913 258 928 q 206 882 221 899 q 183 879 197 872 l 132 908 q 125 919 128 911 q 129 933 125 928 q 152 958 138 944 q 185 985 167 972 q 226 1008 204 999 q 274 1017 249 1017 q 342 999 315 1017 q 383 965 368 981 q 404 948 397 953 q 421 943 411 943 q 460 956 443 943 q 478 957 467 961 l 533 931 z "},"":{"ha":683,"x_min":22,"x_max":639,"o":"m 396 840 q 490 820 446 840 q 568 765 535 800 q 620 682 601 729 q 639 582 639 635 l 639 258 q 621 160 639 207 q 571 78 603 114 q 496 22 539 43 q 403 0 453 0 l 250 0 q 161 22 203 0 q 88 79 119 43 q 40 162 57 115 q 22 258 22 208 l 22 582 q 40 678 22 632 q 87 761 57 725 q 158 819 117 797 q 250 840 200 840 l 396 840 m 454 557 q 426 633 454 610 q 347 656 397 656 q 269 633 297 656 q 240 557 240 610 l 240 283 q 269 208 240 231 q 347 185 297 185 q 426 208 397 185 q 454 283 454 231 l 454 557 m 446 878 q 446 867 449 871 q 438 861 443 861 l 364 861 q 354 867 360 861 l 339 901 q 331 907 338 907 q 321 901 322 907 l 306 867 q 296 861 303 861 l 222 861 q 214 867 217 861 q 214 878 211 874 l 322 1022 q 331 1026 325 1026 q 339 1022 335 1026 l 446 878 z "},"":{"ha":682,"x_min":24,"x_max":640,"o":"m 397 840 q 492 820 447 840 q 569 765 536 800 q 622 682 603 729 q 640 582 640 635 l 640 258 q 622 160 640 207 q 572 78 604 114 q 497 22 540 43 q 404 0 454 0 l 251 0 q 163 22 204 0 q 90 79 121 43 q 41 162 58 115 q 24 258 24 208 l 24 582 q 41 678 24 632 q 88 761 58 725 q 160 819 118 797 q 251 840 201 840 l 397 840 m 456 557 q 427 633 456 610 q 349 656 399 656 q 270 633 299 656 q 242 557 242 610 l 242 283 q 270 208 242 231 q 349 185 299 185 q 427 208 399 185 q 456 283 456 231 l 456 557 m 433 907 q 446 893 441 907 q 448 861 452 878 l 304 -42 q 288 -65 299 -65 l 233 -65 q 220 -51 225 -65 q 218 -19 216 -37 l 363 883 q 369 901 365 894 q 378 907 373 907 l 433 907 z "},"":{"ha":1135,"x_min":29,"x_max":1081,"o":"m 403 840 q 497 820 453 840 q 575 765 542 800 q 627 682 608 729 q 646 582 646 635 l 646 258 q 628 160 646 207 q 578 78 610 114 q 503 22 546 43 q 410 0 460 0 l 257 0 q 168 22 210 0 q 95 79 126 43 q 47 162 64 115 q 29 258 29 208 l 29 582 q 47 678 29 632 q 94 761 64 725 q 165 819 124 797 q 257 840 207 840 l 403 840 m 461 557 q 433 633 461 610 q 354 656 404 656 q 276 633 304 656 q 247 557 247 610 l 247 283 q 276 208 247 231 q 354 185 304 185 q 433 208 404 185 q 461 283 461 231 l 461 557 m 764 419 q 743 419 757 419 q 716 416 729 418 q 692 412 703 414 q 682 407 682 410 l 682 274 q 704 206 682 228 q 750 185 726 185 l 822 185 q 872 206 847 185 q 896 272 896 226 l 896 338 q 906 363 896 353 q 931 372 915 372 l 1046 372 q 1071 363 1061 372 q 1081 338 1081 353 l 1081 258 q 1063 160 1081 207 q 1013 78 1044 114 q 939 22 982 43 q 846 0 896 0 l 690 0 q 600 22 642 0 q 528 79 558 43 q 480 162 497 115 q 463 258 463 208 l 463 582 q 480 678 463 632 q 528 761 497 725 q 600 819 558 797 q 690 840 642 840 l 838 840 q 935 820 890 840 q 1013 765 981 800 q 1063 682 1044 729 q 1081 582 1081 635 l 1081 454 q 1071 429 1081 439 q 1046 419 1061 419 l 764 419 m 682 531 q 690 528 682 529 q 710 526 699 526 q 731 524 721 525 q 744 524 740 524 l 829 524 q 844 524 833 524 q 866 526 854 525 q 887 528 878 526 q 896 531 896 529 l 896 574 q 873 637 896 618 q 829 656 850 656 l 744 656 q 703 637 724 656 q 682 574 682 618 l 682 531 z "},"":{"ha":679,"x_min":21,"x_max":650,"o":"m 443 465 q 521 420 483 444 q 587 366 558 396 q 633 299 615 336 q 650 215 650 261 q 575 50 650 100 q 344 0 500 0 l 56 0 q 31 10 40 0 q 21 35 21 19 l 21 150 q 31 175 21 165 q 56 185 40 185 l 222 185 q 347 199 306 185 q 386 247 388 213 q 368 279 386 263 q 326 313 350 296 q 276 344 303 329 q 233 368 250 358 q 145 419 185 394 q 78 473 106 444 q 37 534 51 501 q 22 608 22 567 q 41 719 21 674 q 96 791 61 764 q 178 830 131 818 q 279 842 225 842 l 565 842 q 590 832 581 842 q 600 807 600 822 l 600 692 q 590 667 600 676 q 565 657 581 657 l 347 657 q 278 638 300 657 q 265 588 257 619 q 288 557 269 572 q 331 526 306 542 q 387 496 357 511 q 443 465 417 481 m 442 1028 q 450 1022 449 1028 q 450 1013 453 1019 l 343 867 q 335 863 339 863 q 326 867 329 863 l 218 1013 q 218 1022 215 1018 q 226 1028 219 1028 l 300 1028 q 310 1022 308 1028 l 325 989 q 335 982 328 982 q 343 989 340 982 l 358 1022 q 368 1028 363 1028 l 442 1028 z "},"":{"ha":719,"x_min":28,"x_max":682,"o":"m 282 0 q 184 22 231 0 q 103 82 138 44 q 48 169 68 119 q 28 275 28 219 l 28 806 q 38 831 28 821 q 63 840 47 840 l 213 840 q 236 831 226 840 q 246 806 246 821 l 246 301 q 258 242 249 268 q 283 201 267 219 q 328 182 300 182 q 382 194 357 182 q 425 224 407 206 q 453 264 443 242 q 463 308 463 286 l 463 806 q 472 831 463 821 q 496 840 482 840 l 647 840 q 672 831 663 840 q 682 806 682 821 l 682 35 q 672 10 682 21 q 647 0 663 0 l 496 0 q 472 10 482 0 q 463 35 463 21 l 463 124 q 454 133 460 133 q 442 128 447 135 q 422 85 432 107 q 396 44 413 63 q 352 13 379 25 q 282 0 325 0 m 424 864 q 421 849 425 856 q 407 842 417 842 l 354 842 q 338 854 342 842 l 289 1015 q 290 1031 285 1022 q 306 1038 297 1038 l 358 1038 q 375 1025 369 1038 l 424 864 z "},"":{"ha":751,"x_min":35,"x_max":689,"o":"m 289 0 q 191 22 238 0 q 110 82 144 44 q 55 169 75 119 q 35 275 35 219 l 35 806 q 44 831 35 821 q 69 840 54 840 l 219 840 q 243 831 233 840 q 253 806 253 821 l 253 301 q 265 242 256 268 q 290 201 274 219 q 335 182 307 182 q 389 194 364 182 q 432 224 414 206 q 460 264 450 242 q 469 308 469 286 l 469 806 q 479 831 469 821 q 503 840 489 840 l 654 840 q 679 831 669 840 q 689 806 689 821 l 689 35 q 679 10 689 21 q 654 0 669 0 l 503 0 q 479 10 489 0 q 469 35 469 21 l 469 124 q 461 133 467 133 q 449 128 454 135 q 429 85 439 107 q 403 44 419 63 q 359 13 386 25 q 289 0 332 0 m 438 1040 q 453 1033 449 1040 q 454 1018 457 1026 l 404 857 q 389 844 403 844 l 335 844 q 321 851 328 844 q 319 867 315 860 l 368 1028 q 385 1040 374 1040 l 438 1040 z "},"":{"ha":744,"x_min":32,"x_max":686,"o":"m 286 0 q 188 22 235 0 q 107 82 142 44 q 52 169 72 119 q 32 275 32 219 l 32 806 q 42 831 32 821 q 67 840 51 840 l 217 840 q 240 831 231 840 q 250 806 250 821 l 250 301 q 263 242 253 268 q 288 201 271 219 q 332 182 304 182 q 386 194 361 182 q 429 224 411 206 q 457 264 447 242 q 467 308 467 286 l 467 806 q 476 831 467 821 q 500 840 486 840 l 651 840 q 676 831 667 840 q 686 806 686 821 l 686 35 q 676 10 686 21 q 651 0 667 0 l 500 0 q 476 10 486 0 q 467 35 467 21 l 467 124 q 458 133 464 133 q 446 128 451 135 q 426 85 436 107 q 400 44 417 63 q 356 13 383 25 q 286 0 329 0 m 274 1029 q 335 1003 310 1029 q 360 942 360 978 q 335 881 360 906 q 274 856 310 856 q 212 881 238 856 q 186 942 186 906 q 212 1003 186 978 q 274 1029 238 1029 m 464 1029 q 525 1003 500 1029 q 550 942 550 978 q 525 881 550 906 q 464 856 500 856 q 402 881 428 856 q 376 942 376 906 q 403 1003 376 979 q 464 1029 426 1029 z "},"":{"ha":742,"x_min":31,"x_max":685,"o":"m 285 0 q 187 22 233 0 q 106 82 140 44 q 51 169 71 119 q 31 275 31 219 l 31 806 q 40 831 31 821 q 65 840 50 840 l 215 840 q 239 831 229 840 q 249 806 249 821 l 249 301 q 261 242 251 268 q 286 201 269 219 q 331 182 303 182 q 385 194 360 182 q 428 224 410 206 q 456 264 446 242 q 465 308 465 286 l 465 806 q 475 831 465 821 q 499 840 485 840 l 650 840 q 675 831 665 840 q 685 806 685 821 l 685 35 q 675 10 685 21 q 650 0 665 0 l 499 0 q 475 10 485 0 q 465 35 465 21 l 465 124 q 457 133 463 133 q 444 128 450 135 q 425 85 435 107 q 399 44 415 63 q 355 13 382 25 q 285 0 328 0 m 476 879 q 476 868 479 872 q 468 863 474 863 l 394 863 q 385 868 390 863 l 369 903 q 361 908 368 908 q 351 903 353 908 l 336 868 q 326 863 333 863 l 253 863 q 244 868 247 863 q 244 879 242 875 l 353 1024 q 361 1028 356 1028 q 369 1024 365 1028 l 476 879 z "},"":{"ha":738,"x_min":31,"x_max":685,"o":"m 650 840 q 675 830 665 840 q 685 806 685 819 l 685 26 q 666 -66 685 -24 q 615 -140 647 -108 q 540 -190 582 -172 q 449 -208 497 -208 l 231 -210 q 207 -200 217 -210 q 197 -175 197 -190 l 197 -79 q 207 -54 197 -64 q 231 -44 217 -44 l 379 -44 q 440 -19 415 -44 q 465 42 465 6 l 465 124 q 457 133 465 132 q 446 128 449 136 q 424 84 436 107 q 393 42 413 61 q 344 12 374 24 q 271 0 315 0 q 170 22 215 0 q 94 82 125 44 q 47 169 64 119 q 31 276 31 219 l 31 806 q 40 830 31 819 q 65 840 50 840 l 215 840 q 239 830 229 840 q 249 806 249 819 l 249 343 q 256 261 249 297 q 276 203 263 229 q 318 178 290 178 q 374 201 349 178 q 417 253 399 224 q 447 310 436 282 q 463 347 458 338 q 465 361 465 356 l 465 806 q 475 830 465 819 q 500 840 485 840 l 650 840 m 411 1040 q 426 1033 422 1040 q 428 1018 431 1026 l 378 857 q 363 844 376 844 l 308 844 q 294 851 301 844 q 293 867 289 860 l 342 1028 q 358 1040 347 1040 l 411 1040 z "},"":{"ha":751,"x_min":33,"x_max":688,"o":"m 653 840 q 678 830 668 840 q 688 806 688 819 l 688 26 q 669 -66 688 -24 q 617 -140 650 -108 q 542 -190 585 -172 q 451 -208 500 -208 l 233 -210 q 210 -200 219 -210 q 200 -175 200 -190 l 200 -79 q 210 -54 200 -64 q 233 -44 219 -44 l 382 -44 q 443 -19 418 -44 q 468 42 468 6 l 468 124 q 460 133 468 132 q 449 128 451 136 q 427 84 439 107 q 396 42 415 61 q 347 12 376 24 q 274 0 318 0 q 173 22 218 0 q 97 82 128 44 q 50 169 67 119 q 33 276 33 219 l 33 806 q 43 830 33 819 q 68 840 53 840 l 218 840 q 242 830 232 840 q 251 806 251 819 l 251 343 q 258 261 251 297 q 279 203 265 229 q 321 178 293 178 q 376 201 351 178 q 420 253 401 224 q 450 310 439 282 q 465 347 461 338 q 468 361 468 356 l 468 806 q 478 830 468 819 q 503 840 488 840 l 653 840 m 476 881 q 476 869 479 874 q 468 864 474 864 l 394 864 q 385 869 390 864 l 369 904 q 361 910 368 910 q 351 904 353 910 l 336 869 q 326 864 333 864 l 253 864 q 244 869 247 864 q 244 881 242 876 l 353 1025 q 361 1029 356 1029 q 369 1025 365 1029 l 476 881 z "}}}
